<?xml version="1.0" standalone="no"?>
<!DOCTYPE svg PUBLIC "-//W3C//DTD SVG 1.1//EN" "http://www.w3.org/Graphics/SVG/1.1/DTD/svg11.dtd" >
<svg xmlns="http://www.w3.org/2000/svg">
<metadata></metadata>
<defs>
<font id="aventuraregular" horiz-adv-x="1150" >
<font-face units-per-em="2048" ascent="1638" descent="-410" />
<missing-glyph horiz-adv-x="409" />
<glyph horiz-adv-x="0" />
<glyph unicode="&#xd;" horiz-adv-x="2048" />
<glyph unicode=" "  horiz-adv-x="409" />
<glyph unicode="&#x09;" horiz-adv-x="409" />
<glyph unicode="&#xa0;" horiz-adv-x="409" />
<glyph unicode="!" horiz-adv-x="641" d="M-14 109q0 55 46 97.5t103 60.5t109 18q80 0 131 -37.5t51 -89.5q0 -71 -79 -122.5t-175 -51.5q-84 0 -135 35t-51 90zM180 440q0 3 4 15q26 69 66 178t114.5 338t90.5 332q5 34 42.5 57t93 32t93.5 12t74 3q102 0 158.5 -31t56.5 -73q0 -37 -220 -412.5t-276 -431.5 q-24 -24 -38 -34.5t-52.5 -20t-99.5 -9.5q-35 0 -71 10t-36 35z" />
<glyph unicode="&#x22;" horiz-adv-x="751" d="M362 1094q0 48 11 122.5t22 124.5l11 50l2.5 10t12.5 21.5t28 27.5t51.5 21.5t79.5 9.5q12 0 28 -1.5t42.5 -7t44.5 -19.5t18 -34q0 -34 -104.5 -163t-162.5 -173q-38 -28 -59 -28q-25 0 -25 39zM741 1094q0 48 10.5 122.5t21.5 124.5l11 50l2.5 10t12.5 21.5t28 27.5 t51.5 21.5t79.5 9.5q12 0 28 -1.5t43 -7t45 -19.5t18 -34q0 -34 -104.5 -163t-162.5 -173q-38 -28 -59 -28q-25 0 -25 39z" />
<glyph unicode="#" horiz-adv-x="1204" d="M80 420q0 16 9 43.5t25.5 58t46.5 52.5t66 22h82l94 197q-43 -2 -90 -2h-6q-18 0 -27.5 6t-10.5 11.5t-1 14.5q0 23 14.5 62t51 76.5t82.5 37.5h84l39 82q29 66 63.5 85.5t118.5 19.5q72 0 72 -43q0 -9 -3 -21.5t-10.5 -30t-12.5 -29t-16 -34t-14 -29.5q37 0 110.5 1 t110.5 1l37 80q29 65 64 85t119 20q73 0 73 -43q0 -27 -55 -139q18 0 42 1t28 1q23 0 35 -6.5t12 -30.5q0 -44 -38 -109t-89 -65q-1 0 -32 1t-60 1q-31 -59 -97 -199q20 0 48.5 1t31.5 1h10q37 0 37 -35q0 -46 -37.5 -111t-89.5 -65q-1 0 -14.5 0.5t-36 1t-45.5 0.5 q-5 -13 -15 -34.5t-17.5 -38t-12.5 -31.5q-20 -43 -56 -59.5t-104 -16.5q-46 0 -65 10.5t-19 36.5q0 8 2.5 19t9 25.5t10.5 23.5t12.5 26l10.5 21l11 20q-152 0 -224 -2q-5 -13 -15 -34.5t-17.5 -38t-12.5 -31.5q-20 -43 -55.5 -59.5t-103.5 -16.5q-46 0 -65 10.5t-19 36.5 q0 8 2.5 19t9 25.5t10.5 23.5t12.5 26l10.5 21l8 16q-39 -2 -84 -2h-6q-18 0 -27.5 6.5t-10.5 12t-1 14.5zM539 596h227q39 78 96 203q-37 0 -113 -1t-114 -1z" />
<glyph unicode="$" horiz-adv-x="1261" d="M-49 215q0 62 33 124.5t79.5 105t96.5 69.5t86 27q22 -3 22 -23q0 -5 0.5 -13.5t6 -34t15 -48t31.5 -50.5t51.5 -48t78 -34t108.5 -14q97 0 161 38.5t64 109.5q0 37 -28.5 64.5t-74 45.5t-100.5 35.5t-110 41.5t-100.5 56.5t-74 86.5t-28.5 125q0 79 25 155t79.5 146.5 t133 125.5t192.5 91t250 43l21 43q25 68 75 92t144 24q42 0 66 -15.5t24 -35.5q0 -9 -2 -19.5t-9 -25.5t-10 -21t-14.5 -27.5t-13.5 -24.5q72 -11 120 -29t71.5 -44t32.5 -52t9 -62q0 -105 -83 -180.5t-208 -75.5q-37 0 -66.5 8t-29.5 25l6 18q6 18 6 41q0 88 -133 88 q-91 0 -152 -43.5t-61 -107.5q0 -32 29.5 -57.5t76 -44.5t103 -38.5t113.5 -46t103.5 -61t76 -90t29.5 -125.5q0 -39 -8 -85t-31 -106.5t-58 -116.5t-95 -112.5t-135.5 -99t-186 -71t-240.5 -32.5q-6 -15 -20.5 -45.5t-20.5 -46.5q-21 -44 -62.5 -61t-115.5 -17 q-113 0 -113 50q0 18 7.5 39.5t20.5 47t17 35.5q4 11 9 19q-289 63 -289 264z" />
<glyph unicode="%" horiz-adv-x="1742" d="M109 -45q0 16 16 37q93 102 652 700.5t657 698.5q24 19 40 27.5t58.5 17t107.5 8.5q113 0 113 -43q0 -27 -18 -45q-41 -40 -344.5 -368.5t-602.5 -653.5t-311 -338q-45 -55 -97 -72.5t-144 -17.5q-127 0 -127 49zM182 895q0 65 17 136t55 141t90.5 126t130 90.5 t168.5 34.5q56 0 98.5 -18.5t64 -44t35 -58.5t16.5 -55t3 -41q0 -66 -17 -137t-54 -141.5t-89 -126.5t-129 -90.5t-168 -34.5q-56 0 -99 18.5t-65 44t-36 58.5t-17.5 56t-3.5 42zM418 944q0 -90 49 -90q45 0 86.5 52t65.5 125t24 138q0 50 -11.5 70.5t-39.5 20.5 q-64 0 -119 -107.5t-55 -208.5zM1028 180q0 65 17 136t55 141.5t90.5 126t130 90.5t168.5 35q56 0 98.5 -18.5t64.5 -43.5t35.5 -58t17 -55t3.5 -42q0 -66 -17 -136.5t-54 -141t-89 -126t-130 -90.5t-169 -35q-56 0 -99 18.5t-65 44t-36 58.5t-17.5 55t-3.5 41zM1264 231 q0 -92 49 -92q45 0 86.5 52.5t65.5 126t24 137.5q0 50 -11 71t-38 21q-44 0 -85.5 -52.5t-66 -126t-24.5 -137.5z" />
<glyph unicode="&#x26;" horiz-adv-x="1224" d="M0 270q0 69 17.5 134.5t44 115.5t67 99t76.5 82.5t83 67.5t76.5 52t67 39.5t45.5 26.5q15 9 15 20q0 1 -13.5 40t-13.5 87q0 34 14 77.5t56 99.5t106 100.5t177.5 76t256.5 31.5q334 0 334 -213q0 -47 -28.5 -102t-75.5 -102.5t-115.5 -79t-140.5 -31.5q-9 0 -21.5 2 t-27.5 12t-15 27q0 11 12 28t27 34.5t27 49.5t12 70q0 29 -19.5 49.5t-56.5 20.5q-52 0 -93.5 -40t-41.5 -114q0 -92 76.5 -310t95.5 -237q4 -4 14 -4q12 0 55.5 7.5t65.5 7.5q62 0 62 -41q0 -37 -29.5 -95t-79.5 -108q-6 -6 -6 -10q0 -1 12 -27t23.5 -67.5t11.5 -79.5 q0 -76 -42 -140t-103.5 -101t-122 -57t-105.5 -20q-43 0 -43 23q0 11 6.5 24.5t13.5 44.5t7 86q0 51 -10 74q-2 8 -17 8q-165 -63 -317 -63q-109 0 -190.5 26.5t-123.5 62.5t-67.5 85t-32 83.5t-6.5 67.5zM424 399q0 -48 34 -91.5t107 -43.5q37 0 72 14.5t35 43.5 q0 9 -19.5 54.5t-48 109.5t-41.5 98q-2 10 -18 10q-9 0 -27.5 -12.5t-40 -35t-37.5 -62t-16 -85.5z" />
<glyph unicode="'" horiz-adv-x="372" d="M362 1094q0 48 11 122.5t22 124.5l11 50l2.5 10t12.5 21.5t28 27.5t51.5 21.5t79.5 9.5q12 0 28 -1.5t42.5 -7t44.5 -19.5t18 -34q0 -34 -104.5 -163t-162.5 -173q-38 -28 -59 -28q-25 0 -25 39z" />
<glyph unicode="(" horiz-adv-x="645" d="M57 213q0 183 49 366t127 330t175.5 273t196 210t186.5 126q66 30 184 30q57 0 94 -12t37 -35q0 -28 -107 -102q-112 -75 -227 -209t-210 -296t-155.5 -351.5t-60.5 -358.5q0 -90 7 -153t14 -88.5t20 -57.5q4 -12 4 -16q0 -45 -125 -45q-81 0 -125 35t-64 118t-20 236z " />
<glyph unicode=")" horiz-adv-x="702" d="M-213 -131q0 31 107 102q112 74 227.5 208.5t210.5 296.5t155 352t60 358q0 90 -7 153t-14 88.5t-20 57.5q-4 12 -4 16q0 47 125 47q119 0 164 -83t45 -308q0 -183 -49 -365.5t-127 -329.5t-175.5 -273.5t-196 -210t-186.5 -125.5q-63 -29 -182 -29q-133 0 -133 45z" />
<glyph unicode="*" horiz-adv-x="657" d="M342 1239q0 28 25.5 70.5t62.5 42.5q10 0 44 -2t52 -2q56 0 56 20t-25 51t-25 43q0 19 36 41.5t79 22.5q37 -1 45 -13q3 -5 8 -29t12 -43.5t15 -19.5q16 0 36 19t35 42.5t32.5 42.5t31.5 19q28 0 61 -21t33 -57q0 -16 -29 -36t-58 -39t-29 -33q0 -15 59 -15q33 0 80 7 q2 0 5.5 -1t9 -6t5.5 -14q0 -51 -32 -80.5t-52 -29.5q-15 0 -48 6t-48 6q-11 0 -23 -5t-12 -14q0 -12 26 -52t26 -52q0 -10 -8.5 -22.5t-34 -24.5t-62.5 -12q-27 0 -42 16t-18 35t-10.5 35t-21.5 16q-16 0 -33 -19.5t-30 -43t-31 -43t-35 -19.5q-37 0 -60.5 29.5t-23.5 54.5 q0 19 44 53.5t44 55.5q0 10 -22 10q-14 0 -53.5 -5t-57.5 -5q-39 0 -39 20z" />
<glyph unicode="+" horiz-adv-x="1081" d="M121 633q0 16 9 43t25.5 57.5t46 52t64.5 21.5h312q119 254 129 276q29 64 63.5 83.5t116.5 19.5q71 0 71 -41q0 -36 -63 -154q-46 -89 -90 -182q227 0 293 4q47 0 47 -35q0 -26 -14.5 -65.5t-45 -74t-65.5 -34.5q-4 0 -115 2t-164 2h-32q-109 -233 -140 -305 q-18 -42 -52.5 -58t-100.5 -16q-45 0 -64.5 11t-19.5 36q0 8 3 19t8.5 24.5t10.5 23.5l12.5 25l10.5 21q17 36 57 117t49 100q-320 -4 -325 -4q-17 0 -26 6.5t-10 11.5t-1 13z" />
<glyph unicode="," horiz-adv-x="606" d="M2 80q0 59 42 103t97 63.5t109 19.5q77 0 134.5 -43t57.5 -114q0 -85 -50.5 -169t-130 -137t-159.5 -53q-67 3 -67 53q92 71 92 148q0 16 -2 26q-7 4 -38.5 11.5t-52 21.5t-28.5 41q-4 20 -4 29z" />
<glyph unicode="-" horiz-adv-x="997" d="M72 418q0 16 9 43t25.5 57.5t46 52t64.5 21.5q641 2 727 6q47 0 47 -35q0 -26 -14.5 -65.5t-45 -74t-65.5 -34.5q-4 0 -154.5 2t-203.5 2q-101 0 -192 -1.5t-144.5 -3t-62.5 -1.5q-17 0 -26 6.5t-10 11.5t-1 13z" />
<glyph unicode="." horiz-adv-x="610" d="M0 94q0 55 46 97.5t103 60.5t109 18q80 0 131 -37.5t51 -89.5q0 -71 -79 -122.5t-175 -51.5q-84 0 -135 35t-51 90z" />
<glyph unicode="/" horiz-adv-x="983" d="M-141 -86q0 16 14 35l2 2q22 24 575 716.5t640 780.5q25 20 41 28.5t57 16.5t106 8q115 0 115 -45q0 -23 -18 -43q-56 -53 -605.5 -751t-558.5 -707q-44 -55 -97 -72.5t-144 -17.5q-127 0 -127 49z" />
<glyph unicode="0" horiz-adv-x="1300" d="M61 383q0 93 17.5 192.5t55 202.5t91 199t130.5 180.5t168 147t209.5 99t250.5 36.5q81 0 148 -19.5t111 -49.5t78 -72t52 -81.5t29.5 -83.5t14.5 -73.5t3 -54.5q0 -92 -17 -191.5t-54 -202.5t-89.5 -199t-129 -181t-167.5 -147.5t-209.5 -99t-250.5 -36.5 q-81 0 -148.5 19.5t-112 49.5t-78.5 71.5t-53 82t-30.5 84t-15 73t-3.5 54.5zM512 465q0 -199 109 -199q96 0 186.5 114.5t142 273t51.5 298.5q0 107 -24.5 153t-83.5 46q-72 0 -143.5 -68.5t-122.5 -171t-83 -223t-32 -223.5z" />
<glyph unicode="1" horiz-adv-x="641" d="M-104 16q0 12 6 21q10 14 114 222t210 445.5t106 290.5q0 43 -22 66t-49 27t-49 11t-22 23q0 29 21 65t47 60q72 72 254.5 129.5t321.5 57.5q62 0 91 -12t29 -40q0 -12 -10 -39q-36 -57 -290.5 -615t-297.5 -665q-14 -36 -48 -60t-83 -35t-95.5 -15t-104.5 -4 q-61 0 -95 20t-34 47z" />
<glyph unicode="2" horiz-adv-x="1173" d="M-106 23q0 81 63 200.5t162 220.5q77 77 186 159.5t200.5 144t175 122t131.5 115t48 100.5q0 38 -33 56t-73 18q-33 0 -60.5 -10.5t-39.5 -21.5l-11 -11q-51 -89 -127 -126.5t-147 -37.5q-99 0 -99 41q0 18 31.5 92.5t74.5 158.5t94.5 151t84.5 67h20q101 0 168 -43 q1 -1 3.5 -2t9 -3t10.5 1q78 33 211 33q60 0 122 -12t125 -39t102.5 -79.5t39.5 -123.5q0 -89 -41.5 -176.5t-108 -158.5t-147 -137t-161 -120.5t-147 -100.5t-108 -85.5t-41.5 -67.5q0 -29 146 -29q187 0 268 35q26 15 49 15q35 0 35 -39q0 -36 -20.5 -94t-54 -117 t-85.5 -101.5t-106 -42.5q-41 0 -212 8.5t-286 8.5q-132 0 -250.5 -11.5t-120.5 -11.5q-35 0 -55 13.5t-23 27.5z" />
<glyph unicode="3" horiz-adv-x="1134" d="M-84 121q0 56 40 132.5t92.5 130.5t86.5 54q14 0 17 -6q11 -16 29 -33.5t51 -42t83 -40t107 -15.5q118 0 187 54.5t69 131.5q0 44 -20.5 74t-55.5 44.5t-67.5 20t-69.5 5.5q-39 0 -60 -3t-24 -3q-18 0 -26.5 11t-8.5 21q0 62 35.5 127t71.5 103q20 20 45 20q10 0 42 -6 t58 -6q90 0 155.5 17t99.5 45t49.5 58t15.5 62q0 52 -41.5 79.5t-100.5 27.5q-25 0 -46.5 -4t-34 -7t-30 -15.5t-21.5 -15.5t-23.5 -22t-22.5 -22q-34 -32 -75 -40.5t-105 -8.5q-42 0 -64 12t-22 26q0 34 48 133t101 152q34 34 136.5 55t240.5 21q231 0 356 -78t125 -225 q0 -141 -98 -258.5t-258 -151.5q-18 -4 -18 -14q0 -12 12 -19q117 -84 117 -241q0 -36 -8.5 -78t-30.5 -92.5t-55.5 -98t-88.5 -93t-123.5 -79.5t-166 -54.5t-211.5 -20.5q-106 0 -194 13.5t-142 33.5t-91 45t-52 46t-15 38z" />
<glyph unicode="4" horiz-adv-x="1251" d="M-8 367q0 67 78 190.5t198 259t253 266t256 227t194 126.5q75 30 235 30q89 0 149 -13.5t60 -41.5q0 -13 -14 -27q-6 -6 -53.5 -35t-128 -84t-158.5 -116q-186 -145 -348 -307t-162 -215q0 -20 48.5 -26.5t145.5 -6.5q12 0 21.5 3.5t13.5 6.5l4 4q73 121 123 252 q30 82 137 131t205 49q68 0 97.5 -9t29.5 -30q0 -18 -20 -51t-75 -138t-91 -185v-6q0 -13 14 -13q25 0 42 1t24.5 2t9.5 1q27 0 27 -32q0 -34 -29 -98.5t-78.5 -120.5t-95.5 -56h-27q-33 0 -45 -12q-30 -30 -98 -230q-13 -36 -44.5 -60.5t-80 -35t-93 -14.5t-104.5 -4 q-61 0 -94 17t-33 44q0 15 9 27q10 15 68.5 125t58.5 125q0 7 -8.5 11t-16.5 4l-8 1q-64 6 -185 6l-299 -6q-59 0 -85.5 20.5t-26.5 43.5z" />
<glyph unicode="5" horiz-adv-x="1116" d="M-25 86q0 68 53 161t107 128q18 12 33 12q11 0 14 -6q13 -16 23.5 -25.5t35.5 -24.5t67 -22.5t100 -7.5q64 0 118 22t87.5 57t52 74.5t18.5 77.5q0 55 -25.5 96.5t-62.5 64t-88 36t-91 17.5t-83 4q-34 0 -55.5 -2.5t-28.5 -2.5q-27 0 -27 25q0 69 130 309.5t190 302.5 q17 16 33 23.5t71 14.5t152 7q41 0 155 -7t174 -7q47 0 80.5 3.5t50 7t21.5 3.5q25 0 25 -28q0 -70 -53 -156t-89 -102q-12 -6 -41 -6q-9 0 -45 1t-67 1q-95 0 -139 -7.5t-72 -37.5q-22 -20 -46 -66.5t-24 -69.5q0 -6 4 -10q3 -3 34.5 -12.5t72.5 -22t89.5 -42t88.5 -68 t67 -104.5t27 -148q0 -36 -9.5 -82.5t-32.5 -105t-57 -115.5t-89.5 -112t-123.5 -96.5t-163.5 -67t-206.5 -25.5q-101 0 -182.5 10t-131 25t-82.5 34.5t-46 37t-13 34.5z" />
<glyph unicode="6" horiz-adv-x="1175" d="M51 371q0 78 18.5 171.5t58.5 199t97 207.5t141 195.5t183 164.5t229.5 113t274.5 42q50 0 100.5 -5t103.5 -16t86 -34t33 -55q0 -81 -52.5 -169.5t-102.5 -88.5q-13 0 -27.5 11t-29.5 24.5t-52.5 24.5t-91.5 11q-140 0 -271.5 -121.5t-210.5 -307.5t-79 -371 q0 -138 114 -138q65 0 119 53t81.5 125t27.5 138q0 42 -10 69t-24.5 37.5t-32 16.5t-32 8t-24.5 11t-10 26q0 23 12 52t38 60.5t60.5 58t86 43.5t108.5 17q39 0 79.5 -14t79 -42.5t63 -82t24.5 -123.5q0 -97 -29 -199t-90 -198.5t-145.5 -172t-204.5 -121.5t-258 -46 q-82 0 -149.5 17.5t-112.5 45.5t-79 67.5t-52.5 77.5t-29.5 81.5t-14.5 75t-3.5 61.5z" />
<glyph unicode="7" horiz-adv-x="970" d="M37 2q0 73 74.5 201.5t180.5 263t211.5 262t180 224.5t74.5 124q0 45 -236 45h-22q-55 0 -117.5 -7t-71.5 -7q-13 0 -19.5 4.5t-7.5 9.5t-1 13q0 29 37 110.5t96 134.5q66 60 641 60q156 0 209.5 -7.5t74.5 -29.5q11 -11 11 -29q0 -50 -50 -139t-98 -137 q-19 -17 -52 -49.5t-124.5 -139.5t-172.5 -222.5t-172.5 -291t-147.5 -352.5q-19 -60 -96 -83t-218 -23q-50 0 -86.5 5.5t-54.5 13t-28.5 18t-12.5 16.5t-2 12z" />
<glyph unicode="8" horiz-adv-x="1193" d="M-43 276q0 86 31.5 163t78 129t108 95.5t113 67.5t101.5 39q10 2 10 12l-4 13q-51 38 -73.5 91.5t-22.5 102.5q0 62 21.5 122.5t73.5 121t128.5 106.5t196.5 74.5t268 28.5q49 0 101 -6.5t113 -25.5t108 -48t78.5 -79.5t31.5 -115.5q0 -69 -24.5 -131.5t-63 -108 t-88.5 -83t-97 -60.5t-93 -36q-9 -5 -9 -13l5 -10l16.5 -16.5t30.5 -35t32.5 -48.5t28 -70.5t10.5 -87.5q0 -100 -54 -195t-147 -167.5t-226.5 -116t-282.5 -43.5q-246 0 -373 88t-127 243zM395 369q0 -45 31 -85t100 -40q75 0 130 52.5t55 115.5q0 57 -43.5 109t-81.5 52 q-26 0 -70 -27t-82.5 -76.5t-38.5 -100.5zM739 1057q0 -50 38 -96t71 -46q39 0 102.5 57t63.5 122q0 39 -27 73.5t-88 34.5q-65 0 -112.5 -45t-47.5 -100z" />
<glyph unicode="9" horiz-adv-x="1212" d="M37 70q0 50 32.5 123t74.5 125.5t67 52.5q14 0 31.5 -14t35.5 -31t58 -31t94 -14q112 0 213.5 68.5t171.5 178t111 248.5t41 279q0 10 -2.5 24t-11 39t-31.5 41.5t-58 16.5q-66 0 -118 -44.5t-77.5 -106t-25.5 -122.5q0 -43 9 -71t22.5 -37.5t29 -15.5t29 -7.5 t22.5 -10.5t9 -26q0 -75 -76.5 -136.5t-210.5 -61.5q-90 0 -162.5 78t-72.5 198q0 92 22.5 181t75 174t128.5 149.5t192.5 103.5t257.5 39q97 0 176 -30.5t127 -77.5t80.5 -108.5t45.5 -119t13 -112.5q0 -75 -15 -164t-49.5 -193t-84.5 -203.5t-128 -192.5t-172.5 -162.5 t-224 -111.5t-276.5 -42q-58 0 -119.5 7t-120 21t-96 40t-37.5 59z" />
<glyph unicode=":" horiz-adv-x="755" d="M0 94q0 55 46 97.5t103 60.5t109 18q80 0 131 -37.5t51 -89.5q0 -71 -79 -122.5t-175 -51.5q-84 0 -135 35t-51 90zM315 754q0 55 46 97.5t103 60.5t109 18q80 0 131.5 -37.5t51.5 -89.5q0 -71 -79 -122.5t-175 -51.5q-84 0 -135.5 35t-51.5 90z" />
<glyph unicode=";" horiz-adv-x="673" d="M2 80q0 59 42 103t97 63.5t109 19.5q77 0 134.5 -43t57.5 -114q0 -85 -50.5 -169t-130 -137t-159.5 -53q-67 3 -67 53q92 71 92 148q0 16 -2 26q-7 4 -38.5 11.5t-52 21.5t-28.5 41q-4 20 -4 29zM326 754q0 55 46 97.5t103 60.5t109 18q80 0 131 -37.5t51 -89.5 q0 -71 -79 -122.5t-175 -51.5q-84 0 -135 35t-51 90z" />
<glyph unicode="&#x3c;" horiz-adv-x="821" d="M152 707q0 11 3 20.5t10 20t10.5 15t14 16t11.5 12.5q97 97 279 245.5t227 173.5t100 36t170 11q51 0 77.5 -11t26.5 -27q0 -15 -22 -31q-105 -66 -345.5 -255.5t-240.5 -232.5q0 -55 102.5 -206t159.5 -218q10 -13 10 -24q0 -37 -90 -37q-194 0 -245 45 q-46 37 -126 169.5t-118 217.5q-14 38 -14 60z" />
<glyph unicode="=" horiz-adv-x="1122" d="M63 453q0 23 14.5 61.5t50.5 75.5t81 37q745 2 831 6q47 0 47 -35q0 -26 -14.5 -65.5t-44.5 -74t-65 -34.5q-4 0 -115 2t-164 2q-101 0 -238.5 -1.5t-237 -3t-108.5 -1.5q-17 0 -26 6.5t-10 11.5t-1 13zM227 848q0 23 14.5 61.5t50.5 75.5t81 37q745 2 831 6q47 0 47 -35 q0 -26 -14.5 -65.5t-45 -74t-65.5 -34.5q-4 0 -114.5 2t-163.5 2q-101 0 -238.5 -1.5t-237 -3t-108.5 -1.5q-17 0 -26 6.5t-10 11.5t-1 13z" />
<glyph unicode="&#x3e;" horiz-adv-x="856" d="M-27 244q0 14 23 30q105 66 345.5 255.5t240.5 232.5q0 55 -102.5 206t-160.5 218q-10 13 -10 24q0 37 90 37q195 0 246 -45q46 -37 126 -169.5t118 -217.5q14 -38 14 -59q0 -11 -3 -20.5t-10 -20t-10.5 -15t-14 -16t-11.5 -12.5q-97 -97 -279 -246.5t-227 -173.5 q-45 -25 -100 -36t-170 -11q-51 0 -78 11.5t-27 27.5z" />
<glyph unicode="?" horiz-adv-x="1062" d="M158 109q0 55 46 97.5t103 60.5t109 18q80 0 131 -37.5t51 -89.5q0 -71 -79 -122.5t-175 -51.5q-84 0 -135 35t-51 90zM293 1006q0 32 62.5 158t109.5 173q72 72 393 72q99 0 179 -13t129.5 -32t85.5 -47.5t53 -51t26.5 -51t10.5 -40.5t1 -25q0 -150 -135 -287 q-49 -49 -118.5 -90t-131.5 -68t-122 -58t-105.5 -77t-66.5 -108q0 -3 -1 -7.5t-10.5 -16.5t-25.5 -21.5t-51 -17t-82 -7.5q-19 0 -41 2t-57 7.5t-58 20t-23 36.5q0 57 32.5 110t84.5 96t114.5 84t125 81.5t114.5 80.5t84.5 88.5t32.5 98.5q0 10 -4.5 20.5t-16 24t-38.5 22 t-66 8.5q-87 0 -121 -51q-19 -29 -24 -35.5t-21.5 -29t-23.5 -28t-24 -20t-31 -18.5t-35 -11t-45 -9t-54 -2q-106 0 -106 39z" />
<glyph unicode="@" horiz-adv-x="2361" d="M10 174q0 131 29 263.5t88.5 260.5t144.5 244t202.5 214t256.5 169.5t313.5 111.5t366.5 40q153 0 284 -27t226 -73t172 -109.5t126 -133t82 -146.5t46.5 -148t13.5 -140q0 -168 -38.5 -318.5t-105 -263.5t-153.5 -204.5t-185.5 -149t-198.5 -88t-195 -30.5 q-92 0 -159.5 24.5t-104 65t-53.5 85.5t-17 95q0 34 9 77.5t27.5 97t33 91.5t40.5 101t35 86q4 12 4 16q0 16 -49 16q-117 0 -170 -42t-53 -101q0 -29 16 -47t48 -18h16q13 0 17.5 -4.5t4.5 -20.5q0 -27 -14.5 -59t-43.5 -64t-82.5 -53t-121.5 -21q-108 0 -165.5 62 t-57.5 149q0 102 40 183t105.5 132.5t154.5 85.5t179.5 48t188.5 14q10 0 30 -1t29 -1q27 0 27 33q0 44 -34.5 62t-117.5 18q-81 0 -142.5 -11t-95 -21.5t-44.5 -10.5q-23 0 -23 35q0 36 19.5 76t44.5 65q82 82 317 82t344 -72.5t109 -196.5q0 -60 -64 -198 q-24 -52 -62 -133.5t-58 -125t-42 -96.5t-31.5 -87t-9.5 -58q0 -12 0.5 -20t5 -20.5t12 -19.5t22.5 -12.5t36 -5.5q69 0 140 39t132.5 110.5t110.5 164t77 208.5t28 236q0 41 -8.5 86.5t-30.5 98.5t-55 102t-85.5 95t-118.5 80t-159 54.5t-201 20.5q-193 0 -363.5 -56.5 t-295 -154t-214.5 -225.5t-135 -274.5t-45 -297.5q0 -102 23.5 -184.5t58.5 -134.5t84.5 -90.5t92 -57t90.5 -29t70.5 -12.5t41.5 -2q43 0 62.5 -9t19.5 -36q0 -17 -8 -37.5t-31 -45.5t-59 -45t-98.5 -34t-141.5 -14q-54 0 -111.5 13.5t-122 43t-121 83.5t-102.5 127 t-73 183t-27 242z" />
<glyph unicode="A" horiz-adv-x="1339" d="M-190 16q0 6 5 14t10 12l5 5q50 47 130 141.5t135 165.5l55 70q10 13 10 27q0 5 -5 35t-5 57q0 32 10.5 67t23.5 47q11 11 35 11q8 0 30.5 -2t35.5 -2q37 0 61 12q36 17 156.5 167t230.5 314.5t121 214.5q2 10 13.5 21.5t39.5 25t68.5 23.5t107 17t148.5 7q26 0 66 -4 t94 -14t91.5 -32.5t37.5 -53.5q0 -10 -2 -16q-26 -94 -63.5 -240.5t-95 -389t-96 -471.5t-38.5 -360q0 -41 -105 -41q-152 0 -239.5 54.5t-87.5 121.5q0 11 35.5 139.5t35.5 162.5q0 12 -4 16q-18 18 -151 18q-89 0 -143 -8t-65 -14t-22 -17q-50 -50 -131.5 -180t-99.5 -149 q-47 -49 -219 -49q-58 0 -103 8t-69 20t-35.5 24.5t-11.5 24.5zM750 688q0 -26 90 -26q56 0 81.5 6.5t32.5 23.5q78 244 78 309q0 25 -10 25q-23 0 -90 -75.5t-124.5 -158.5t-57.5 -104z" />
<glyph unicode="B" horiz-adv-x="1327" d="M-154 -14q0 10 9 22q11 16 73.5 134.5t152.5 301.5t175 373t145 368t60 267v25q0 26 34 33.5t93 7.5q195 0 268 -99q1 -1 3.5 -3t9 -4.5t12.5 -0.5q62 25 209 25q50 0 99 -7.5t101 -27.5t91 -51t64 -83t25 -118q0 -81 -30 -152t-79.5 -119.5t-107 -81.5t-118.5 -48 q-11 -5 -11 -11t9 -12q155 -108 155 -254q0 -61 -22 -129.5t-69.5 -138.5t-113.5 -126.5t-164.5 -92t-211.5 -35.5q-181 0 -222 41q-30 30 -30 84q0 44 22 104t53.5 104t55.5 44q10 0 35 -10.5t57 -10.5q92 0 150.5 58t58.5 126q0 43 -13.5 72t-39 43.5t-53.5 20.5t-64 6 q-45 0 -86 -14t-60 -35q-22 -21 -134.5 -264t-133.5 -273q-74 -113 -317 -113q-71 0 -105.5 15t-34.5 39zM721 920q0 -31 74 -31q71 0 126 21t83.5 52.5t42.5 62t14 56.5q0 99 -109 99q-81 0 -114 -33q-15 -15 -66 -111t-51 -116z" />
<glyph unicode="C" horiz-adv-x="1202" d="M66 424q0 111 29.5 230.5t82 233.5t131.5 216t173 179t211 122t241 45q139 0 213 -37q6 -2 12 -2q11 0 19 8q16 17 29.5 27t46 27t89 25.5t132.5 8.5q34 0 66 -7.5t32 -26.5v-5q-10 -44 -110.5 -250.5t-159.5 -265.5q-46 -44 -104 -68t-165 -24q-9 0 -21 1t-32 5 t-33.5 13.5t-13.5 23.5q0 10 55 115.5t55 124.5q0 39 -81 39q-75 0 -156.5 -73t-141.5 -177.5t-99.5 -220.5t-39.5 -201q0 -95 60.5 -151t179.5 -56q79 0 139.5 15.5t88.5 33.5t54.5 33.5t45.5 15.5q10 0 19 -8.5t9 -27.5q0 -18 -6.5 -46.5t-24 -68.5t-43 -80.5t-67.5 -81.5 t-93.5 -72.5t-126 -51t-159.5 -19.5q-129 0 -227.5 30t-155.5 77t-93 113t-48 127.5t-12 131.5z" />
<glyph unicode="D" horiz-adv-x="1374" d="M-154 -12q0 9 7 20q16 21 108.5 201t205.5 415t202.5 477t89.5 351v25q0 26 34.5 33.5t94.5 7.5q193 0 268 -99l3 -3t8.5 -4.5t13.5 -0.5q55 21 159 21q91 0 171 -32t141.5 -91.5t97 -151.5t35.5 -205q0 -75 -14.5 -163.5t-46 -186t-76.5 -191t-111 -179t-144 -149.5 t-181.5 -102t-217.5 -38q-167 0 -217 47q-31 31 -31 84q0 44 22 104t54 104t56 44q11 0 38.5 -10.5t53.5 -10.5q83 0 162 68.5t132.5 170.5t86 218.5t32.5 214.5q0 180 -135 180q-79 0 -112 -33q-47 -46 -159 -283.5t-224 -489t-150 -306.5q-77 -113 -317 -113 q-72 0 -106 16t-34 40z" />
<glyph unicode="E" horiz-adv-x="1130" d="M-154 39q0 17 15 39q19 31 100.5 191.5t190.5 387.5t192.5 455.5t83.5 337.5q0 4 -1 12t-1 15q0 26 34 33.5t93 7.5q184 0 266 -101q1 -1 3.5 -3t9.5 -4.5t14 -0.5q135 12 244 12q172 0 238.5 -13.5t66.5 -57.5q0 -39 -10.5 -78t-25.5 -66t-30.5 -48t-26.5 -32l-10 -10 q-11 -11 -23.5 -13t-29 1t-60 7.5t-96.5 4.5h-49q-189 0 -239 -43q-31 -25 -67 -90t-36 -90q0 -29 53 -29h89q59 0 116 1t90.5 2t34.5 1q37 0 37 -37q0 -50 -47.5 -128t-79.5 -103q-10 -7 -29 -11.5t-33 -5.5l-14 -1q-14 2 -49 2h-63q-225 0 -254 -29t-64 -111t-35 -102 q0 -13 3 -22t12 -19.5t30 -16t54 -5.5q65 -3 143 -3q207 0 268 15q24 6 41 6q31 0 31 -27q0 -37 -51 -129.5t-101 -132.5q-42 -34 -136.5 -44.5t-272.5 -10.5h-217q-402 0 -402 86z" />
<glyph unicode="F" horiz-adv-x="1060" d="M-154 -23q0 7 9 25q26 46 106.5 206t200 409t207.5 487.5t88 347.5v25q0 26 34 33.5t93 7.5q184 0 266 -101l3 -3t8.5 -4.5t12.5 -0.5q146 10 246 10q180 0 241.5 -12.5t61.5 -56.5q0 -57 -25 -115.5t-50 -88.5l-25 -30q-14 -14 -31 -14q-2 0 -57 7t-123 7h-49 q-188 0 -238 -43q-31 -25 -66.5 -90t-35.5 -90q0 -29 53 -29h86q65 0 122.5 1t89 2t32.5 1q37 0 37 -37q0 -50 -47.5 -128t-79.5 -103q-11 -7 -30.5 -11.5t-33.5 -5.5l-14 -1q-25 2 -111 2q-227 0 -254 -29q-15 -15 -52.5 -94.5t-72 -161t-71 -170.5t-39.5 -96 q-50 -115 -315 -115q-177 0 -177 59z" />
<glyph unicode="G" horiz-adv-x="1304" d="M51 330q0 124 44 276.5t138 317.5t220 286q139 133 307.5 186.5t419.5 53.5q136 0 232.5 -20t96.5 -62q0 -45 -46.5 -153t-96.5 -158q-25 -25 -38 -35.5t-42 -27t-69.5 -23t-96.5 -6.5q-8 0 -20 1t-32 5t-33 13.5t-13 23.5q0 10 18.5 47t18.5 53q0 25 -22.5 42t-65.5 17 q-88 0 -179.5 -88.5t-156 -212t-105.5 -250.5t-41 -208q0 -144 134 -144q86 0 118 35q40 38 85.5 153t45.5 185q0 28 -5 52.5t-5 27.5q0 10 10 20q45 45 240 45q112 0 186 -15.5t74 -49.5q0 -11 -4 -17q-58 -106 -214.5 -433.5t-188.5 -434.5q-4 -14 -17 -21.5t-24 -8.5 l-11 -1q-102 0 -180 52.5t-112 111.5q-3 6 -11 6l-20 -8q-65 -26 -150 -26q-185 0 -287 106t-102 287z" />
<glyph unicode="H" horiz-adv-x="1376" d="M-123 18q20 25 151.5 282.5t131.5 295.5q0 13 -8.5 57.5t-8.5 98.5q0 31 10.5 65.5t22.5 48.5q11 11 33 11q6 0 20 -1.5t21 -1.5q25 0 47 11q16 10 59 110t82 233.5t39 211.5q0 23 -2 33q0 29 34.5 37t96.5 8q64 0 136.5 -22t124 -61t51.5 -81q0 -12 -7 -29 q-8 -18 -59.5 -130t-90 -199t-38.5 -93q0 -41 127 -41q93 0 137 5.5t57.5 14t30.5 31.5q23 39 106 214.5t103 203.5q74 113 318 113q67 0 99 -17.5t32 -42.5q0 -14 -9 -26q-17 -24 -107 -200t-202 -412t-200.5 -480.5t-88.5 -361.5q0 -45 -129 -45q-64 0 -136 22 t-123.5 61.5t-51.5 82.5q0 13 6 28q4 8 66 136t104.5 223t42.5 114q0 41 -147 41q-79 0 -125.5 -7.5t-55.5 -13.5t-20 -18q-15 -16 -116.5 -235t-121.5 -248q-77 -113 -317 -113q-37 0 -64 5.5t-42 14.5q-15 8 -22 20q-6 10 -6 21q0 12 9 25z" />
<glyph unicode="I" horiz-adv-x="614" d="M-133 -6q0 13 8 24q10 15 94.5 179t193 385.5t197.5 444t95 316.5q5 43 65 71t176 28q256 0 256 -84q0 -17 -8 -33q-52 -110 -317.5 -667t-294.5 -613q-56 -115 -328 -115q-68 0 -102.5 19t-34.5 45z" />
<glyph unicode="J" horiz-adv-x="907" d="M-141 41q0 44 24 110.5t64.5 120.5t79.5 54q11 0 39 -10.5t53 -10.5q30 0 54.5 3t44.5 7t38.5 14t31.5 18t28.5 26.5t25 30.5t25.5 39t26 44t29.5 53.5t32.5 59.5q87 155 184.5 402t103.5 341q5 43 65.5 71t176.5 28q256 0 256 -84q0 -17 -8 -33q-32 -68 -258 -542.5 t-238 -497.5q-42 -74 -94 -131t-128 -107t-184 -77t-243 -27q-171 0 -205 37q-24 21 -24 61z" />
<glyph unicode="K" horiz-adv-x="1196" d="M-154 -8q0 14 9 26q7 9 67.5 121t149.5 292.5t174.5 371.5t146 378t60.5 292q0 15 11 25t33.5 14t41 5t47.5 1q64 0 136 -22t123.5 -61t51.5 -81q0 -14 -6 -29q-148 -318 -148 -342q0 -16 11 -16q12 0 28 16q79 73 205 173t276.5 195t215.5 95q22 0 35.5 -40t13.5 -95 q0 -113 -43 -156q-18 -18 -81.5 -63t-126.5 -89.5t-127.5 -106.5t-90.5 -114q-19 -37 -19 -153q0 -91 8 -197t19.5 -193.5t23 -161t19.5 -119.5t8 -50q0 -17 -12.5 -27.5t-37 -15t-43.5 -5.5t-48 -1q-98 0 -184 42.5t-117 116.5q-10 29 -10 119q0 34 2 110t2 111 q0 146 -29 146q-26 0 -55.5 -20.5t-58.5 -58t-55 -77.5t-52.5 -91.5t-44 -86.5t-36 -76.5t-22.5 -48.5q-52 -113 -340 -113q-67 0 -99 17t-32 43z" />
<glyph unicode="L" horiz-adv-x="1103" d="M-133 35q0 12 6 24q2 4 64.5 127t136 275.5t152.5 326t133.5 326.5t58.5 229q7 43 67.5 71t176.5 28q256 0 256 -84q0 -15 -9 -33q-1 -3 -81 -165.5t-161.5 -330t-152 -323t-70.5 -176.5q0 -49 105 -49q74 0 133.5 24.5t94.5 59.5t61 69.5t46.5 59t37.5 24.5 q11 0 27 -4.5t38 -15.5t36.5 -36.5t14.5 -60.5q0 -59 -40.5 -159.5t-110.5 -186.5t-137 -86q-4 0 -91.5 5.5t-177.5 5.5q-85 0 -246.5 -4.5t-230.5 -4.5q-137 0 -137 64z" />
<glyph unicode="M" horiz-adv-x="1722" d="M-154 4q0 13 9 25q66 97 191.5 339t252 542t154.5 466q13 78 278 78q49 0 95.5 -5t98.5 -18t83.5 -42t31.5 -70q-41 -338 -41 -459q1 -31 17 -31q10 0 28 21q291 370 400 479q96 98 344 98q81 0 140 -8t91 -21t47 -28.5t15 -32.5q0 -12 -6 -24q-35 -66 -79 -152 t-144 -293t-174.5 -379.5t-134.5 -353.5t-60 -272q0 -25 -6 -40t-21 -21t-26.5 -7.5t-36.5 -1.5q-73 0 -154 33t-138 90.5t-57 118.5q0 31 73 181.5t146.5 304t73.5 192.5q0 14 -10 14q-33 0 -165.5 -167.5t-248.5 -335.5l-116 -167q-45 -63 -199 -63q-100 0 -100 51 q12 46 44.5 277.5t32.5 326.5q0 49 -10 49q-20 0 -95 -156t-134.5 -299t-81.5 -200q-40 -100 -246 -100q-72 0 -117 16.5t-45 44.5z" />
<glyph unicode="N" horiz-adv-x="1318" d="M-152 4q0 13 9 25q47 69 135.5 234.5t185 365.5t177 410t100.5 337q6 40 83.5 59t196.5 19q37 0 56 -0.5t52 -3.5t51 -10.5t37.5 -20t28.5 -33.5t9 -49q-11 -174 -11 -344q0 -125 9 -213q3 -45 16 -45q15 0 35 39q50 89 139.5 302t104.5 265q27 101 256 101 q149 0 149 -51q0 -7 -8 -23q-45 -80 -122 -231t-177.5 -360.5t-180.5 -420t-100 -336.5q-11 -77 -280 -77h-48.5t-45 2.5t-45 6.5t-37 12.5t-32 20.5t-18.5 31t-8 43q4 147 4 342q0 152 -2 234q0 33 -14 33q-4 0 -10 -6t-9 -12l-4 -5q-60 -96 -264 -602q-18 -49 -87.5 -74.5 t-168.5 -25.5q-72 0 -117 16.5t-45 44.5z" />
<glyph unicode="O" horiz-adv-x="1390" d="M51 377q0 106 22 209t51.5 175.5t66.5 136t61 94.5t41 48q48 50 110 50h17l8 14q16 30 29 50.5t43.5 61t61.5 69t82 63.5t107 57t133.5 37.5t164.5 15.5q234 0 359.5 -123t125.5 -354q0 -70 -15 -155t-50 -186.5t-86.5 -199.5t-130.5 -190.5t-175.5 -162t-229 -111.5 t-282.5 -42q-124 0 -223 35.5t-162 96.5t-96 140.5t-33 170.5zM479 406q0 -67 37.5 -113.5t114.5 -46.5q91 0 182 77t155 190t104 241t40 231q0 95 -25 131.5t-90 36.5q-56 0 -109.5 -40.5t-90.5 -98.5t-66 -115.5t-43 -98.5l-14 -40q-8 -19 -33 -19q-12 0 -26.5 3.5 t-22.5 7.5l-8 4q-4 -6 -11 -17t-25.5 -47t-32 -74.5t-25 -96.5t-11.5 -115z" />
<glyph unicode="P" horiz-adv-x="1300" d="M-148 -26q-2 7 -2 14q0 10 5 20q18 26 109 202.5t206.5 413.5t206 478t90.5 350v25q0 26 34.5 33.5t94.5 7.5q193 0 266 -99q1 -1 3.5 -3t9.5 -4.5t14 -0.5q69 35 198 35q119 0 218 -45.5t160 -133t61 -200.5q0 -192 -82.5 -350t-238 -252t-353.5 -94q-92 0 -149.5 32 t-57.5 95q0 67 40.5 153t88.5 86q9 0 29 -7t63 -7q100 0 168 88.5t68 198.5q0 83 -40 115t-106 32q-78 0 -114 -33q-47 -46 -157 -283.5t-220 -489t-148 -306.5q-77 -113 -323 -113q-60 0 -98 12.5t-44 29.5z" />
<glyph unicode="Q" horiz-adv-x="1396" d="M51 373q0 100 22 202t52 175t67 139.5t61 99.5t40 51q24 26 56 37.5t53 12.5h20q60 112 126 180q188 192 503 192q233 0 359 -124.5t126 -356.5q0 -72 -12 -152.5t-45 -182t-82.5 -196.5t-133 -193.5t-188.5 -174.5q-4 -4 -4 -19q0 -39 23 -101.5t65 -104.5q8 -8 8 -17 q0 -27 -57 -51.5t-137 -24.5q-75 0 -132.5 18t-85.5 43t-45.5 50.5t-21.5 43.5l-4 18q-92 -9 -117 -9q-126 0 -226.5 37.5t-162.5 100.5t-94.5 141.5t-32.5 165.5zM479 406q0 -32 7 -59t23 -50.5t46 -37t72 -13.5q33 2 37 18q9 55 40.5 96.5t70 62t75 33t61.5 14.5l25 3 q67 83 121.5 240t54.5 272q0 95 -24.5 131.5t-88.5 36.5q-56 0 -110 -40.5t-91 -98.5t-65.5 -115.5t-42.5 -98.5l-14 -40q-8 -19 -33 -19q-12 0 -26.5 3.5t-22.5 7.5l-8 4q-4 -6 -11.5 -17t-26 -47t-32.5 -74.5t-25.5 -96.5t-11.5 -115z" />
<glyph unicode="R" horiz-adv-x="1355" d="M-154 -12q0 6 9 20q18 26 109 202.5t206.5 413.5t206 478t90.5 350v25q0 26 34 33.5t93 7.5q195 0 268 -99q1 -1 3.5 -3t9 -4.5t12.5 -0.5q88 31 205 31q107 0 193.5 -19.5t154 -59.5t104.5 -107.5t37 -157.5q0 -67 -15.5 -132t-51 -128.5t-88.5 -116t-132.5 -93.5 t-177.5 -61q-24 -8 -24 -202q0 -137 11.5 -279t29.5 -195q2 -6 2 -14q0 -28 -37 -41.5t-86 -13.5q-98 0 -187 52t-125 136q-14 35 -14 137q0 161 29 389t49 248q9 9 18 9q4 0 25 -5.5t41 -5.5q138 0 221.5 72t83.5 170q0 43 -18 72.5t-48.5 43.5t-59.5 19.5t-62 5.5 q-48 0 -74.5 -10.5t-48.5 -30.5q-47 -46 -157 -283.5t-220 -489t-148 -306.5q-77 -113 -325 -113q-71 0 -108.5 16t-37.5 40z" />
<glyph unicode="S" horiz-adv-x="1261" d="M-51 219q0 62 33 124.5t79.5 105t96.5 69.5t86 27q22 -3 22 -23q0 -9 0.5 -19t6.5 -35.5t16 -47.5t31.5 -49t51 -45.5t78 -31.5t107.5 -13q97 0 161 38.5t64 108.5q0 32 -22 57.5t-58.5 41t-83 32.5t-94.5 32.5t-94.5 41t-83 56.5t-58.5 81t-22 113q0 68 27.5 143 t86.5 150t141.5 134.5t203.5 96.5t262 37q23 0 59.5 -2t94 -9.5t88.5 -19.5q4 -2 10 -2l12 4q3 3 9.5 7.5t28.5 15.5t47.5 20t67.5 16t87 7q102 0 102 -37q0 -42 -61 -174.5t-121 -192.5q-51 -51 -109.5 -68.5t-132.5 -17.5q-37 0 -66.5 8t-29.5 25q0 2 3 8.5t6 20t3 30.5 q0 88 -133 88q-91 0 -152 -43.5t-61 -109.5q0 -32 29.5 -57t76 -43.5t103 -38t113.5 -46t103.5 -61t76 -90t29.5 -125.5q0 -40 -8.5 -87.5t-32.5 -109.5t-61 -120t-100.5 -115t-144 -99t-198 -68t-256.5 -26q-68 0 -132 6.5t-137 25.5t-126.5 49t-89 83.5t-35.5 122.5z" />
<glyph unicode="T" horiz-adv-x="921" d="M-133 0q0 9 6 18q10 13 140 260.5t263.5 519t133.5 312.5q0 23 -91 23q-108 0 -169 -21q-8 -4 -23 -4q-23 0 -23 31q0 14 9.5 45t44.5 89t88 111q33 33 79 45.5t126 12.5q103 0 250 -11.5t198 -11.5q98 0 172 2.5t110.5 6.5t59 7.5t31.5 6t12 2.5q25 0 25 -27 q0 -64 -44.5 -143t-82.5 -115q-16 -16 -38.5 -24.5t-38 -9.5t-44.5 -1q-31 0 -71 4.5t-52 4.5q-34 0 -53 -19q-60 -60 -250 -472.5t-264 -596.5q-50 -117 -346 -117q-74 0 -116 22t-42 50z" />
<glyph unicode="U" horiz-adv-x="1357" d="M10 319q0 51 39 157.5t98 234.5t119.5 261t112 266.5t67.5 221.5q3 20 12 33.5t18.5 20t28 10t30.5 4t36 0.5q67 0 139 -20t125.5 -60.5t53.5 -89.5q0 -16 -6 -31q-15 -45 -80.5 -183t-131 -274.5t-119.5 -275t-54 -195.5t30.5 -87.5t77.5 -30.5q48 0 89 13.5t65 33.5 t41 39.5t23 32.5l7 14q41 74 221 484t197 435q78 113 318 113q74 0 113.5 -21t39.5 -49q0 -9 -6 -18q-32 -48 -114 -210.5t-156.5 -319.5t-160 -339.5t-97.5 -207.5q-16 -34 -29.5 -58.5t-41 -63t-57.5 -65.5t-78 -58t-104 -50t-135 -32t-170 -13q-141 0 -247.5 27 t-164.5 66.5t-93.5 94t-45.5 98.5t-10 92z" />
<glyph unicode="V" horiz-adv-x="1284" d="M-41 33q68 198 190 674t148 714q2 19 11 32.5t20 20.5t29 11t32.5 5t36.5 1q49 0 103.5 -12t105.5 -34t84 -59.5t33 -82.5q0 -49 -124 -448t-124 -445q0 -31 12 -31q15 0 39 24q74 76 328.5 471t290.5 465q28 54 128.5 80.5t198.5 26.5q73 0 114.5 -19.5t41.5 -44.5 q0 -9 -6 -18q0 -1 -153 -220t-280.5 -399t-285.5 -387.5t-236 -285.5q-26 -25 -56 -43.5t-87.5 -42t-153 -36.5t-219.5 -13q-63 0 -107.5 8t-66 17.5t-33 25.5t-13 24.5t-1.5 20.5z" />
<glyph unicode="W" horiz-adv-x="2066" d="M-39 31q0 11 4 22q42 126 163.5 667.5t121.5 700.5q0 70 129 70q49 0 103.5 -12t105.5 -34t84 -59.5t33 -82.5q0 -49 -108 -409t-108 -405q0 -28 13 -28q15 0 39 24q57 59 247.5 323t286.5 406q29 34 74 57t95 32.5t83 12.5t64 3q32 0 65 -5.5t62.5 -24.5t29.5 -48 q0 -12 -2 -18q-10 -27 -61.5 -162.5t-92.5 -247t-77.5 -223t-36.5 -139.5q0 -29 12 -29q31 0 53 22q123 113 344.5 447t278.5 448q29 57 127.5 82t200.5 25q147 0 147 -60q0 -4 -4 -16q-14 -33 -203 -302.5t-423.5 -581t-337.5 -414.5q-24 -24 -36 -35t-52 -34t-84 -34.5 t-122.5 -21.5t-177.5 -10q-112 0 -156 26.5t-44 63.5q0 10 4 26q84 294 84 328q0 20 -8 20q-4 0 -10.5 -4.5t-10.5 -8.5l-4 -5q-48 -61 -133.5 -167t-118.5 -148q-18 -23 -30.5 -35.5t-46 -33.5t-76 -32.5t-117 -20.5t-170.5 -9q-50 0 -88 5.5t-59.5 16t-35 22t-17 25.5 t-3.5 25z" />
<glyph unicode="X" horiz-adv-x="1386" d="M-174 43q0 36 185 214t369 337l185 160q31 18 31 57q0 63 -30 188t-53.5 200.5t-68.5 213.5q1 26 20.5 43.5t50 24.5t53.5 9.5t46 2.5q312 0 312 -125q0 -65 37 -283q0 -1 1 -3.5t3.5 -6.5t6.5 -6t11 0.5t16 11.5q47 47 114 120t113 121t72 64q53 34 140 54t155 20 q71 0 126 -19.5t55 -47.5q0 -20 -23 -37q-68 -56 -165.5 -138.5t-236 -204.5t-232 -220.5t-93.5 -130.5q0 -65 60.5 -309.5t89.5 -295.5q8 -11 8 -26q0 -53 -103 -89t-241 -36q-42 0 -70 11t-40 32.5t-15.5 33.5t-5.5 33q-19 197 -47 344q-1 21 -19 21q-21 0 -105 -95.5 t-158 -191.5l-73 -96q-49 -68 -201 -68q-119 0 -199.5 34.5t-80.5 78.5z" />
<glyph unicode="Y" horiz-adv-x="1153" d="M-8 -14q0 11 6 20q9 12 59 110.5t110.5 249t70.5 240.5q6 62 6 146q0 278 -62 700q0 61 170 61q70 0 135.5 -12t118.5 -46.5t53 -86.5q0 -25 -11 -178.5t-11 -224.5q0 -76 14 -76q21 0 43 22q88 84 232.5 250.5t171.5 208.5q56 90 303 90q78 0 140.5 -20t62.5 -49 q0 -12 -15 -27q-103 -88 -365.5 -347t-402.5 -415q-72 -71 -136 -174t-97 -179.5t-61.5 -152t-28.5 -76.5q-17 -34 -56 -56t-97 -31t-104 -12t-110 -3q-67 0 -103 20.5t-36 47.5z" />
<glyph unicode="Z" horiz-adv-x="1298" d="M-145 2q0 79 55 177.5t142.5 194t193.5 193.5t212.5 183.5t194 155.5t142.5 118t55 63q0 37 -182 37q-55 0 -112 -6t-86 -11.5t-38 -8.5q-36 -6 -41 -6q-31 0 -31 28q0 30 48 108t96 126q44 44 146 57.5t315 13.5q223 -8 389 -8q57 0 116 3t66 3q41 0 41 -32 q0 -71 -40.5 -164t-137.5 -191q-32 -33 -174 -149.5t-282.5 -232t-256 -225.5t-115.5 -144q0 -10 26 -18.5t65 -8.5q124 0 218 45.5t193 175.5q16 27 43 27q28 0 67.5 -34.5t39.5 -94.5q0 -73 -50.5 -180.5t-125.5 -190t-134 -82.5q-23 0 -66.5 11t-127.5 21.5t-205 10.5 q-157 0 -310.5 -13t-197.5 -13q-88 0 -119.5 15.5t-31.5 45.5z" />
<glyph unicode="[" horiz-adv-x="659" d="M57 49q0 55 153 395.5t319.5 671t203.5 367.5q42 43 138.5 73.5t172.5 30.5t76 -33q0 -13 -22 -36.5t-58.5 -58.5t-58.5 -64q-51 -65 -210 -385.5t-300 -644t-141 -385.5q0 -18 11 -71t11 -77q0 -49 -39 -49q-37 0 -98 42.5t-109.5 107t-48.5 116.5z" />
<glyph unicode="\" horiz-adv-x="1177" d="M383 1376v13q0 75 119 75q48 0 77.5 -7.5t38.5 -15t21 -22.5l6 -8q31 -89 185 -733t161 -666q0 -2 1 -5.5t1 -6.5q0 -12 -4.5 -23t-17 -23.5t-40.5 -20t-69 -7.5q-75 0 -109.5 17.5t-47.5 72.5q-2 6 -151.5 656.5t-170.5 703.5z" />
<glyph unicode="]" horiz-adv-x="716" d="M-213 -186q0 13 22 36t58.5 58t58.5 65q51 65 210.5 385.5t300.5 644.5t141 386q0 17 -11.5 70t-11.5 77q0 49 39 49q37 0 98 -42.5t109.5 -107t48.5 -116.5q0 -55 -153 -395.5t-319.5 -671.5t-203.5 -367q-44 -42 -140.5 -73t-170.5 -31q-76 0 -76 33z" />
<glyph unicode="^" horiz-adv-x="700" d="M82 385q0 4 3 8t10 11.5t11 13.5q24 30 86 100t74 82q19 24 57.5 34.5t135.5 10.5q47 0 69 -0.5t49.5 -3.5t38.5 -10.5t11 -20.5v-8q-12 -49 -21 -96t-12 -71t-7.5 -44t-10.5 -26.5t-17 -6.5q-36 0 -74.5 40t-60.5 91q0 9 -6 9l-12 -6q-159 -125 -291 -125q-33 0 -33 18z " />
<glyph unicode="_" horiz-adv-x="1368" d="M-150 -193q0 23 14.5 62t50.5 76t81 37q1003 2 1089 6q48 0 48 -35q0 -26 -14.5 -65.5t-45 -74t-65.5 -34.5q-4 0 -287 2t-336 2q-101 0 -217 -1.5t-194 -3t-87 -1.5q-17 0 -26 6t-10 11t-1 13z" />
<glyph unicode="`" horiz-adv-x="1036" d="M588 1309q0 49 110 49q28 0 44 -0.5t38 -4t32.5 -12t10.5 -22.5v-4q-5 -44 -7.5 -89t-2.5 -70t-1.5 -46.5t-7 -30t-16.5 -8.5q-39 0 -88 50t-80.5 106.5t-31.5 81.5z" />
<glyph unicode="a" horiz-adv-x="1038" d="M-51 180q0 101 41 182t107 132t155 85t178.5 48t183.5 14q44 0 64 -2q29 0 29 39q0 40 -40 56t-114 16q-81 0 -143 -10t-95.5 -20.5t-44.5 -10.5q-22 0 -22 34q0 36 19 75.5t44 64.5q81 84 318 84q235 0 343.5 -73t108.5 -196q0 -47 -36.5 -139.5t-81 -183.5t-81 -203.5 t-36.5 -194.5q0 -58 11 -102.5t21 -60.5l11 -15q6 -9 6 -18q0 -37 -98 -37q-136 0 -233 65.5t-97 172.5q0 58 20.5 122t65 156.5t49.5 104.5q4 12 4 16q0 16 -49 16q-117 0 -170 -42t-53 -101q0 -66 63 -66h15q9 0 13.5 -1t7.5 -7t3 -18q0 -26 -14.5 -57.5t-43.5 -63.5 t-82.5 -53t-121.5 -21q-109 0 -167 63t-58 150z" />
<glyph unicode="b" horiz-adv-x="1114" d="M-104 72q0 34 53 147.5t129 262.5t152 306.5t129 308.5t53 240q0 61 -13 115q-2 4 -2 12q0 19 20.5 25t63.5 6q60 0 128 -23t121.5 -72.5t53.5 -111.5q0 -65 -68 -223t-150 -313.5t-150 -302.5t-68 -191q0 -2 1 -5t6.5 -10.5t15.5 -13.5t30.5 -11t47.5 -5q65 0 125 35.5 t99 87.5t62 107.5t23 97.5q0 88 -74 88h-18q-20 0 -28.5 4.5t-8.5 23.5q0 25 10 59.5t34.5 76t59 76t90 58t121.5 23.5q101 0 151 -66.5t50 -162.5q0 -61 -13 -130.5t-41.5 -145.5t-69 -148t-100.5 -137t-131 -114t-165 -78t-199 -29q-61 0 -103.5 9t-63.5 18t-30 9 q-5 0 -10 -5.5t-10 -15.5t-9 -18.5t-8.5 -19.5t-5.5 -14q-5 -12 -16.5 -20t-19.5 -10l-9 -1q-100 0 -172.5 69.5t-72.5 131.5z" />
<glyph unicode="c" horiz-adv-x="974" d="M10 281q0 49 11 106t37 123t65 128.5t99.5 121t135.5 102t179 70t223 26.5q53 0 103 -5.5t98 -16.5t77 -33t29 -51q0 -50 -32 -138t-70 -126q-23 -23 -47 -38.5t-79.5 -29.5t-131.5 -14q-52 0 -52 20q0 9 7 23q57 114 57 149q0 29 -64 29q-73 0 -136 -59.5t-96.5 -141 t-33.5 -157.5q0 -89 60 -135t161 -46q70 0 116.5 10t67 19.5t27.5 9.5q25 0 25 -32q0 -33 -24 -84.5t-52 -79.5q-59 -59 -135 -84t-201 -25q-114 0 -199 30t-132.5 82.5t-70 114t-22.5 132.5z" />
<glyph unicode="d" horiz-adv-x="1103" d="M-20 209q0 70 22 150t62.5 162.5t104.5 157.5t142.5 134t182.5 94t217 35q45 0 81 -6t53.5 -12.5t30.5 -12.5t17 -6q5 0 12 13q125 270 125 419q0 58 -7 91.5t-7 35.5q0 19 20.5 25t63.5 6q60 0 127.5 -23t120.5 -72.5t53 -111.5q0 -41 -23.5 -108t-46 -115.5 t-76.5 -157.5q-3 -5 -44.5 -88.5t-64.5 -131.5t-68 -143t-72.5 -163.5t-58 -149.5t-45.5 -145t-15 -109q0 -58 10.5 -102.5t21.5 -60.5l11 -15q6 -9 6 -18q0 -37 -98 -37q-136 0 -233 65.5t-97 172.5q0 59 36.5 158t81 187t81 177t36.5 131q0 43 -57 43q-87 0 -160.5 -49.5 t-111 -118.5t-37.5 -135q0 -22 7 -38t16 -24t24 -12.5t25.5 -5t25.5 -0.5h17q13 0 18.5 -4.5t5.5 -20.5q0 -27 -13 -62.5t-41 -75.5t-66.5 -74t-97 -56t-124.5 -22q-54 0 -94.5 23.5t-61 60.5t-29.5 73.5t-9 71.5z" />
<glyph unicode="e" horiz-adv-x="993" d="M10 281q0 49 10.5 106t35.5 124t63 130t97.5 122t133.5 103t176.5 70.5t221.5 26.5q34 0 71 -6t82 -23t79 -43.5t57.5 -72.5t23.5 -105q0 -134 -90 -233.5t-235.5 -149t-323.5 -49.5q-4 0 -8 -3.5t-6 -7.5l-1 -4q0 -98 203 -98q58 0 104 7.5t67 17t38 17t25 7.5 q26 0 26 -24q0 -40 -25.5 -85.5t-58.5 -78.5q-59 -59 -137.5 -84t-204.5 -25q-114 0 -199 30.5t-132.5 83t-70 114.5t-22.5 133zM436 535q0 -13 8 -17t27 -4q108 0 181 44.5t73 115.5q0 53 -74 53q-88 0 -151.5 -68.5t-63.5 -123.5z" />
<glyph unicode="f" horiz-adv-x="667" d="M-481 -426q14 23 43 43q163 107 293 340q51 92 132 257.5t139.5 291.5t61.5 139v4q0 23 -82 23q-24 0 -24 28q0 31 28.5 84t61.5 86q26 26 58.5 32.5t54.5 7t28 12.5q6 13 45.5 100t53.5 115q78 166 195 237.5t294 71.5q50 0 106 -17.5t56 -50.5q0 -9 -5.5 -14.5t-23 -13 t-24.5 -11.5q-8 -5 -32.5 -19t-38.5 -22.5t-40 -28t-45 -38t-45.5 -49.5t-48 -65t-46 -82t-46.5 -103q-2 -4 -2 -10q0 -8 14 -11q20 -4 57 -4q6 0 25.5 1t38.5 1q26 0 26 -18q0 -13 -5 -34.5t-30.5 -67.5t-68.5 -89q-28 -28 -111 -28q-47 0 -61 -21q-9 -14 -86.5 -194 t-167 -386t-119.5 -266q-82 -164 -199 -232.5t-307 -68.5q-15 0 -36 2.5t-49.5 9t-48 22t-19.5 36.5z" />
<glyph unicode="g" horiz-adv-x="1126" d="M-307 -377q0 74 25.5 127t58.5 53q13 0 26 -12t31.5 -29.5t45.5 -35t78.5 -29.5t119.5 -12q89 0 149 27.5t125 90.5q71 71 151 211t136.5 272.5t94.5 235.5t38 119q0 33 -57 33q-131 0 -230.5 -98t-99.5 -201q0 -22 7 -38t16 -24t24.5 -12.5t26 -5t26.5 -0.5h10.5h9.5 t7 -0.5t6.5 -2.5t4 -4.5t3 -7t0.5 -10.5q0 -27 -12.5 -63t-40 -76t-66.5 -73.5t-98.5 -55.5t-128.5 -22q-54 0 -94 23.5t-60 60.5t-29 73t-9 72q0 70 23 150t65 161.5t108 156.5t146 133t184.5 93t218.5 35q58 0 99.5 -8.5t62 -17.5t25.5 -9q8 0 16 10q3 4 8.5 10.5t27 23 t47 29.5t69.5 23.5t94 10.5q48 0 93.5 -14t45.5 -42q0 -11 -6 -20q-67 -109 -209 -399t-250 -535q-40 -91 -64 -142.5t-69.5 -134t-84.5 -131t-100 -108t-124.5 -91.5t-150 -54.5t-185.5 -22.5q-85 0 -154.5 23.5t-111 58t-69.5 78t-39 80t-11 67.5z" />
<glyph unicode="h" horiz-adv-x="1153" d="M-123 33q0 11 6 20q55 103 200 403t212 449q56 124 89.5 241t33.5 191q0 44 -3 71t-6 38.5t-3 17.5q0 19 20 25t63 6q59 0 126 -23t120 -72.5t53 -111.5q0 -64 -48 -186.5t-119 -255.5q-1 -3 -3 -6.5t-2 -5.5q0 -3 3 -6t6 -3q4 0 9 2.5t8 5.5l3 3q154 110 309 110 q250 0 250 -201q0 -59 -45.5 -168.5t-100 -211t-100 -211.5t-45.5 -170q0 -58 10.5 -104t20.5 -62l10 -17q7 -10 7 -18q0 -16 -23.5 -25t-41 -10.5t-30.5 -1.5q-136 0 -232.5 65.5t-96.5 172.5q0 60 37 153.5t81.5 173.5t81.5 156.5t37 105.5q0 60 -63 60q-62 0 -129 -57 t-119 -138.5t-95 -163.5t-66 -139l-23 -57q-48 -98 -238 -98q-164 0 -164 53z" />
<glyph unicode="i" horiz-adv-x="559" d="M-92 -12q0 -107 98 -176.5t234 -69.5q96 0 96 37q0 9 -6 18q-5 5 -12 16.5t-19 57.5t-12 104q0 40 13 94.5t40 123t52 126.5t66 139t63.5 124.5t62.5 118t47 87.5q5 11 16.5 31t18 33.5t6.5 21.5q0 18 -16.5 31t-42 18t-43 7t-31.5 2q-156 0 -226 -32.5t-90 -98.5 q-16 -55 -97.5 -228.5t-149.5 -340t-68 -244.5zM399 1204q0 70 78 122t174 52q83 0 135 -37t52 -90q0 -55 -45.5 -97t-101 -59.5t-105.5 -17.5q-83 0 -135 36.5t-52 90.5z" />
<glyph unicode="j" horiz-adv-x="516" d="M-883 -383q0 72 20.5 108.5t49.5 36.5q17 0 37 -12t40 -26.5t70 -26.5t119 -12q157 0 275 118q79 81 192.5 310.5t218.5 482.5q17 40 29 76.5t17.5 62.5t8.5 45t4 31.5t1 13.5q0 111 340 111q14 0 30.5 -1.5t41 -6.5t40 -18t15.5 -31q0 -11 -7 -25q-58 -107 -195.5 -389 t-213.5 -463q-48 -114 -81.5 -185.5t-84.5 -160.5t-103.5 -142.5t-122.5 -103t-158 -72t-194 -22.5q-85 0 -154 21t-111.5 53.5t-71.5 74t-40.5 79.5t-11.5 73zM381 1204q0 55 45.5 97t101.5 59.5t107 17.5q75 0 130.5 -34t55.5 -93q0 -52 -43 -93.5t-100 -61t-111 -19.5 q-70 0 -128 34t-58 93z" />
<glyph unicode="k" horiz-adv-x="1038" d="M-123 47q0 11 6 23q56 110 204.5 416.5t209.5 441.5q56 124 89.5 241t33.5 191q0 53 -7 89l-7 36q0 20 20 26.5t63 6.5q60 0 127.5 -23.5t121 -73.5t53.5 -112q0 -110 -199 -504q-27 -62 -27 -72q0 -14 13 -14q24 0 97 49t149 108.5t156.5 108.5t117.5 49q31 0 50 -29 t24.5 -63.5t5.5 -75.5q0 -77 -35 -86q-44 -13 -133 -73t-97 -95q-26 -147 -26 -305q0 -171 24 -284q10 -48 30 -93t35 -66l15 -20q8 -11 8 -20q0 -22 -34.5 -30.5t-57.5 -8.5q-101 0 -183 24.5t-135.5 79.5t-53.5 134q0 42 15 170t15 169q0 46 -12 46q-21 0 -74 -41t-92 -80 q-12 -11 -23.5 -26t-19 -27.5t-18.5 -33.5t-16.5 -32.5t-18 -39l-17.5 -38.5q-48 -96 -237 -96q-160 0 -160 53z" />
<glyph unicode="l" horiz-adv-x="495" d="M-102 8q0 64 23 148.5t69 191.5t87.5 194.5t109 221.5t102.5 209q76 159 102.5 235.5t26.5 149.5q0 36 -1.5 61t-3.5 34.5t-3.5 17t-1.5 12.5q0 19 20 24.5t64 5.5q43 0 93.5 -14t97.5 -38.5t78.5 -65.5t31.5 -88q0 -60 -36.5 -149t-109.5 -232q-366 -716 -366 -928 q0 -58 10.5 -102.5t21.5 -59.5l11 -16q6 -9 6 -19q0 -12 -13.5 -20.5t-33 -11.5t-31.5 -4t-19 -1q-135 0 -235 68.5t-100 175.5z" />
<glyph unicode="m" horiz-adv-x="1701" d="M-123 31q0 10 6 22q8 17 40.5 81.5t81 162.5t89.5 184q178 372 178 498v12q0 24 13 34.5t61 10.5q169 0 236 -67q34 -34 34 -84q0 -13 -4 -32t-4 -22q0 -4 2 -5.5t5 -1t5.5 1.5t4.5 2l2 1q5 5 13.5 13t37.5 28.5t60.5 36t79.5 28.5t97 13q33 0 55 -2.5t54.5 -13.5t55 -39 t32.5 -72q2 -14 12 -14q7 0 17 10q6 6 16.5 15t46.5 33t75.5 42.5t100.5 33.5t123 15q23 0 49.5 -3.5t64 -17t66.5 -35t49.5 -62t20.5 -93.5q0 -49 -29 -129.5t-70.5 -166.5t-83.5 -171.5t-71 -166t-29 -129.5q0 -57 10 -102.5t20 -61.5l11 -17q7 -14 7 -18q0 -37 -95 -37 q-136 0 -232.5 65.5t-96.5 172.5q0 60 36.5 153t81 172.5t81 155.5t36.5 106q0 52 -59 52q-39 0 -78.5 -28.5t-71 -68.5t-66.5 -103t-57.5 -111.5t-53 -116t-44.5 -95.5q-28 -58 -93 -78t-163 -20q-143 0 -143 55q0 9 8 29q5 9 37.5 71t60 115.5t59.5 119.5t51 116t19 72 q0 20 -15 32.5t-44 12.5q-50 0 -110.5 -56.5t-110 -137.5t-92.5 -161.5t-67 -137.5l-24 -56q-47 -96 -237 -96q-158 0 -158 51z" />
<glyph unicode="n" d="M-123 33q0 10 6 22q94 183 213 426q178 376 178 498v14q0 25 13 35t61 10q41 0 81.5 -5.5t86 -20t74 -47t28.5 -78.5q0 -16 -5 -36t-5 -22q0 -8 6 -8t19 13q8 8 32.5 25.5t68.5 44t105.5 45t121.5 18.5q35 0 63 -3t63.5 -15.5t58.5 -33.5t39.5 -61t16.5 -94 q0 -59 -46 -171t-100.5 -216.5t-100.5 -216.5t-46 -172q0 -58 10.5 -104t20.5 -62l10 -17q6 -9 6 -18q0 -12 -12.5 -20.5t-31.5 -11.5t-30.5 -4t-19.5 -1q-135 0 -232.5 66.5t-97.5 171.5q0 60 37.5 154t82.5 174.5t82.5 158t37.5 107.5q0 57 -63 57q-53 0 -107 -36.5 t-95.5 -89.5t-83.5 -124t-67.5 -127t-50.5 -112.5t-31 -67.5q-30 -56 -87.5 -77t-149.5 -21q-160 0 -160 53z" />
<glyph unicode="o" d="M10 303q0 52 12 110t40 124t70.5 127t109.5 118t149.5 99t197 67t247.5 25q110 0 217.5 -27.5t107.5 -66.5q0 -23 -27 -56t-57 -55q-18 -15 -18 -20q0 -6 12.5 -21.5t27.5 -35.5t27.5 -64t12.5 -99q0 -85 -28 -169t-86 -160.5t-139 -135.5t-196.5 -94t-249.5 -35 q-27 0 -57.5 3t-74 13t-82.5 26t-79.5 44.5t-70 65.5t-48 93.5t-18.5 123.5zM375 303q0 -129 117 -129q67 0 125 42t94 105t56.5 130.5t20.5 123.5q0 70 -27 102t-71 32q-67 0 -128 -42t-100.5 -105t-63 -132t-23.5 -127z" />
<glyph unicode="p" horiz-adv-x="1101" d="M-471 -580q0 15 4 21q3 6 39 53t93.5 140.5t117.5 218.5q249 518 371 786q60 140 85 226t25 171q0 46 -9 84t-9 39q0 20 21 27.5t63 7.5q105 0 192.5 -58.5t87.5 -152.5q0 -17 -3 -42.5t-3 -31.5q0 -14 8 -14q10 0 23 10q8 6 24 14.5t71.5 22.5t119.5 14q48 0 92 -18 t81 -54t59 -98.5t22 -142.5q0 -126 -59.5 -289t-170.5 -274q-74 -74 -138.5 -101.5t-147.5 -27.5q-67 0 -130 55t-63 144q0 44 21 100q12 29 27 42t26 13q7 0 27 -9t53 -9q62 0 113 54t76.5 128t25.5 145q0 32 -18 58t-58 26q-33 0 -66 -16.5t-59.5 -39.5t-56.5 -64t-50 -74 t-46 -86t-39 -83t-36 -83.5t-30 -69.5q-262 -595 -270 -614q-29 -68 -87 -115.5t-123 -67.5t-134 -20q-162 0 -162 55z" />
<glyph unicode="q" d="M-10 207q0 85 30 182t92.5 194t148 175.5t208 128t260.5 49.5q59 0 100.5 -8.5t61 -17.5t24.5 -9q9 0 17 10q3 4 8.5 10.5t27 24t47 30.5t69.5 23.5t94 10.5q46 0 92.5 -15.5t46.5 -42.5q0 -9 -6 -18q-85 -139 -301 -590q-4 -12 -4 -14q0 -21 57 -21h16q18 0 24 -0.5 t10.5 -6t4.5 -17.5q0 -21 -19.5 -60t-52.5 -82t-85.5 -82t-108.5 -55q-75 -145 -165.5 -378t-90.5 -335q0 -10 -1.5 -16.5t-7.5 -18t-22.5 -18t-42.5 -6.5q-102 0 -193 60t-91 137q0 53 81 231t179 366t179 368.5t81 236.5q0 43 -53 43q-89 0 -164.5 -49.5t-114.5 -118.5 t-39 -135q0 -28 7.5 -45.5t23 -24t27.5 -8.5t32 -2q24 0 32.5 -4t8.5 -23q0 -27 -12.5 -63t-40 -76t-65 -74t-93 -56t-117.5 -22q-55 0 -96 22t-62.5 58t-31.5 74t-10 78z" />
<glyph unicode="r" horiz-adv-x="870" d="M-123 4q0 11 6 23q70 137 221 452q181 378 181 498v16q0 22 13 31.5t58 9.5q46 0 86.5 -5.5t83 -19.5t67.5 -44t25 -74q0 -13 -5 -33.5t-5 -23.5q0 -17 25 4q10 10 43 31.5t97.5 46t121.5 24.5q54 0 80 -27t26 -75q0 -120 -62.5 -222t-121.5 -102q-13 0 -20.5 8.5 t-12.5 21t-13 25t-28 21t-51 8.5q-52 0 -104.5 -36t-92.5 -88.5t-79.5 -121.5t-64 -125t-47.5 -110.5t-30 -67.5q-30 -56 -87.5 -77t-149.5 -21q-160 0 -160 53z" />
<glyph unicode="s" horiz-adv-x="985" d="M-98 100q0 75 65 159.5t117 84.5q14 0 26 -12.5t25 -31t33 -36.5t61 -30.5t99 -12.5q73 0 113 22t40 60q0 34 -32.5 58t-78.5 41t-92.5 39t-79 66t-32.5 109q0 46 19 95t66.5 101t117 92t180.5 65.5t248 25.5q145 0 200.5 -45t55.5 -127q0 -67 -41 -67q-10 0 -49.5 3 t-57.5 3q-103 0 -169 -28.5t-66 -82.5q0 -23 18 -43t45.5 -34t59 -34.5t59 -43t45.5 -61t18 -87.5q0 -79 -40.5 -152.5t-116 -134t-198 -97t-273.5 -36.5q-197 0 -291 50.5t-94 121.5z" />
<glyph unicode="t" horiz-adv-x="655" d="M-61 -20q0 60 43 167.5t95 204t95 185.5t43 116q0 17 -76 17q-24 0 -24 28q0 32 28 85t62 87q25 25 61.5 31t62 6.5t31.5 12.5q70 178 70 258q0 53 -8 88.5t-8 36.5q0 19 20.5 25.5t63.5 6.5q44 0 90 -12t87.5 -34.5t68 -61.5t26.5 -86q0 -46 -34 -129t-34 -92t11 -13 q8 -2 41 -2q11 0 36 2t29 2q23 0 23 -20q0 -11 -8 -38t-32.5 -72.5t-58.5 -80.5q-24 -24 -69 -24q-9 0 -27 1t-26 1q-30 0 -41 -17q-24 -35 -84 -156.5t-120.5 -283t-60.5 -242.5q0 -58 10.5 -103t20.5 -61l10 -16q6 -9 6 -18q0 -17 -24 -26.5t-41 -11t-29 -1.5 q-135 0 -232 66.5t-97 173.5z" />
<glyph unicode="u" horiz-adv-x="1110" d="M-45 170q0 25 9 58.5t30.5 82.5t41 90t55.5 115t59 123q102 212 102 328q0 22 3 31.5t20.5 17.5t54.5 8q73 0 138 -17t99 -51q33 -35 33 -88q0 -41 -46 -134.5t-92 -187.5t-46 -136q0 -10 3.5 -21t17.5 -23t36 -12q37 0 72.5 15.5t63 39.5t54.5 60.5t46 69.5t39 76 t31 71.5t24.5 64.5t17.5 46q18 42 35 66t50.5 43t86.5 26.5t137 7.5q46 0 83.5 -12t37.5 -41q0 -16 -8 -29q-30 -55 -54 -100t-87.5 -173t-106 -226.5t-78.5 -211t-36 -176.5q0 -58 10.5 -102.5t21.5 -60.5l11 -15q6 -9 6 -18q0 -37 -99 -37q-135 0 -232 69.5t-97 176.5 q0 57 35 161q0 7 -9 7l-10 -2q-89 -92 -191.5 -138.5t-183.5 -46.5q-90 0 -139 57.5t-49 147.5z" />
<glyph unicode="v" horiz-adv-x="1060" d="M-12 14q0 21 8 37q26 71 81.5 380t55.5 380q0 14 -2 38.5t-2 37.5q0 30 24 43.5t91 13.5q241 0 241 -131q0 -77 -37 -235.5t-38 -186.5q0 -33 10 -33q7 0 11.5 1.5t6 2.5t5.5 6t8 9q10 13 85 126.5t164 234t162 190.5q114 108 326 108q32 0 61 -5.5t50.5 -19.5t21.5 -34 q0 -12 -27.5 -35.5t-66.5 -59t-78 -82t-66.5 -119t-27.5 -155.5q0 -18 1 -41.5t1 -31.5q0 -37 -64 -37q-32 0 -59.5 11t-40.5 24q-12 12 -23 12q-8 0 -14 -6q-78 -76 -285 -404q-75 -116 -344 -116q-131 0 -185 18.5t-54 58.5z" />
<glyph unicode="w" horiz-adv-x="1720" d="M-12 12q0 18 8 37q23 59 77 369t54 401q0 7 -2 29t-2 39q0 30 24 43.5t91 13.5q241 0 241 -131q0 -24 -44 -210t-46 -222q0 -25 8 -25q14 0 33 19q44 42 124 147t138 189l58 84q41 66 108 91t195 25q116 0 116 -47q0 -3 -50 -209t-50 -264q0 -33 10 -33q8 0 13 1.5 t6.5 2.5t5.5 6t8 9q10 13 85.5 127t164.5 234t162 190q114 108 325 108q52 0 91.5 -14t39.5 -43q0 -12 -27 -36t-66 -59.5t-78 -82.5t-66 -119.5t-27 -155.5q0 -11 1 -34.5t1 -38.5q0 -37 -65 -37q-31 0 -58.5 11t-40.5 24q-12 12 -22 12q-8 0 -14 -6q-78 -76 -285 -404 q-75 -116 -342 -116q-123 0 -172 17t-49 52q0 16 10 43q22 53 45 149t23 113q0 8 -5 8q-3 0 -7 -3t-6 -6l-3 -3q-191 -239 -238 -284q-86 -86 -266 -86q-128 0 -181.5 18.5t-53.5 56.5z" />
<glyph unicode="x" horiz-adv-x="1009" d="M-223 18q1 45 162.5 198.5t388.5 334.5q14 7 14 27q0 33 -40 167.5t-69 212.5q-9 25 -27.5 52.5t-32 46t-13.5 22.5q0 27 56.5 49.5t115.5 22.5q33 0 55 -1t53.5 -5t53 -11.5t46.5 -21.5t41.5 -34t31 -50.5t22.5 -69.5q17 -77 27 -133q0 -2 1.5 -5t7.5 -6.5t17 5.5 q111 79 203.5 130.5t128.5 51.5q67 0 67 -141q0 -11 -2.5 -24.5t-10 -32t-23.5 -36t-39 -28.5q-82 -42 -273 -188q-12 -12 -12 -27q0 -30 53 -223.5t78 -247.5q21 -45 46 -81t40 -49l14 -13q9 -9 9 -21q0 -32 -70 -60t-152 -28q-73 0 -120.5 12.5t-85.5 51.5 q-64 64 -129 385l-2 4t-7 4.5t-14 -6.5q-146 -139 -211 -227q-1 -3 -5 -8t-21 -18t-41 -22.5t-69.5 -17.5t-102.5 -8q-87 0 -123.5 19.5t-36.5 47.5z" />
<glyph unicode="y" horiz-adv-x="1110" d="M-334 -381q0 72 25.5 125t58.5 53q12 0 25 -12.5t31.5 -29.5t46 -34.5t79 -30t119.5 -12.5q88 0 149.5 28.5t125.5 92.5q63 63 143 199q21 34 37.5 66.5t23.5 50t7 22.5v6q0 9 -9 9l-10 -2q-106 -88 -188 -120t-166 -32q-90 0 -139.5 55t-49.5 144q0 18 3.5 38.5t13 49 t18.5 51.5t27.5 64.5t30.5 68t38 82t41 88.5q103 223 103 328q0 22 3 31.5t20.5 17.5t54.5 8q167 0 235 -68q35 -35 35 -88q0 -41 -45.5 -134.5t-91 -187.5t-45.5 -136q0 -10 3.5 -21.5t17.5 -24t36 -12.5q33 0 65 13t57.5 31t52 50.5t44.5 58t39 67.5t32 65.5t26.5 65 t19.5 53t14 41.5q19 55 46.5 83t89 43t171.5 15q123 0 123 -49q0 -11 -10 -31q-53 -100 -197 -394t-215 -468q-41 -92 -65 -143t-70 -134.5t-85 -132t-100 -108t-125 -91.5t-151 -54.5t-186 -22.5q-85 0 -153.5 23.5t-110 58t-69.5 78t-39 81t-11 68.5z" />
<glyph unicode="z" horiz-adv-x="1013" d="M-154 66q0 47 48.5 111.5t120.5 126t157 126t157 115t120.5 90t48.5 53.5q0 29 -101 29q-56 0 -134 -9.5t-87 -9.5q-26 0 -26 23t30.5 84t59.5 90q66 66 331 66q53 0 90 -1t105 -4.5t116 -13t97.5 -24.5t75.5 -41t26 -60q0 -108 -135 -203q-17 -11 -45.5 -30.5t-102 -72 t-129 -97.5t-101.5 -93t-46 -73q0 -19 39 -19q14 0 60.5 4.5t74.5 4.5q37 0 65.5 -6t55.5 -21.5t42 -47.5t15 -79q0 -44 -20 -96t-58 -102t-103 -83.5t-144 -33.5q-13 0 -26 7t-13 17q0 4 14.5 36t14.5 65q0 27 -23.5 46t-53.5 28.5t-73 14.5t-66 6t-49 1q-61 0 -168 -9.5 t-155 -9.5q-37 0 -60.5 11.5t-32 30.5t-10.5 29.5t-2 23.5z" />
<glyph unicode="{" horiz-adv-x="593" d="M-29 49q0 38 56.5 155.5t113 229.5t56.5 137q0 11 -27 75.5t-27 90.5q0 11 2 15q10 27 48 49t89.5 47.5t79.5 54.5q18 19 136 284t149 296q36 36 136.5 64t177.5 28q69 0 69 -25q0 -21 -22 -43.5t-57.5 -54t-55.5 -61.5q-36 -51 -144.5 -299.5t-144.5 -284.5 q-19 -19 -61 -39t-75.5 -38.5t-41.5 -37.5q-2 -2 -2 -10q0 -16 25.5 -66.5t25.5 -76.5q0 -34 -57.5 -146t-115.5 -234t-58 -179q0 -18 11 -71t11 -77q0 -49 -39 -49q-37 0 -98.5 42.5t-110.5 107t-49 116.5z" />
<glyph unicode="|" horiz-adv-x="751" d="M0 -45q1 20 9 40t24.5 47t19.5 34q86 164 305 624.5t310 661.5q30 67 82 92t145 25q42 0 67 -16t25 -36q0 -13 -7 -32.5t-15.5 -35.5t-22.5 -41.5t-20 -37.5q-21 -44 -111.5 -233t-164 -342.5t-170.5 -361.5t-165 -359q-21 -44 -64 -61t-116 -17q-57 0 -94 12t-37 37z " />
<glyph unicode="}" horiz-adv-x="618" d="M-252 -193q0 21 22 44t57.5 54.5t55.5 61.5q36 51 144.5 299.5t144.5 284.5q19 19 61 39t75.5 38.5t41.5 37.5q2 2 2 10q0 16 -25.5 66.5t-25.5 76.5q0 34 57.5 146t115.5 234t58 179q0 18 -11 71t-11 77q0 49 39 49q37 0 98.5 -42.5t110.5 -107t49 -116.5 q0 -38 -56.5 -155.5t-112.5 -229.5t-56 -138q0 -11 26.5 -75t26.5 -90q0 -11 -2 -15q-10 -27 -48 -49t-89.5 -47.5t-79.5 -54.5q-18 -19 -136 -284t-149 -296q-36 -36 -136 -64t-177 -28q-70 0 -70 24z" />
<glyph unicode="~" horiz-adv-x="837" d="M117 385q0 18 14 45t40 56t71 49t98 20q54 0 141 -12.5t162 -12.5q39 0 68 7t44 13.5t19 6.5q12 0 12 -16q0 -19 -14.5 -50t-41 -64t-72 -57t-97.5 -24q-51 0 -143.5 21.5t-169.5 21.5q-38 0 -63.5 -4.5t-37 -9t-16.5 -4.5q-14 0 -14 14z" />
<glyph unicode="&#xa1;" horiz-adv-x="581" d="M-338 -375q0 39 220 414.5t276 431.5q24 24 38 34.5t52.5 20t99.5 9.5q34 0 71.5 -10.5t37.5 -35.5q0 -2 -4 -14q-26 -69 -66 -178t-114.5 -338.5t-90.5 -333.5q-4 -23 -23 -41.5t-49.5 -29t-61 -17.5t-67.5 -9.5t-58.5 -3.5t-43.5 -1q-103 0 -160 30.5t-57 71.5z M217 770q0 55 46 97.5t103 60.5t109 18q80 0 131 -37.5t51 -89.5q0 -71 -79 -122.5t-175 -51.5q-84 0 -135 35t-51 90z" />
<glyph unicode="&#xa2;" horiz-adv-x="1079" d="M96 305q0 49 11 105t36.5 122t64 128.5t98.5 121t133.5 102.5t175.5 71t219 28l16 37q15 32 45 52t72 20q24 0 42.5 -10t18.5 -29q0 -15 -8 -31q-4 -9 -13.5 -25.5t-13.5 -25.5q160 -26 160 -94q0 -50 -32.5 -139t-69.5 -126q-23 -23 -47 -38.5t-79.5 -29.5t-131.5 -14 q-52 0 -52 21q0 8 7 22q57 115 57 150q0 29 -64 29q-73 0 -136 -59.5t-96.5 -141.5t-33.5 -158q0 -59 29 -102l26 59q13 30 43 50t72 20q25 0 44.5 -9.5t19.5 -29.5q0 -14 -9 -29l-65 -135q36 -4 61 -4q70 0 116.5 9.5t67 19.5t27.5 10q12 0 18.5 -9.5t6.5 -23.5 q0 -33 -24 -84.5t-52 -79.5q-59 -59 -135 -83.5t-201 -24.5h-12l-25 -58q-35 -75 -118 -75q-25 0 -44.5 10.5t-19.5 30.5q0 8 10 28q16 35 41 84q-132 36 -194 128t-62 210z" />
<glyph unicode="&#xa3;" horiz-adv-x="1212" d="M27 35q0 12 6 24q3 7 50.5 101t121 244t135.5 284q-74 -2 -217 -2q-41 2 -41 35q0 21 16 62.5t52 82.5t79 41q86 -2 205 -4q136 321 144 440q7 43 67 71t176 28q256 0 256 -84q0 -17 -8 -33q-4 -8 -33.5 -68t-80 -162t-93.5 -192q210 0 293 6q3 0 8 -0.5t13 -8t8 -23.5 q-1 -11 -4.5 -28.5t-23.5 -60.5t-50 -73q-32 -29 -158 -29q-52 0 -188 4q-156 -330 -156 -360q0 -49 105 -49q74 0 133.5 24.5t94.5 59.5t60.5 69.5t46 59t37.5 24.5q11 0 27.5 -4.5t38 -15.5t36.5 -36.5t15 -60.5q0 -43 -25.5 -114.5t-64.5 -143t-93.5 -123t-105.5 -51.5 q-4 0 -91 5.5t-177 5.5q-85 0 -246.5 -4.5t-230.5 -4.5q-137 0 -137 64z" />
<glyph unicode="&#xa5;" horiz-adv-x="1308" d="M16 393q0 21 16.5 63t52 83t77.5 41q100 -3 235 -5q14 62 19 97q4 46 4 71h-187q-17 1 -26 8t-10.5 12.5t-1.5 14.5q0 21 16 63t51.5 83t77.5 41q27 -2 68 -2q-10 87 -70 479q0 20 13.5 34t29.5 20.5t44.5 10t42.5 4t40 0.5q70 0 135.5 -12.5t118.5 -47.5t53 -87 q0 -15 -1 -76.5t-1 -101.5q0 -120 6 -203q0 -18 4 -22h31q6 2 20 16q121 115 240.5 235.5t140.5 153.5q56 92 301 92q78 0 141.5 -20.5t63.5 -48.5q0 -14 -16 -27q-19 -17 -101.5 -88.5t-174.5 -153.5t-173 -157q13 1 40.5 2t37.5 2q6 0 11.5 -2t11.5 -10t6 -21 q-1 -12 -5 -30.5t-24 -61t-49 -66.5q-36 -31 -252 -31q-52 -52 -72 -77q-41 -40 -75 -93q181 0 270 7q8 0 12.5 -1t10.5 -9t6 -23q-2 -12 -6 -31t-24.5 -62t-49.5 -67q-34 -29 -238 -29h-102q-40 -82 -90 -203.5t-60 -140.5q-17 -34 -56 -56t-96.5 -31t-103.5 -12t-110 -3 q-68 0 -105 20t-37 46q0 8 9 22q3 5 27 53t64 135.5t72 167.5h-264q-25 1 -32 10.5t-7 24.5z" />
<glyph unicode="&#xa6;" horiz-adv-x="751" d="M-2 -45q1 20 9 40t24.5 47t19.5 34q96 184 144 281t124 266q30 66 82 91t146 25q42 0 67 -15.5t25 -35.5q0 -6 -42.5 -93.5t-127.5 -264.5t-160 -346q-21 -44 -64 -61t-116 -17q-57 0 -94 12t-37 37zM436 850q0 11 5 25t17 37.5t17 35.5q176 376 193 414q30 67 82 92 t145 25q42 0 67 -16t25 -36q0 -13 -7 -32.5t-15.5 -35.5t-22.5 -41.5t-20 -37.5q-25 -52 -38.5 -78.5t-16 -28.5t-8 -12t-15 -29.5t-37 -80t-74.5 -164.5q-21 -44 -64 -61t-116 -17q-65 0 -91 10t-26 31z" />
<glyph unicode="&#xa7;" horiz-adv-x="1243" d="M78 152q0 51 57 51q31 0 78.5 5t111.5 16.5t108 38t44 63.5q0 28 -39 54.5t-94.5 50.5t-111.5 51.5t-95 68.5t-39 90q0 75 53 141t128.5 107.5t151 72t128.5 47.5t53 21q0 10 -14.5 21t-31.5 21.5t-31.5 34t-14.5 54.5q0 67 85 131t233 105t313 41q83 0 136.5 -50 t53.5 -110q0 -23 -22.5 -31t-73.5 -8q-20 0 -59 -8t-81 -21t-73 -34.5t-31 -45.5q0 -25 35.5 -49t86 -47t101.5 -49.5t86.5 -68t35.5 -91.5q0 -67 -33 -125t-82 -95.5t-106.5 -68.5t-106.5 -48.5t-82 -32t-33 -21.5q0 -12 17.5 -26.5t39 -27.5t39 -38.5t17.5 -58.5 q0 -83 -97.5 -156t-270.5 -117.5t-378 -44.5q-51 0 -89 16t-57 38t-30 51t-13.5 47t-2.5 35zM555 717q0 -35 56.5 -79t82.5 -44q34 0 85.5 23t91.5 59t40 67q0 38 -61 72.5t-96 34.5q-34 0 -116.5 -46.5t-82.5 -86.5z" />
<glyph unicode="&#xa8;" horiz-adv-x="1038" d="M391 1182q0 59 62 101t129 42q60 0 96.5 -29.5t36.5 -70.5q0 -58 -59 -101t-130 -43q-60 0 -97.5 29.5t-37.5 71.5zM922 1182q0 59 61.5 101t128.5 42q60 0 96.5 -29.5t36.5 -70.5q0 -58 -58.5 -101t-129.5 -43q-60 0 -97.5 29.5t-37.5 71.5z" />
<glyph unicode="&#xa9;" horiz-adv-x="1556" d="M139 453q0 146 49 274.5t131.5 221.5t189 161t224.5 101.5t236 33.5q117 0 218.5 -35.5t183 -104.5t128.5 -184t47 -262q0 -149 -48 -279.5t-129 -224t-186 -161t-221 -100.5t-233 -33q-119 0 -223 36t-187 106.5t-131.5 186.5t-48.5 263zM338 481q0 -106 34.5 -189.5 t94 -134.5t134 -77.5t159.5 -26.5q106 0 209.5 39t188.5 110t137.5 183t52.5 246q0 106 -33.5 188t-91.5 131.5t-131.5 75t-157.5 25.5q-107 0 -212 -39.5t-191 -110t-139.5 -180.5t-53.5 -240zM481 399q0 83 31.5 171.5t86 162.5t135.5 122t171 48q70 0 105 -18h6q6 0 8 4 q12 12 20.5 18.5t42.5 15.5t82 9q15 0 32.5 -5t17.5 -14v-2q-6 -22 -55.5 -123t-78.5 -129q-16 -14 -28.5 -22.5t-39 -15.5t-63.5 -7q-49 0 -49 21q0 5 26.5 57t26.5 62q0 18 -38 18q-48 0 -99.5 -59.5t-82.5 -137t-31 -133.5q0 -46 29 -73t87 -27q49 0 82.5 12t50.5 23.5 t27 11.5q14 0 14 -18q0 -13 -6.5 -35t-25 -52t-45 -56t-73.5 -44t-104 -18q-63 0 -111 15t-76 37.5t-45.5 54.5t-23.5 62t-6 64z" />
<glyph unicode="&#xaa;" horiz-adv-x="778" d="M199 788q0 59 21.5 127t65.5 135.5t104 122.5t145 89t180 34q40 0 70 -5.5t45.5 -11t19.5 -5.5q5 0 10 8q2 3 6 7.5t18.5 16t32.5 20.5t49 16.5t66 7.5q23 0 55.5 -9t32.5 -26q0 -6 -2 -8q-10 -17 -82.5 -165t-156 -330.5t-95.5 -236.5v-2q-9 -22 -49 -22 q-61 0 -107 41.5t-46 85.5q0 38 40 121.5t79.5 166t39.5 119.5q0 29 -36 29q-90 0 -156 -68t-66 -141q0 -19 6.5 -31.5t18.5 -17.5t21.5 -6.5t23.5 -1.5h10q10 0 14.5 -3t4.5 -14q0 -24 -16.5 -57t-46 -66.5t-78.5 -57t-105 -23.5q-39 0 -67 16.5t-42.5 42.5t-21 51.5 t-6.5 50.5z" />
<glyph unicode="&#xab;" horiz-adv-x="952" d="M100 461q0 11 3 20.5t10 19.5t11.5 15.5t14 16t11.5 12.5q97 97 279 246.5t226 173.5q45 25 100.5 36t170.5 11q51 0 77.5 -11.5t26.5 -27.5q0 -15 -22 -31q-106 -66 -346 -255t-240 -232q0 -55 102.5 -206t159.5 -218q10 -13 10 -25q0 -37 -90 -37q-195 0 -246 45 q-46 37 -125.5 169t-117.5 218q-15 40 -15 60z" />
<glyph unicode="&#xad;" horiz-adv-x="997" d="M72 418q0 16 9 43t25.5 57.5t46 52t64.5 21.5q641 2 727 6q47 0 47 -35q0 -26 -14.5 -65.5t-45 -74t-65.5 -34.5q-4 0 -154.5 2t-203.5 2q-101 0 -192 -1.5t-144.5 -3t-62.5 -1.5q-17 0 -26 6.5t-10 11.5t-1 13z" />
<glyph unicode="&#xae;" horiz-adv-x="1556" d="M139 453q0 146 49 274.5t131.5 221.5t189 161t224.5 101.5t236 33.5q117 0 218.5 -35.5t183 -104.5t128.5 -184t47 -262q0 -149 -48 -279.5t-129 -224t-186 -161t-221 -100.5t-233 -33q-119 0 -223 36t-187 106.5t-131.5 186.5t-48.5 263zM338 481q0 -106 34.5 -189.5 t94 -134.5t134 -77.5t159.5 -26.5q106 0 209.5 39t188.5 110t137.5 183t52.5 246q0 106 -33.5 188t-91.5 131.5t-131.5 75t-157.5 25.5q-107 0 -212 -39.5t-191 -110t-139.5 -180.5t-53.5 -240zM442 242q0 2 4 10q12 15 77.5 142t133.5 289t68 226v13q0 16 59 16 q88 0 121 -45l13 -4q39 16 92 16q101 0 162 -38.5t61 -118.5q0 -82 -53 -151t-160 -91q-10 -7 -10 -92q0 -156 18 -215q2 -4 2 -9q0 -11 -17 -17.5t-38 -6.5q-45 0 -86 24t-58 62q-6 15 -6 63q0 72 14 177t23 114q0 4 6 4q2 0 12 -3t19 -3q63 0 101 33t38 78q0 63 -86 63 q-37 0 -55 -18q-27 -27 -124.5 -246t-115.5 -246q-34 -51 -147 -51q-68 0 -68 25z" />
<glyph unicode="&#xaf;" d="M571 1126q0 21 16.5 63t52.5 83t79 41q1 -4 262 -4q151 0 240 6h10q3 0 8 -0.5t13 -8.5t8 -24q-1 -11 -4.5 -28.5t-23.5 -60.5t-50 -73q-30 -28 -158 -28h-412q-41 2 -41 34z" />
<glyph unicode="&#xb0;" horiz-adv-x="428" d="M233 1182q0 55 41 97.5t94.5 61.5t102.5 19q74 0 120 -36t46 -89q0 -73 -73.5 -125.5t-164.5 -52.5q-74 0 -120 36t-46 89zM354 1198q0 -20 15 -34t41 -17q41 0 74.5 19.5t33.5 52.5q0 22 -18.5 35.5t-50.5 13.5q-36 0 -65.5 -20.5t-29.5 -49.5z" />
<glyph unicode="&#xb4;" horiz-adv-x="1036" d="M774 1100q0 3 3 6.5l9 10.5t11 13q51 76 133 185q15 21 43.5 32t97.5 11q58 0 85.5 -2.5t33.5 -7t6 -13.5q0 -34 -68.5 -96t-162 -111t-154.5 -49q-17 0 -26 4t-10 7.5t-1 9.5z" />
<glyph unicode="&#xb6;" horiz-adv-x="1067" d="M0 874q0 48 11 96.5t39.5 103.5t73.5 104t120 94.5t170.5 78.5t232 52.5t299.5 19.5q379 0 379 -88q0 -8 -8 -24q-93 -166 -352.5 -726t-272.5 -585q-17 -33 -48 -55t-66.5 -29.5t-53 -9.5t-32.5 -2q-68 0 -68 35q0 6 2 12.5t4 10.5l2 3q82 124 292.5 568t295.5 636 q4 12 4 15q0 22 -35 22q-90 0 -149 -57q-44 -44 -167 -300.5t-247 -529t-152 -319.5q-17 -27 -42.5 -47t-50.5 -29t-48 -14t-37 -6h-14q-80 0 -80 33q0 6 3.5 13t6.5 11l4 4q56 73 132 221t124 260l47 111q0 16 -17.5 26.5t-45.5 18t-62.5 16.5t-68.5 27t-62 44.5t-45.5 74 t-17.5 110.5z" />
<glyph unicode="&#xb7;" horiz-adv-x="610" d="M115 428q0 55 46 97.5t103 60.5t109 18q80 0 131 -37.5t51 -89.5q0 -71 -79 -122.5t-175 -51.5q-84 0 -135 35t-51 90z" />
<glyph unicode="&#xb8;" horiz-adv-x="974" d="M250 -297q0 15 12 34t21 19q1 0 19 -6t38 -6q28 0 43.5 11t15.5 30q0 13 -17.5 21.5t-34.5 11.5l-17 2q-25 0 -25 18q0 23 25.5 51t25.5 31l-4 8q0 7 21 12t47 5q65 0 65 -21q-15 -3 -29 -15t-20 -26q-2 -4 -2 -8q0 -2 0.5 -3t2.5 -2t3.5 -1.5t5 -1.5t5.5 -2 q55 -20 55 -66q0 -13 -3 -27t-14.5 -33t-30 -33.5t-53.5 -25t-81 -10.5q-24 0 -49 8t-25 25z" />
<glyph unicode="&#xba;" horiz-adv-x="806" d="M236 874q0 53 17 111.5t60 123.5t106.5 116t167.5 84.5t232 33.5q79 0 157.5 -19t78.5 -46q0 -16 -20 -40t-40 -38q-12 -12 -12 -14q0 -4 13.5 -19.5t27.5 -50t14 -84.5q0 -75 -32.5 -147.5t-92.5 -133t-156.5 -98t-213.5 -37.5q-28 0 -61 4.5t-78.5 21t-81 42.5 t-61 75.5t-25.5 114.5zM498 874q0 -90 82 -90q61 0 110.5 50.5t72.5 113.5t23 117q0 94 -67 94q-62 0 -115 -50.5t-79.5 -115t-26.5 -119.5z" />
<glyph unicode="&#xbb;" horiz-adv-x="1007" d="M-27 8q0 15 23 31q106 66 346 255t240 232q0 55 -102.5 206t-160.5 218q-10 13 -10 25q0 37 90 37q195 0 246 -45q46 -37 126 -169.5t118 -217.5q14 -38 14 -60q0 -11 -3 -20.5t-10 -20t-10.5 -15t-14 -16t-11.5 -12.5q-97 -97 -279 -246.5t-227 -173.5q-45 -25 -100 -36 t-170 -11q-51 0 -78 11.5t-27 27.5z" />
<glyph unicode="&#xbf;" horiz-adv-x="933" d="M-262 -219q0 -13 1 -25t10.5 -40.5t26.5 -51t53 -51t85.5 -47.5t129.5 -32t179 -13q322 0 393 71q47 47 109.5 173.5t62.5 158.5q0 39 -106 39q-30 0 -54 -2t-45 -9t-35 -11t-31 -18.5t-24 -20t-23.5 -28t-21.5 -29t-24 -35.5q-34 -52 -121 -52q-39 0 -66 8.5t-38.5 22 t-16 24.5t-4.5 21q0 50 32.5 98.5t84.5 88.5t114.5 80.5t125 81.5t114.5 84t84.5 96t32.5 110q0 22 -22.5 36.5t-57.5 20t-57 7.5t-41 2q-47 0 -82 -7t-51 -17.5t-25.5 -21t-10.5 -17.5l-1 -7q-21 -62 -66.5 -108t-106 -77t-122.5 -58t-131.5 -68t-118.5 -90 q-135 -137 -135 -287zM479 770q0 55 46 97.5t103 60.5t109 18q80 0 131.5 -37.5t51.5 -89.5q0 -71 -79 -122.5t-175 -51.5q-84 0 -135.5 35t-51.5 90z" />
<glyph unicode="&#xc0;" horiz-adv-x="1339" d="M-190 16q0 6 5 14t10 12l5 5q50 47 130 141.5t135 165.5l55 70q10 13 10 27q0 5 -5 35t-5 57q0 32 10.5 67t23.5 47q11 11 35 11q8 0 30.5 -2t35.5 -2q37 0 61 12q36 17 156.5 167t230.5 314.5t121 214.5q2 10 13.5 21.5t39.5 25t68.5 23.5t107 17t148.5 7q26 0 66 -4 t94 -14t91.5 -32.5t37.5 -53.5q0 -10 -2 -16q-26 -94 -63.5 -240.5t-95 -389t-96 -471.5t-38.5 -360q0 -41 -105 -41q-152 0 -239.5 54.5t-87.5 121.5q0 11 35.5 139.5t35.5 162.5q0 12 -4 16q-18 18 -151 18q-89 0 -143 -8t-65 -14t-22 -17q-50 -50 -131.5 -180t-99.5 -149 q-47 -49 -219 -49q-58 0 -103 8t-69 20t-35.5 24.5t-11.5 24.5zM750 688q0 -26 90 -26q56 0 81.5 6.5t32.5 23.5q78 244 78 309q0 25 -10 25q-23 0 -90 -75.5t-124.5 -158.5t-57.5 -104zM1192 1753q0 49 111 49q28 0 43.5 -0.5t37.5 -4t32.5 -12t10.5 -22.5v-4 q-5 -44 -7.5 -89t-2 -70t-1 -46t-7 -29.5t-16.5 -8.5q-57 0 -129 97t-72 140z" />
<glyph unicode="&#xc1;" horiz-adv-x="1339" d="M-190 16q0 6 5 14t10 12l5 5q50 47 130 141.5t135 165.5l55 70q10 13 10 27q0 5 -5 35t-5 57q0 32 10.5 67t23.5 47q11 11 35 11q8 0 30.5 -2t35.5 -2q37 0 61 12q36 17 156.5 167t230.5 314.5t121 214.5q2 10 13.5 21.5t39.5 25t68.5 23.5t107 17t148.5 7q26 0 66 -4 t94 -14t91.5 -32.5t37.5 -53.5q0 -10 -2 -16q-26 -94 -63.5 -240.5t-95 -389t-96 -471.5t-38.5 -360q0 -41 -105 -41q-152 0 -239.5 54.5t-87.5 121.5q0 11 35.5 139.5t35.5 162.5q0 12 -4 16q-18 18 -151 18q-89 0 -143 -8t-65 -14t-22 -17q-50 -50 -131.5 -180t-99.5 -149 q-47 -49 -219 -49q-58 0 -103 8t-69 20t-35.5 24.5t-11.5 24.5zM750 688q0 -26 90 -26q56 0 81.5 6.5t32.5 23.5q78 244 78 309q0 25 -10 25q-23 0 -90 -75.5t-124.5 -158.5t-57.5 -104zM1171 1550q0 3 3 6.5t9.5 11t10.5 13.5q45 66 133 184q15 21 43.5 32t97.5 11 q58 0 85.5 -2.5t33.5 -6.5t6 -13q0 -34 -68.5 -96t-162 -111t-154.5 -49q-17 0 -26 4t-10 7t-1 9z" />
<glyph unicode="&#xc2;" horiz-adv-x="1339" d="M-190 16q0 6 5 14t10 12l5 5q50 47 130 141.5t135 165.5l55 70q10 13 10 27q0 5 -5 35t-5 57q0 32 10.5 67t23.5 47q11 11 35 11q8 0 30.5 -2t35.5 -2q37 0 61 12q36 17 156.5 167t230.5 314.5t121 214.5q2 10 13.5 21.5t39.5 25t68.5 23.5t107 17t148.5 7q26 0 66 -4 t94 -14t91.5 -32.5t37.5 -53.5q0 -10 -2 -16q-26 -94 -63.5 -240.5t-95 -389t-96 -471.5t-38.5 -360q0 -41 -105 -41q-152 0 -239.5 54.5t-87.5 121.5q0 11 35.5 139.5t35.5 162.5q0 12 -4 16q-18 18 -151 18q-89 0 -143 -8t-65 -14t-22 -17q-50 -50 -131.5 -180t-99.5 -149 q-47 -49 -219 -49q-58 0 -103 8t-69 20t-35.5 24.5t-11.5 24.5zM750 688q0 -26 90 -26q56 0 81.5 6.5t32.5 23.5q78 244 78 309q0 25 -10 25q-23 0 -90 -75.5t-124.5 -158.5t-57.5 -104zM1026 1550q0 4 3.5 8t10.5 11.5t11 13.5q25 30 86.5 100.5t72.5 81.5q19 24 57.5 34.5 t135.5 10.5q122 0 149 -11q18 -9 19 -23v-9q-12 -49 -21 -96t-12 -71t-7.5 -43.5t-10.5 -26t-17 -6.5q-36 0 -74.5 40t-60.5 91q0 8 -6 8l-12 -6q-159 -125 -291 -125q-33 0 -33 18z" />
<glyph unicode="&#xc3;" horiz-adv-x="1339" d="M-190 16q0 6 5 14t10 12l5 5q50 47 130 141.5t135 165.5l55 70q10 13 10 27q0 5 -5 35t-5 57q0 32 10.5 67t23.5 47q11 11 35 11q8 0 30.5 -2t35.5 -2q37 0 61 12q36 17 156.5 167t230.5 314.5t121 214.5q2 10 13.5 21.5t39.5 25t68.5 23.5t107 17t148.5 7q26 0 66 -4 t94 -14t91.5 -32.5t37.5 -53.5q0 -10 -2 -16q-26 -94 -63.5 -240.5t-95 -389t-96 -471.5t-38.5 -360q0 -41 -105 -41q-152 0 -239.5 54.5t-87.5 121.5q0 11 35.5 139.5t35.5 162.5q0 12 -4 16q-18 18 -151 18q-89 0 -143 -8t-65 -14t-22 -17q-50 -50 -131.5 -180t-99.5 -149 q-47 -49 -219 -49q-58 0 -103 8t-69 20t-35.5 24.5t-11.5 24.5zM750 688q0 -26 90 -26q56 0 81.5 6.5t32.5 23.5q78 244 78 309q0 25 -10 25q-23 0 -90 -75.5t-124.5 -158.5t-57.5 -104zM1016 1726q0 12 10 24.5t29 12.5q1 0 55 -12t127 -12q64 0 116.5 9t59.5 9 q59 0 97 -47t38 -119v-7.5t-2.5 -16t-6.5 -20.5t-12.5 -16t-19.5 -7l-25 7q-25 7 -66.5 14t-82.5 7q-48 0 -100 -8t-68 -8q-53 0 -88.5 33t-48 73.5t-12.5 83.5z" />
<glyph unicode="&#xc4;" horiz-adv-x="1339" d="M-190 16q0 6 5 14t10 12l5 5q50 47 130 141.5t135 165.5l55 70q10 13 10 27q0 5 -5 35t-5 57q0 32 10.5 67t23.5 47q11 11 35 11q8 0 30.5 -2t35.5 -2q37 0 61 12q36 17 156.5 167t230.5 314.5t121 214.5q2 10 13.5 21.5t39.5 25t68.5 23.5t107 17t148.5 7q26 0 66 -4 t94 -14t91.5 -32.5t37.5 -53.5q0 -10 -2 -16q-26 -94 -63.5 -240.5t-95 -389t-96 -471.5t-38.5 -360q0 -41 -105 -41q-152 0 -239.5 54.5t-87.5 121.5q0 11 35.5 139.5t35.5 162.5q0 12 -4 16q-18 18 -151 18q-89 0 -143 -8t-65 -14t-22 -17q-50 -50 -131.5 -180t-99.5 -149 q-47 -49 -219 -49q-58 0 -103 8t-69 20t-35.5 24.5t-11.5 24.5zM750 688q0 -26 90 -26q56 0 81.5 6.5t32.5 23.5q78 244 78 309q0 25 -10 25q-23 0 -90 -75.5t-124.5 -158.5t-57.5 -104zM905 1630q0 59 62 101.5t129 42.5q59 0 96 -30t37 -71q0 -58 -59 -100.5t-130 -42.5 q-60 0 -97.5 29t-37.5 71zM1436 1630q0 60 61.5 102t128.5 42q59 0 96 -30t37 -71q0 -58 -58.5 -100.5t-129.5 -42.5q-60 0 -97.5 29t-37.5 71z" />
<glyph unicode="&#xc5;" horiz-adv-x="1339" d="M-190 16q0 6 5 14t10 12l5 5q50 47 130 141.5t135 165.5l55 70q10 13 10 27q0 5 -5 35t-5 57q0 32 10.5 67t23.5 47q11 11 35 11q8 0 30.5 -2t35.5 -2q37 0 61 12q36 17 156.5 167t230.5 314.5t121 214.5q2 10 13.5 21.5t39.5 25t68.5 23.5t107 17t148.5 7q26 0 66 -4 t94 -14t91.5 -32.5t37.5 -53.5q0 -10 -2 -16q-26 -94 -63.5 -240.5t-95 -389t-96 -471.5t-38.5 -360q0 -41 -105 -41q-152 0 -239.5 54.5t-87.5 121.5q0 11 35.5 139.5t35.5 162.5q0 12 -4 16q-18 18 -151 18q-89 0 -143 -8t-65 -14t-22 -17q-50 -50 -131.5 -180t-99.5 -149 q-47 -49 -219 -49q-58 0 -103 8t-69 20t-35.5 24.5t-11.5 24.5zM750 688q0 -26 90 -26q56 0 81.5 6.5t32.5 23.5q78 244 78 309q0 25 -10 25q-23 0 -90 -75.5t-124.5 -158.5t-57.5 -104zM1163 1661q0 55 41 97.5t94.5 61.5t102.5 19q74 0 120 -36t46 -89q0 -73 -73.5 -125.5 t-164.5 -52.5q-74 0 -120 36t-46 89zM1284 1677q0 -21 14.5 -34.5t40.5 -16.5q41 0 75 19.5t34 52.5q0 22 -19 35.5t-51 13.5q-36 0 -65 -20.5t-29 -49.5z" />
<glyph unicode="&#xc6;" horiz-adv-x="1986" d="M-190 14q0 5 5.5 13t10.5 13l6 5q49 47 129 141.5t135 165.5l56 70q10 12 10 27q0 5 -5 34t-5 56q0 33 10 67.5t22 46.5q11 11 35 11q8 0 30.5 -2.5t35.5 -2.5q35 0 61 13q37 18 157.5 168.5t231 314.5t121.5 213q3 10 14.5 21.5t39.5 25t68 23.5t106.5 17t148.5 7 q31 0 77.5 -4.5t110 -21.5t86.5 -45q94 28 412 28q174 0 253 -15.5t79 -60.5q0 -62 -25.5 -120t-50.5 -85l-25 -28q-14 -14 -30 -14q-2 0 -58 7t-123 7h-47q-189 0 -239 -43q-31 -25 -67 -90t-36 -90q0 -29 54 -29h88q71 0 146 2t95 2q37 0 37 -37q0 -49 -47.5 -127.5 t-79.5 -101.5q-10 -8 -29.5 -13t-33.5 -7l-15 -1q-70 3 -147 3q-190 0 -217 -27q-29 -31 -65 -112.5t-36 -102.5q0 -12 3 -21.5t12.5 -20t31 -16.5t54.5 -6q55 -2 129 -2q210 0 282 17q24 6 39 6q33 0 33 -29q0 -38 -50.5 -130t-100.5 -132q-43 -33 -134 -44t-256 -11h-83 q-29 -5 -33 -23v-43q0 -41 -105 -41q-152 0 -240.5 55t-88.5 123q0 11 22.5 87.5t39.5 148.5t7 82q-18 16 -151 16q-89 0 -143 -8t-65 -14t-22 -17q-49 -49 -129.5 -178.5t-101.5 -150.5q-47 -47 -199 -47h-22q-76 0 -128.5 13.5t-71.5 30t-19 33.5zM752 686q0 -29 90 -29 q55 0 80.5 7.5t31.5 25.5q22 53 58.5 193.5t9.5 140.5q-33 0 -151.5 -152.5t-118.5 -185.5z" />
<glyph unicode="&#xc7;" horiz-adv-x="1202" d="M66 424q0 111 29.5 230.5t82 233.5t131.5 216t173 179t211 122t241 45q139 0 213 -37q6 -2 12 -2q11 0 19 8q16 17 29.5 27t46 27t89 25.5t132.5 8.5q34 0 66 -7.5t32 -26.5v-5q-10 -44 -110.5 -250.5t-159.5 -265.5q-46 -44 -104 -68t-165 -24q-9 0 -21 1t-32 5 t-33.5 13.5t-13.5 23.5q0 10 55 115.5t55 124.5q0 39 -81 39q-75 0 -156.5 -73t-141.5 -177.5t-99.5 -220.5t-39.5 -201q0 -95 60.5 -151t179.5 -56q79 0 139.5 15.5t88.5 33.5t54.5 33.5t45.5 15.5q10 0 19 -8.5t9 -27.5q0 -26 -13 -70t-49 -105t-89.5 -112.5t-145 -89.5 t-204.5 -41l2 -2q-16 0 -25 -6t-23 -20t-18 -23q-2 -4 -2 -9t3 -7t11.5 -4.5t12.5 -4.5q63 -27 63 -82q0 -17 -3.5 -34.5t-17.5 -41t-37 -41.5t-66 -30.5t-101 -12.5q-31 0 -61.5 9.5t-30.5 29.5q0 22 12.5 45t28.5 23q3 0 25.5 -7.5t45.5 -7.5q35 0 54.5 14t19.5 38 q0 16 -22 27t-44 14l-22 2q-29 4 -29 20q0 14 23 44.5t49 53.5q4 4 4 11l-4 8l2 2q-97 13 -171 48.5t-117.5 81.5t-70.5 106t-36.5 115.5t-9.5 117.5z" />
<glyph unicode="&#xc8;" horiz-adv-x="1130" d="M-154 39q0 -86 402 -86h217q178 0 272.5 10.5t136.5 44.5q50 40 101 132.5t51 129.5q0 27 -31 27q-17 0 -41 -6q-61 -15 -268 -15l-143 3q-33 0 -54 5.5t-30 16t-12 19.5t-3 22q0 20 35 102t64 111t254 29h63q35 0 49 -2q53 2 76 18q32 25 79.5 103t47.5 128q0 37 -37 37 q-1 0 -34.5 -1t-90.5 -2t-116 -1h-89q-53 0 -53 29q0 25 36 90t67 90q50 43 239 43h49q53 0 96.5 -4.5t60 -7.5t29 -1t23.5 13l11 11t25 30.5t31.5 49t24.5 65t11 78.5q0 44 -66.5 57.5t-238.5 13.5q-48 0 -109 -3t-98 -6l-37 -3q-7 -2 -14 0t-10 5l-3 3q-82 101 -266 101 q-28 0 -46 -1t-39 -4.5t-31.5 -12.5t-10.5 -23q0 -7 1 -15t1 -12q0 -109 -83.5 -337.5t-192.5 -455.5t-190.5 -387.5t-100.5 -191.5q-15 -22 -15 -39zM864 1776q0 49 111 49q28 0 44 -0.5t38 -4t32.5 -12t10.5 -22.5v-4q-5 -44 -7.5 -89t-2.5 -70t-1.5 -46.5t-7 -30 t-16.5 -8.5q-39 0 -88 50t-81 106.5t-32 81.5z" />
<glyph unicode="&#xc9;" horiz-adv-x="1130" d="M-154 39q0 17 15 39q19 31 100.5 191.5t190.5 387.5t192.5 455.5t83.5 337.5q0 4 -1 12t-1 15q0 26 34 33.5t93 7.5q184 0 266 -101q1 -1 3.5 -3t9.5 -4.5t14 -0.5q135 12 244 12q172 0 238.5 -13.5t66.5 -57.5q0 -39 -10.5 -78t-25.5 -66t-30.5 -48t-26.5 -32l-10 -10 q-11 -11 -23.5 -13t-29 1t-60 7.5t-96.5 4.5h-49q-189 0 -239 -43q-31 -25 -67 -90t-36 -90q0 -29 53 -29h89q59 0 116 1t90.5 2t34.5 1q37 0 37 -37q0 -50 -47.5 -128t-79.5 -103q-10 -7 -29 -11.5t-33 -5.5l-14 -1q-14 2 -49 2h-63q-225 0 -254 -29t-64 -111t-35 -102 q0 -13 3 -22t12 -19.5t30 -16t54 -5.5q65 -3 143 -3q207 0 268 15q24 6 41 6q31 0 31 -27q0 -37 -51 -129.5t-101 -132.5q-42 -34 -136.5 -44.5t-272.5 -10.5h-217q-402 0 -402 86zM879 1548q0 2 22 31q45 66 133 184q15 21 44 32t98 11q58 0 85 -2.5t33 -6.5t6 -13 q0 -34 -68.5 -96t-162 -111t-154.5 -49q-17 0 -25.5 4t-9.5 7t-1 9z" />
<glyph unicode="&#xca;" horiz-adv-x="1130" d="M-154 39q0 -86 402 -86h217q178 0 272.5 10.5t136.5 44.5q50 40 101 132.5t51 129.5q0 27 -31 27q-17 0 -41 -6q-61 -15 -268 -15l-143 3q-33 0 -54 5.5t-30 16t-12 19.5t-3 22q0 20 35 102t64 111t254 29h63q35 0 49 -2q53 2 76 18q32 25 79.5 103t47.5 128q0 37 -37 37 q-1 0 -34.5 -1t-90.5 -2t-116 -1h-89q-53 0 -53 29q0 25 36 90t67 90q50 43 239 43h49q53 0 96.5 -4.5t60 -7.5t29 -1t23.5 13l11 11t25 30.5t31.5 49t24.5 65t11 78.5q0 44 -66.5 57.5t-238.5 13.5q-48 0 -109 -3t-98 -6l-37 -3q-7 -2 -14 0t-10 5l-3 3q-82 101 -266 101 q-28 0 -46 -1t-39 -4.5t-31.5 -12.5t-10.5 -23q0 -7 1 -15t1 -12q0 -109 -83.5 -337.5t-192.5 -455.5t-190.5 -387.5t-100.5 -191.5q-15 -22 -15 -39zM780 1550q0 4 3.5 8t10.5 11.5t11 13.5q24 30 86 100t74 82q19 24 57 34.5t135 10.5q122 0 149 -11q18 -9 19 -23v-9 q-12 -49 -21 -96t-12 -71t-7.5 -43.5t-10.5 -26t-17 -6.5q-36 0 -74.5 40t-60.5 91q0 8 -6 8l-12 -6q-159 -125 -291 -125q-33 0 -33 18z" />
<glyph unicode="&#xcb;" horiz-adv-x="1130" d="M-154 39q0 -86 402 -86h217q178 0 272.5 10.5t136.5 44.5q50 40 101 132.5t51 129.5q0 27 -31 27q-17 0 -41 -6q-61 -15 -268 -15l-143 3q-33 0 -54 5.5t-30 16t-12 19.5t-3 22q0 20 35 102t64 111t254 29h63q35 0 49 -2q53 2 76 18q32 25 79.5 103t47.5 128q0 37 -37 37 q-1 0 -34.5 -1t-90.5 -2t-116 -1h-89q-53 0 -53 29q0 25 36 90t67 90q50 43 239 43h49q53 0 96.5 -4.5t60 -7.5t29 -1t23.5 13l11 11t25 30.5t31.5 49t24.5 65t11 78.5q0 44 -66.5 57.5t-238.5 13.5q-48 0 -109 -3t-98 -6l-37 -3q-7 -2 -14 0t-10 5l-3 3q-82 101 -266 101 q-28 0 -46 -1t-39 -4.5t-31.5 -12.5t-10.5 -23q0 -7 1 -15t1 -12q0 -109 -83.5 -337.5t-192.5 -455.5t-190.5 -387.5t-100.5 -191.5q-15 -22 -15 -39zM604 1640q0 59 62 101.5t129 42.5q59 0 96 -30t37 -71q0 -58 -59 -100.5t-130 -42.5q-60 0 -97.5 29t-37.5 71zM1135 1640 q0 60 61.5 102t128.5 42q59 0 96 -30t37 -71q0 -58 -58.5 -100.5t-129.5 -42.5q-60 0 -97.5 29t-37.5 71z" />
<glyph unicode="&#xcc;" horiz-adv-x="614" d="M-133 -6q0 -26 34.5 -45t102.5 -19q272 0 328 115q29 56 294.5 613t317.5 667q8 16 8 33q0 84 -256 84q-116 0 -176 -28t-65 -71q-6 -94 -95 -316.5t-197.5 -444t-193 -385.5t-94.5 -179q-8 -11 -8 -24zM659 1761q0 49 111 49h29t27 -1t28 -3.5t20.5 -6.5t16 -11t4.5 -16 v-5q-5 -44 -7.5 -89t-2.5 -70t-1.5 -46t-7 -29.5t-16.5 -8.5q-57 0 -129 97t-72 140z" />
<glyph unicode="&#xcd;" horiz-adv-x="614" d="M-133 -6q0 13 8 24q10 15 94.5 179t193 385.5t197.5 444t95 316.5q5 43 65 71t176 28q256 0 256 -84q0 -17 -8 -33q-52 -110 -317.5 -667t-294.5 -613q-56 -115 -328 -115q-68 0 -102.5 19t-34.5 45zM690 1544q0 3 3 6.5t9.5 11t10.5 13.5q45 66 133 184q15 21 43.5 32 t97.5 11q58 0 85.5 -2.5t33.5 -6.5t6 -13q0 -34 -68.5 -96t-162 -111t-154.5 -49q-17 0 -26 4t-10 7t-1 9z" />
<glyph unicode="&#xce;" horiz-adv-x="614" d="M-133 -6q0 -26 34.5 -45t102.5 -19q272 0 328 115q29 56 294.5 613t317.5 667q8 16 8 33q0 84 -256 84q-116 0 -176 -28t-65 -71q-6 -94 -95 -316.5t-197.5 -444t-193 -385.5t-94.5 -179q-8 -11 -8 -24zM541 1552q0 4 3 8t10 11.5t11 13.5q24 30 86 100t74 82 q19 24 57.5 34.5t135.5 10.5q122 0 148 -11q19 -8 19 -23v-9q-12 -49 -21 -96t-12 -71t-7 -43.5t-10 -26t-17 -6.5q-36 0 -74.5 40t-60.5 91q0 8 -6 8l-13 -6q-159 -125 -291 -125q-32 0 -32 18z" />
<glyph unicode="&#xcf;" horiz-adv-x="614" d="M-133 -6q0 -26 34.5 -45t102.5 -19q272 0 328 115q29 56 294.5 613t317.5 667q8 16 8 33q0 84 -256 84q-116 0 -176 -28t-65 -71q-6 -94 -95 -316.5t-197.5 -444t-193 -385.5t-94.5 -179q-8 -11 -8 -24zM367 1634q0 60 61.5 102t128.5 42q59 0 96 -30t37 -71 q0 -58 -58.5 -100.5t-129.5 -42.5q-60 0 -97.5 29t-37.5 71zM897 1634q0 60 61.5 102t128.5 42q60 0 97 -30t37 -71q0 -58 -59 -100.5t-130 -42.5q-60 0 -97.5 29t-37.5 71z" />
<glyph unicode="&#xd0;" horiz-adv-x="1374" d="M-154 -12q0 9 7 20q9 11 59 104.5t131 256t152 317.5h-72q-41 2 -41 35q0 21 16 62.5t52 82.5t79 41q17 -2 62 -4q168 402 168 549v25q0 26 34.5 33.5t94.5 7.5q193 0 268 -99l3 -3t8.5 -4.5t13.5 -0.5q55 21 159 21q91 0 171 -32t141.5 -91.5t97 -151.5t35.5 -205 q0 -75 -14.5 -163.5t-46 -186t-76.5 -191t-111 -179t-144 -149.5t-181.5 -102t-217.5 -38q-167 0 -217 47q-31 31 -31 84q0 44 22 104t54 104t56 44q11 0 38.5 -10.5t53.5 -10.5q83 0 162 68.5t132.5 170.5t86 218.5t32.5 214.5q0 180 -135 180q-79 0 -112 -33 q-40 -37 -129 -221l178 6q3 0 7.5 -0.5t12.5 -8t8 -23.5q-1 -11 -4.5 -28.5t-23 -60.5t-49.5 -73q-32 -29 -158 -29h-74q-33 -71 -89 -196t-89 -198t-68.5 -146t-54.5 -101q-77 -113 -317 -113q-72 0 -106 16t-34 40z" />
<glyph unicode="&#xd1;" horiz-adv-x="1318" d="M-152 4q0 13 9 25q47 69 135.5 234.5t185 365.5t177 410t100.5 337q6 40 83.5 59t196.5 19q37 0 56 -0.5t52 -3.5t51 -10.5t37.5 -20t28.5 -33.5t9 -49q-11 -174 -11 -344q0 -125 9 -213q3 -45 16 -45q15 0 35 39q50 89 139.5 302t104.5 265q27 101 256 101 q149 0 149 -51q0 -7 -8 -23q-45 -80 -122 -231t-177.5 -360.5t-180.5 -420t-100 -336.5q-11 -77 -280 -77h-48.5t-45 2.5t-45 6.5t-37 12.5t-32 20.5t-18.5 31t-8 43q4 147 4 342q0 152 -2 234q0 33 -14 33q-4 0 -10 -6t-9 -12l-4 -5q-60 -96 -264 -602q-18 -49 -87.5 -74.5 t-168.5 -25.5q-72 0 -117 16.5t-45 44.5zM827 1524q0 14 8.5 34.5t27 44t43.5 44t63.5 34t81.5 13.5q54 0 141 -12.5t162 -12.5q39 0 68 6.5t44 13.5t19 7q12 0 12 -17q0 -19 -14.5 -49.5t-41 -64t-72 -57t-97.5 -23.5q-51 0 -144 21.5t-170 21.5q-38 0 -63 -5t-36.5 -9.5 t-16.5 -4.5q-15 0 -15 15z" />
<glyph unicode="&#xd2;" horiz-adv-x="1390" d="M51 377q0 106 22 209t51.5 175.5t66.5 136t61 94.5t41 48q48 50 110 50h17l8 14q16 30 29 50.5t43.5 61t61.5 69t82 63.5t107 57t133.5 37.5t164.5 15.5q234 0 359.5 -123t125.5 -354q0 -70 -15 -155t-50 -186.5t-86.5 -199.5t-130.5 -190.5t-175.5 -162t-229 -111.5 t-282.5 -42q-124 0 -223 35.5t-162 96.5t-96 140.5t-33 170.5zM479 406q0 -67 37.5 -113.5t114.5 -46.5q91 0 182 77t155 190t104 241t40 231q0 95 -25 131.5t-90 36.5q-56 0 -109.5 -40.5t-90.5 -98.5t-66 -115.5t-43 -98.5l-14 -40q-8 -19 -33 -19q-12 0 -26.5 3.5 t-22.5 7.5l-8 4q-4 -6 -11 -17t-25.5 -47t-32 -74.5t-25 -96.5t-11.5 -115zM1073 1767q0 50 111 50q28 0 44 -0.5t38 -4t32.5 -12t10.5 -22.5v-4q-5 -44 -7.5 -89t-2.5 -70t-1.5 -46.5t-7 -30t-16.5 -8.5q-57 0 -129 97t-72 140z" />
<glyph unicode="&#xd3;" horiz-adv-x="1390" d="M51 377q0 106 22 209t51.5 175.5t66.5 136t61 94.5t41 48q48 50 110 50h17l8 14q16 30 29 50.5t43.5 61t61.5 69t82 63.5t107 57t133.5 37.5t164.5 15.5q234 0 359.5 -123t125.5 -354q0 -70 -15 -155t-50 -186.5t-86.5 -199.5t-130.5 -190.5t-175.5 -162t-229 -111.5 t-282.5 -42q-124 0 -223 35.5t-162 96.5t-96 140.5t-33 170.5zM479 406q0 -67 37.5 -113.5t114.5 -46.5q91 0 182 77t155 190t104 241t40 231q0 95 -25 131.5t-90 36.5q-56 0 -109.5 -40.5t-90.5 -98.5t-66 -115.5t-43 -98.5l-14 -40q-8 -19 -33 -19q-12 0 -26.5 3.5 t-22.5 7.5l-8 4q-4 -6 -11 -17t-25.5 -47t-32 -74.5t-25 -96.5t-11.5 -115zM1040 1546q0 3 3 6.5t9.5 11t10.5 13.5q45 66 133 184q15 21 43.5 32t97.5 11q58 0 85.5 -2.5t33.5 -6.5t6 -13q0 -34 -68.5 -96t-162 -111t-154.5 -49q-17 0 -26 4t-10 7t-1 9z" />
<glyph unicode="&#xd4;" horiz-adv-x="1390" d="M51 377q0 106 22 209t51.5 175.5t66.5 136t61 94.5t41 48q48 50 110 50h17l8 14q16 30 29 50.5t43.5 61t61.5 69t82 63.5t107 57t133.5 37.5t164.5 15.5q234 0 359.5 -123t125.5 -354q0 -70 -15 -155t-50 -186.5t-86.5 -199.5t-130.5 -190.5t-175.5 -162t-229 -111.5 t-282.5 -42q-124 0 -223 35.5t-162 96.5t-96 140.5t-33 170.5zM479 406q0 -67 37.5 -113.5t114.5 -46.5q91 0 182 77t155 190t104 241t40 231q0 95 -25 131.5t-90 36.5q-56 0 -109.5 -40.5t-90.5 -98.5t-66 -115.5t-43 -98.5l-14 -40q-8 -19 -33 -19q-12 0 -26.5 3.5 t-22.5 7.5l-8 4q-4 -6 -11 -17t-25.5 -47t-32 -74.5t-25 -96.5t-11.5 -115zM944 1554q0 4 3.5 8t10.5 11.5t11 13.5q25 30 86.5 100.5t72.5 81.5q19 24 57.5 35t135.5 11q47 0 69 -0.5t49.5 -3.5t38.5 -10.5t11 -20.5v-8q-12 -49 -21 -96t-12 -71t-7.5 -44t-10.5 -26.5 t-17 -6.5q-36 0 -74.5 40t-60.5 91q0 8 -6 8l-12 -6q-159 -125 -291 -125q-33 0 -33 18z" />
<glyph unicode="&#xd5;" horiz-adv-x="1390" d="M51 377q0 106 22 209t51.5 175.5t66.5 136t61 94.5t41 48q48 50 110 50h17l8 14q16 30 29 50.5t43.5 61t61.5 69t82 63.5t107 57t133.5 37.5t164.5 15.5q234 0 359.5 -123t125.5 -354q0 -70 -15 -155t-50 -186.5t-86.5 -199.5t-130.5 -190.5t-175.5 -162t-229 -111.5 t-282.5 -42q-124 0 -223 35.5t-162 96.5t-96 140.5t-33 170.5zM479 406q0 -67 37.5 -113.5t114.5 -46.5q91 0 182 77t155 190t104 241t40 231q0 95 -25 131.5t-90 36.5q-56 0 -109.5 -40.5t-90.5 -98.5t-66 -115.5t-43 -98.5l-14 -40q-8 -19 -33 -19q-12 0 -26.5 3.5 t-22.5 7.5l-8 4q-4 -6 -11 -17t-25.5 -47t-32 -74.5t-25 -96.5t-11.5 -115zM911 1718q0 12 10 24.5t29 12.5q2 0 56 -12t127 -12q64 0 116.5 9t59.5 9q59 0 97 -47t38 -119v-7.5t-2.5 -16t-6.5 -20.5t-12.5 -16t-19.5 -7l-25 7q-25 7 -66.5 14t-82.5 7q-48 0 -100 -8t-68 -8 q-76 0 -113 60t-37 130z" />
<glyph unicode="&#xd6;" horiz-adv-x="1390" d="M51 377q0 106 22 209t51.5 175.5t66.5 136t61 94.5t41 48q48 50 110 50h17l8 14q16 30 29 50.5t43.5 61t61.5 69t82 63.5t107 57t133.5 37.5t164.5 15.5q234 0 359.5 -123t125.5 -354q0 -70 -15 -155t-50 -186.5t-86.5 -199.5t-130.5 -190.5t-175.5 -162t-229 -111.5 t-282.5 -42q-124 0 -223 35.5t-162 96.5t-96 140.5t-33 170.5zM479 406q0 -67 37.5 -113.5t114.5 -46.5q91 0 182 77t155 190t104 241t40 231q0 95 -25 131.5t-90 36.5q-56 0 -109.5 -40.5t-90.5 -98.5t-66 -115.5t-43 -98.5l-14 -40q-8 -19 -33 -19q-12 0 -26.5 3.5 t-22.5 7.5l-8 4q-4 -6 -11 -17t-25.5 -47t-32 -74.5t-25 -96.5t-11.5 -115zM838 1632q0 60 61.5 102t128.5 42q59 0 96 -30t37 -71q0 -58 -58.5 -100.5t-129.5 -42.5q-60 0 -97.5 29t-37.5 71zM1368 1632q0 59 62 101.5t129 42.5q59 0 96 -30t37 -71q0 -58 -59 -100.5 t-130 -42.5q-60 0 -97.5 29t-37.5 71z" />
<glyph unicode="&#xd7;" horiz-adv-x="1120" d="M0 287q0 8 6 20q6 13 24.5 30.5t55 47t41.5 33.5l414 338q-58 186 -113 338q-4 8 -4 20q0 32 40.5 47t82.5 15q39 0 70 -15t42 -45q27 -90 64 -209l203 170q59 52 111 71t120 19q37 0 57 -2q76 -5 76 -37q0 -8 -6.5 -19t-18.5 -23.5t-24.5 -24.5t-30 -26t-29 -23 t-27 -20.5t-19.5 -14.5q-189 -151 -344 -281q99 -323 114 -362q4 -16 4 -23q0 -25 -39 -43q-42 -22 -96 -22q-40 0 -69 16t-35 49q-6 34 -64 234q-204 -171 -276 -236q-38 -35 -80 -49t-103 -14q-147 0 -147 41z" />
<glyph unicode="&#xd8;" horiz-adv-x="1390" d="M23 -47q0 19 22 41l100 108q-94 117 -94 275q0 106 22 209t51.5 175.5t66.5 136t61 94.5t41 48q48 50 110 50h17l8 14q16 30 29 50.5t43.5 61t61.5 69t82 63.5t107 57t133.5 37.5t164.5 15.5q174 0 297 -74l8 9q4 4 16 14.5t16.5 14t19 10.5t29.5 9t41 4.5t60 2.5 q45 0 60.5 -8.5t15.5 -30.5q0 -19 -21 -49q-43 -43 -114 -119q57 -108 57 -260q0 -70 -15 -155t-50 -186.5t-86.5 -199.5t-130.5 -190.5t-175.5 -162t-229 -111.5t-282.5 -42q-137 0 -248 46q-40 -42 -83 -56t-111 -14q-45 0 -68 6.5t-27.5 14.5t-4.5 22zM483 473 q384 419 600 647q-24 33 -86 33q-56 0 -109.5 -40.5t-90.5 -98.5t-66 -115.5t-43 -98.5l-14 -40q-8 -19 -33 -19q-12 0 -26.5 3.5t-22.5 7.5l-8 4q-9 -13 -23.5 -36.5t-42 -97.5t-35.5 -149zM561 258q30 -12 70 -12q101 0 200.5 93t166 225t96.5 270q-284 -304 -533 -576z " />
<glyph unicode="&#xd9;" horiz-adv-x="1357" d="M10 319q0 -48 10 -92t45.5 -98.5t93.5 -94t164.5 -66.5t247.5 -27q91 0 170 13t135 32t104 50t78 58t57.5 65.5t41 63t29.5 58.5q12 25 97.5 207.5t160 339.5t156.5 319.5t114 210.5q6 9 6 18q0 28 -39.5 49t-113.5 21q-240 0 -318 -113q-17 -25 -197 -435t-221 -484 q-2 -5 -6.5 -14t-23 -32t-42 -40.5t-64.5 -32t-89 -14.5q-47 0 -77.5 30.5t-30.5 87.5t54 195.5t119.5 275t131 274.5t80.5 183q6 15 6 31q0 49 -53.5 89.5t-125.5 60.5t-139 20q-24 0 -36 -0.5t-30.5 -4t-28 -10t-18.5 -20t-12 -33.5q-16 -88 -67.5 -221.5t-112 -266.5 t-119.5 -261t-98 -234.5t-39 -157.5zM1010 1761q0 49 110 49h29t27 -1t28 -3.5t20.5 -6.5t16 -11t4.5 -16v-5q-5 -44 -7.5 -89t-2.5 -70t-1.5 -46t-7 -29.5t-16.5 -8.5q-39 0 -88 50t-80.5 106t-31.5 81z" />
<glyph unicode="&#xda;" horiz-adv-x="1357" d="M10 319q0 51 39 157.5t98 234.5t119.5 261t112 266.5t67.5 221.5q3 20 12 33.5t18.5 20t28 10t30.5 4t36 0.5q67 0 139 -20t125.5 -60.5t53.5 -89.5q0 -16 -6 -31q-15 -45 -80.5 -183t-131 -274.5t-119.5 -275t-54 -195.5t30.5 -87.5t77.5 -30.5q48 0 89 13.5t65 33.5 t41 39.5t23 32.5l7 14q41 74 221 484t197 435q78 113 318 113q74 0 113.5 -21t39.5 -49q0 -9 -6 -18q-32 -48 -114 -210.5t-156.5 -319.5t-160 -339.5t-97.5 -207.5q-16 -34 -29.5 -58.5t-41 -63t-57.5 -65.5t-78 -58t-104 -50t-135 -32t-170 -13q-141 0 -247.5 27 t-164.5 66.5t-93.5 94t-45.5 98.5t-10 92zM1069 1544q0 3 3 6.5t9.5 11t10.5 13.5q45 66 133 184q15 21 43.5 32t97.5 11q58 0 85.5 -2.5t33.5 -6.5t6 -13q0 -34 -68.5 -96t-162 -111t-154.5 -49q-17 0 -26 4t-10 7t-1 9z" />
<glyph unicode="&#xdb;" horiz-adv-x="1357" d="M10 319q0 -48 10 -92t45.5 -98.5t93.5 -94t164.5 -66.5t247.5 -27q91 0 170 13t135 32t104 50t78 58t57.5 65.5t41 63t29.5 58.5q12 25 97.5 207.5t160 339.5t156.5 319.5t114 210.5q6 9 6 18q0 28 -39.5 49t-113.5 21q-240 0 -318 -113q-17 -25 -197 -435t-221 -484 q-2 -5 -6.5 -14t-23 -32t-42 -40.5t-64.5 -32t-89 -14.5q-47 0 -77.5 30.5t-30.5 87.5t54 195.5t119.5 275t131 274.5t80.5 183q6 15 6 31q0 49 -53.5 89.5t-125.5 60.5t-139 20q-24 0 -36 -0.5t-30.5 -4t-28 -10t-18.5 -20t-12 -33.5q-16 -88 -67.5 -221.5t-112 -266.5 t-119.5 -261t-98 -234.5t-39 -157.5zM909 1554q0 4 3.5 8t10.5 11.5t11 13.5q24 30 86 100t74 82q19 24 57 35t135 11q46 0 68 -0.5t50 -3.5t39 -10.5t11 -20.5v-8q-12 -49 -21 -96t-12 -71t-7.5 -44t-10.5 -26.5t-17 -6.5q-36 0 -74.5 40t-60.5 91q0 8 -6 8l-12 -6 q-159 -125 -291 -125q-33 0 -33 18z" />
<glyph unicode="&#xdc;" horiz-adv-x="1357" d="M10 319q0 -48 10 -92t45.5 -98.5t93.5 -94t164.5 -66.5t247.5 -27q91 0 170 13t135 32t104 50t78 58t57.5 65.5t41 63t29.5 58.5q12 25 97.5 207.5t160 339.5t156.5 319.5t114 210.5q6 9 6 18q0 28 -39.5 49t-113.5 21q-240 0 -318 -113q-17 -25 -197 -435t-221 -484 q-2 -5 -6.5 -14t-23 -32t-42 -40.5t-64.5 -32t-89 -14.5q-47 0 -77.5 30.5t-30.5 87.5t54 195.5t119.5 275t131 274.5t80.5 183q6 15 6 31q0 49 -53.5 89.5t-125.5 60.5t-139 20q-24 0 -36 -0.5t-30.5 -4t-28 -10t-18.5 -20t-12 -33.5q-16 -88 -67.5 -221.5t-112 -266.5 t-119.5 -261t-98 -234.5t-39 -157.5zM774 1636q0 59 62 101.5t129 42.5q59 0 96 -30t37 -71q0 -58 -59 -100.5t-130 -42.5q-60 0 -97.5 29t-37.5 71zM1305 1636q0 60 61.5 102t128.5 42q59 0 96 -30t37 -71q0 -58 -58.5 -100.5t-129.5 -42.5q-60 0 -97.5 29t-37.5 71z" />
<glyph unicode="&#xdd;" horiz-adv-x="1153" d="M-8 -14q0 11 6 20q9 12 59 110.5t110.5 249t70.5 240.5q6 62 6 146q0 278 -62 700q0 61 170 61q70 0 135.5 -12t118.5 -46.5t53 -86.5q0 -25 -11 -178.5t-11 -224.5q0 -76 14 -76q21 0 43 22q88 84 232.5 250.5t171.5 208.5q56 90 303 90q78 0 140.5 -20t62.5 -49 q0 -12 -15 -27q-103 -88 -365.5 -347t-402.5 -415q-72 -71 -136 -174t-97 -179.5t-61.5 -152t-28.5 -76.5q-17 -34 -56 -56t-97 -31t-104 -12t-110 -3q-67 0 -103 20.5t-36 47.5zM809 1530q0 2 22 31q36 53 134 184q15 21 43.5 32t97.5 11q58 0 85.5 -2.5t33.5 -7t6 -13.5 q0 -34 -68.5 -96t-162 -111t-154.5 -49q-17 0 -26 4t-10 7.5t-1 9.5z" />
<glyph unicode="&#xde;" horiz-adv-x="1310" d="M-133 -6q0 13 8 24q10 15 94.5 179t193 385.5t197.5 444t95 316.5q5 43 65 71t176 28q256 0 256 -84q0 -17 -8 -33l-63 -131q51 14 102 14q119 0 218 -45.5t159.5 -133t60.5 -200.5q0 -192 -82.5 -350t-237.5 -252t-353 -94q-92 0 -149.5 32t-57.5 95q0 67 40.5 153.5 t88.5 86.5q9 0 29 -7.5t63 -7.5q100 0 167.5 88.5t67.5 198.5q0 83 -39.5 115.5t-105.5 32.5q-79 0 -115 -33v4q-351 -739 -405 -846q-56 -115 -328 -115q-68 0 -102.5 19t-34.5 45z" />
<glyph unicode="&#xdf;" horiz-adv-x="1308" d="M-182 -39q0 9 8 25q61 98 196.5 382.5t260 552.5t155.5 320q133 221 600 221q51 0 93.5 -2t95.5 -9t94.5 -19t83 -34t69.5 -51t45 -72t17 -97q0 -70 -22 -131t-57.5 -102.5t-78 -76.5t-85.5 -58.5t-78.5 -41.5t-57.5 -33t-22 -26q0 -17 19.5 -44t43 -55t43 -78.5 t19.5 -109.5q0 -96 -35 -177t-95.5 -137t-141.5 -95t-171.5 -57.5t-187.5 -18.5q-107 0 -145 27t-38 87q0 99 46 179.5t94 80.5q12 0 36 -14t54 -14q94 0 139 48t45 113q0 42 -17 71.5t-41 45.5t-48 29.5t-41 31.5t-17 42q0 53 31.5 111.5t65.5 82.5q15 10 59 25.5t89 33.5 t90 43t73.5 65.5t28.5 90.5q0 53 -32 79t-79 26q-36 0 -59 -3t-61 -21t-73 -52q-47 -46 -139 -226.5t-171.5 -362t-155 -359.5t-78.5 -185q-58 -116 -328 -116q-70 0 -104.5 19t-34.5 46z" />
<glyph unicode="&#xe0;" horiz-adv-x="1038" d="M-51 180q0 -87 58 -150t167 -63q68 0 121.5 21t82.5 53t43.5 63.5t14.5 57.5q0 17 -5 21.5t-19 4.5h-15q-63 0 -63 66q0 59 53 101t170 42q49 0 49 -16q0 -4 -4 -16q-5 -12 -49.5 -104.5t-65 -156.5t-20.5 -122q0 -107 97 -172.5t233 -65.5q98 0 98 37q0 9 -6 18 q-5 5 -12 16.5t-19 57.5t-12 104q0 82 36.5 194.5t81 203.5t81 183.5t36.5 139.5q0 123 -108.5 196t-343.5 73q-237 0 -318 -84q-25 -25 -44 -64.5t-19 -75.5q0 -34 22 -34q11 0 44.5 10.5t95.5 20.5t143 10q74 0 114 -16t40 -56q0 -39 -29 -39q-20 2 -64 2 q-94 0 -183.5 -14t-178.5 -48t-155 -85t-107 -132t-41 -182zM633 1309q0 49 110 49q28 0 44 -0.5t38 -4t32.5 -12t10.5 -22.5v-4q-5 -44 -7 -89t-2 -70t-1.5 -46.5t-7 -30t-16.5 -8.5q-39 0 -88 50t-81 106.5t-32 81.5z" />
<glyph unicode="&#xe1;" horiz-adv-x="1038" d="M-51 180q0 101 41 182t107 132t155 85t178.5 48t183.5 14q44 0 64 -2q29 0 29 39q0 40 -40 56t-114 16q-81 0 -143 -10t-95.5 -20.5t-44.5 -10.5q-22 0 -22 34q0 36 19 75.5t44 64.5q81 84 318 84q235 0 343.5 -73t108.5 -196q0 -47 -36.5 -139.5t-81 -183.5t-81 -203.5 t-36.5 -194.5q0 -58 11 -102.5t21 -60.5l11 -15q6 -9 6 -18q0 -37 -98 -37q-136 0 -233 65.5t-97 172.5q0 58 20.5 122t65 156.5t49.5 104.5q4 12 4 16q0 16 -49 16q-117 0 -170 -42t-53 -101q0 -66 63 -66h15q9 0 13.5 -1t7.5 -7t3 -18q0 -26 -14.5 -57.5t-43.5 -63.5 t-82.5 -53t-121.5 -21q-109 0 -167 63t-58 150zM768 1100q0 3 3 6.5l9 10.5t11 13q51 76 133 185q15 21 43.5 32t97.5 11q58 0 85.5 -2.5t33.5 -7t6 -13.5q0 -34 -68.5 -96t-162 -111t-154.5 -49q-17 0 -26 4t-10 7.5t-1 9.5z" />
<glyph unicode="&#xe2;" horiz-adv-x="1038" d="M-51 180q0 -87 58 -150t167 -63q68 0 121.5 21t82.5 53t43.5 63.5t14.5 57.5q0 17 -5 21.5t-19 4.5h-15q-63 0 -63 66q0 59 53 101t170 42q49 0 49 -16q0 -4 -4 -16q-5 -12 -49.5 -104.5t-65 -156.5t-20.5 -122q0 -107 97 -172.5t233 -65.5q98 0 98 37q0 9 -6 18 q-5 5 -12 16.5t-19 57.5t-12 104q0 82 36.5 194.5t81 203.5t81 183.5t36.5 139.5q0 123 -108.5 196t-343.5 73q-237 0 -318 -84q-25 -25 -44 -64.5t-19 -75.5q0 -34 22 -34q11 0 44.5 10.5t95.5 20.5t143 10q74 0 114 -16t40 -56q0 -39 -29 -39q-20 2 -64 2 q-94 0 -183.5 -14t-178.5 -48t-155 -85t-107 -132t-41 -182zM504 1092q0 4 3 8t10 11t11 13q25 30 86.5 100.5t73.5 82.5q19 24 57.5 34.5t135.5 10.5q47 0 69 -0.5t49.5 -3.5t38.5 -10.5t11 -20.5v-8q-12 -49 -21 -96t-12 -71t-7.5 -44t-10.5 -26.5t-17 -6.5 q-36 0 -74.5 40t-60.5 91q0 8 -6 8l-13 -6q-159 -125 -290 -125q-33 0 -33 19z" />
<glyph unicode="&#xe3;" horiz-adv-x="1038" d="M-51 180q0 -87 58 -150t167 -63q68 0 121.5 21t82.5 53t43.5 63.5t14.5 57.5q0 17 -5 21.5t-19 4.5h-15q-63 0 -63 66q0 59 53 101t170 42q49 0 49 -16q0 -4 -4 -16q-5 -12 -49.5 -104.5t-65 -156.5t-20.5 -122q0 -107 97 -172.5t233 -65.5q98 0 98 37q0 9 -6 18 q-5 5 -12 16.5t-19 57.5t-12 104q0 82 36.5 194.5t81 203.5t81 183.5t36.5 139.5q0 123 -108.5 196t-343.5 73q-237 0 -318 -84q-25 -25 -44 -64.5t-19 -75.5q0 -34 22 -34q11 0 44.5 10.5t95.5 20.5t143 10q74 0 114 -16t40 -56q0 -39 -29 -39q-20 2 -64 2 q-94 0 -183.5 -14t-178.5 -48t-155 -85t-107 -132t-41 -182zM602 1284q0 12 10 24.5t29 12.5q1 0 55 -12.5t127 -12.5q64 0 116.5 9.5t59.5 9.5q59 0 97.5 -47t38.5 -119v-7.5t-2.5 -16t-6.5 -20.5t-12.5 -16.5t-19.5 -7.5l-25 7q-25 8 -66.5 15t-82.5 7q-48 0 -100 -8 t-68 -8q-76 0 -113 60t-37 130z" />
<glyph unicode="&#xe4;" horiz-adv-x="1038" d="M-51 180q0 -87 58 -150t167 -63q68 0 121.5 21t82.5 53t43.5 63.5t14.5 57.5q0 17 -5 21.5t-19 4.5h-15q-63 0 -63 66q0 59 53 101t170 42q49 0 49 -16q0 -4 -4 -16q-5 -12 -49.5 -104.5t-65 -156.5t-20.5 -122q0 -107 97 -172.5t233 -65.5q98 0 98 37q0 9 -6 18 q-5 5 -12 16.5t-19 57.5t-12 104q0 82 36.5 194.5t81 203.5t81 183.5t36.5 139.5q0 123 -108.5 196t-343.5 73q-237 0 -318 -84q-25 -25 -44 -64.5t-19 -75.5q0 -34 22 -34q11 0 44.5 10.5t95.5 20.5t143 10q74 0 114 -16t40 -56q0 -39 -29 -39q-20 2 -64 2 q-94 0 -183.5 -14t-178.5 -48t-155 -85t-107 -132t-41 -182zM373 1182q0 59 61.5 101t128.5 42q60 0 96.5 -29.5t36.5 -70.5q0 -58 -58.5 -101t-129.5 -43q-60 0 -97.5 29.5t-37.5 71.5zM903 1182q0 59 62 101t129 42q60 0 96.5 -29.5t36.5 -70.5q0 -58 -59 -101t-130 -43 q-60 0 -97.5 29.5t-37.5 71.5z" />
<glyph unicode="&#xe5;" horiz-adv-x="1038" d="M-51 180q0 -87 58 -150t167 -63q68 0 121.5 21t82.5 53t43.5 63.5t14.5 57.5q0 17 -5 21.5t-19 4.5h-15q-63 0 -63 66q0 59 53 101t170 42q49 0 49 -16q0 -4 -4 -16q-5 -12 -49.5 -104.5t-65 -156.5t-20.5 -122q0 -107 97 -172.5t233 -65.5q98 0 98 37q0 9 -6 18 q-5 5 -12 16.5t-19 57.5t-12 104q0 82 36.5 194.5t81 203.5t81 183.5t36.5 139.5q0 123 -108.5 196t-343.5 73q-237 0 -318 -84q-25 -25 -44 -64.5t-19 -75.5q0 -34 22 -34q11 0 44.5 10.5t95.5 20.5t143 10q74 0 114 -16t40 -56q0 -39 -29 -39q-20 2 -64 2 q-94 0 -183.5 -14t-178.5 -48t-155 -85t-107 -132t-41 -182zM639 1182q0 55 41 97.5t94.5 61.5t102.5 19q74 0 119.5 -36t45.5 -89q0 -73 -73 -125.5t-164 -52.5q-74 0 -120 36t-46 89zM760 1198q0 -21 14.5 -34.5t40.5 -16.5q41 0 75 19.5t34 52.5q0 22 -19 35.5t-51 13.5 q-36 0 -65 -20.5t-29 -49.5z" />
<glyph unicode="&#xe6;" horiz-adv-x="1599" d="M-51 178q0 86 28 157t78.5 120t114.5 86t141.5 57.5t155 30.5t158.5 10h51q12 0 17.5 5.5t8.5 19.5q0 2 1.5 6t1.5 6q0 74 -154 74q-82 0 -144 -10t-95 -20.5t-44 -10.5q-13 0 -18.5 11.5t-5.5 20.5q0 37 19 77t44 65q84 84 320 84q231 0 350 -78q12 -6 16 -6l6 2 q152 76 355 76q34 0 71 -6t82 -23t79 -43t57.5 -72t23.5 -104q0 -102 -52 -185t-141.5 -136.5t-206.5 -82t-249 -28.5q-4 0 -7.5 -4.5t-4.5 -8.5l-2 -4q0 -96 202 -96q57 0 103 7.5t67.5 17t38.5 17t25 7.5q24 0 24 -27q0 -40 -25.5 -85t-58.5 -76q-60 -58 -138.5 -84.5 t-201.5 -26.5q-48 0 -90.5 5.5t-70 14t-48 16.5t-32 13.5t-13.5 5.5q-5 0 -8 -8q-4 -6 -18 -55q-3 -13 -6.5 -19.5t-20 -14t-45.5 -7.5q-85 0 -148 58.5t-63 123.5q0 14 3 31t11.5 40.5t15 40.5t21 49t21.5 47.5t26 54t25 51.5q4 12 4 14q0 16 -49 16q-117 0 -170 -42 t-53 -101q0 -29 15.5 -47.5t47.5 -18.5h17q13 0 17.5 -4t4.5 -20q0 -26 -14.5 -57.5t-43.5 -63.5t-82.5 -53t-121.5 -21q-108 0 -165.5 62t-57.5 149zM1040 535q0 -23 37 -23q107 0 179.5 45.5t72.5 116.5q0 53 -72 53q-60 0 -112.5 -36.5t-78.5 -80t-26 -75.5z" />
<glyph unicode="&#xe7;" horiz-adv-x="974" d="M10 281q0 49 11 106t37 123t65 128.5t99.5 121t135.5 102t179 70t223 26.5q53 0 103 -5.5t98 -16.5t77 -33t29 -51q0 -50 -32 -138t-70 -126q-23 -23 -47 -38.5t-79.5 -29.5t-131.5 -14q-52 0 -52 20q0 9 7 23q57 114 57 149q0 29 -64 29q-73 0 -136 -59.5t-96.5 -141 t-33.5 -157.5q0 -89 60 -135t161 -46q70 0 116.5 10t67 19.5t27.5 9.5q25 0 25 -32q0 -33 -24 -84.5t-52 -79.5q-55 -53 -122.5 -78.5t-170.5 -28.5q-29 -10 -41 -41q-2 -4 -2 -8q0 -2 0.5 -3t2.5 -2t3.5 -1.5t5 -1.5t5.5 -2q55 -20 55 -66q0 -13 -3 -27t-14.5 -33 t-30 -33.5t-53.5 -25t-81 -10.5q-24 0 -49 8t-25 25q0 15 12 34t21 19q1 0 19 -6t38 -6q28 0 43.5 11t15.5 30q0 13 -17.5 21.5t-34.5 11.5l-17 2q-25 0 -25 18q0 23 25.5 51t25.5 31l-2 6q-92 10 -161 44t-107.5 83.5t-57 106.5t-18.5 121z" />
<glyph unicode="&#xe8;" horiz-adv-x="993" d="M10 281q0 49 10.5 106t35.5 124t63 130t97.5 122t133.5 103t176.5 70.5t221.5 26.5q34 0 71 -6t82 -23t79 -43.5t57.5 -72.5t23.5 -105q0 -134 -90 -233.5t-235.5 -149t-323.5 -49.5q-4 0 -8 -3.5t-6 -7.5l-1 -4q0 -98 203 -98q58 0 104 7.5t67 17t38 17t25 7.5 q26 0 26 -24q0 -40 -25.5 -85.5t-58.5 -78.5q-59 -59 -137.5 -84t-204.5 -25q-114 0 -199 30.5t-132.5 83t-70 114.5t-22.5 133zM436 535q0 -13 8 -17t27 -4q108 0 181 44.5t73 115.5q0 53 -74 53q-88 0 -151.5 -68.5t-63.5 -123.5zM571 1309q0 49 111 49q28 0 44 -0.5 t38 -4t32.5 -12t10.5 -22.5v-4q-5 -44 -7.5 -89t-2.5 -70t-1.5 -46.5t-7 -30t-16.5 -8.5q-39 0 -88 50t-81 106.5t-32 81.5z" />
<glyph unicode="&#xe9;" horiz-adv-x="993" d="M10 281q0 49 10.5 106t35.5 124t63 130t97.5 122t133.5 103t176.5 70.5t221.5 26.5q34 0 71 -6t82 -23t79 -43.5t57.5 -72.5t23.5 -105q0 -134 -90 -233.5t-235.5 -149t-323.5 -49.5q-4 0 -8 -3.5t-6 -7.5l-1 -4q0 -98 203 -98q58 0 104 7.5t67 17t38 17t25 7.5 q26 0 26 -24q0 -40 -25.5 -85.5t-58.5 -78.5q-59 -59 -137.5 -84t-204.5 -25q-114 0 -199 30.5t-132.5 83t-70 114.5t-22.5 133zM436 535q0 -13 8 -17t27 -4q108 0 181 44.5t73 115.5q0 53 -74 53q-88 0 -151.5 -68.5t-63.5 -123.5zM717 1100q0 3 2.5 6.5t9 10.5t10.5 13 q51 76 133 185q15 21 44 32t98 11q58 0 85.5 -2.5t33.5 -7t6 -13.5q0 -34 -68.5 -96t-162 -111t-154.5 -49q-17 0 -26 4t-10 7.5t-1 9.5z" />
<glyph unicode="&#xea;" horiz-adv-x="993" d="M10 281q0 49 10.5 106t35.5 124t63 130t97.5 122t133.5 103t176.5 70.5t221.5 26.5q34 0 71 -6t82 -23t79 -43.5t57.5 -72.5t23.5 -105q0 -134 -90 -233.5t-235.5 -149t-323.5 -49.5q-4 0 -8 -3.5t-6 -7.5l-1 -4q0 -98 203 -98q58 0 104 7.5t67 17t38 17t25 7.5 q26 0 26 -24q0 -40 -25.5 -85.5t-58.5 -78.5q-59 -59 -137.5 -84t-204.5 -25q-114 0 -199 30.5t-132.5 83t-70 114.5t-22.5 133zM436 535q0 -13 8 -17t27 -4q108 0 181 44.5t73 115.5q0 53 -74 53q-88 0 -151.5 -68.5t-63.5 -123.5zM481 1092q0 4 3.5 8t10 11t11.5 13 q25 30 86.5 100.5t73.5 82.5q19 24 57 34.5t135 10.5q46 0 68 -0.5t50 -3.5t39 -10.5t11 -20.5v-8q-12 -49 -21 -96t-12 -71t-7.5 -44t-10.5 -26.5t-17 -6.5q-36 0 -74.5 40t-60.5 91q0 8 -6 8l-12 -6q-159 -125 -291 -125q-33 0 -33 19z" />
<glyph unicode="&#xeb;" horiz-adv-x="993" d="M10 281q0 49 10.5 106t35.5 124t63 130t97.5 122t133.5 103t176.5 70.5t221.5 26.5q34 0 71 -6t82 -23t79 -43.5t57.5 -72.5t23.5 -105q0 -134 -90 -233.5t-235.5 -149t-323.5 -49.5q-4 0 -8 -3.5t-6 -7.5l-1 -4q0 -98 203 -98q58 0 104 7.5t67 17t38 17t25 7.5 q26 0 26 -24q0 -40 -25.5 -85.5t-58.5 -78.5q-59 -59 -137.5 -84t-204.5 -25q-114 0 -199 30.5t-132.5 83t-70 114.5t-22.5 133zM369 1182q0 59 61.5 101t128.5 42q60 0 96.5 -29.5t36.5 -70.5q0 -58 -58.5 -101t-129.5 -43q-60 0 -97.5 29.5t-37.5 71.5zM436 535 q0 -13 8 -17t27 -4q108 0 181 44.5t73 115.5q0 53 -74 53q-88 0 -151.5 -68.5t-63.5 -123.5zM899 1182q0 59 62 101t129 42q60 0 96.5 -29.5t36.5 -70.5q0 -58 -59 -101t-130 -43q-60 0 -97.5 29.5t-37.5 71.5z" />
<glyph unicode="&#xec;" horiz-adv-x="559" d="M-92 -12q0 -107 98 -176.5t234 -69.5q96 0 96 37q0 9 -6 18q-5 5 -12 16.5t-19 57.5t-12 104q0 40 13 94.5t40 123t52 126.5t66 139t63.5 124.5t62.5 118t47 87.5q5 11 16.5 31t18 33.5t6.5 21.5q0 18 -16.5 31t-42 18t-43 7t-31.5 2q-156 0 -226 -32.5t-90 -98.5 q-16 -55 -97.5 -228.5t-149.5 -340t-68 -244.5zM461 1309q0 49 110 49q28 0 44 -0.5t38 -4t32.5 -12t10.5 -22.5v-4q-5 -44 -7 -89t-2 -70t-1.5 -46.5t-7 -30t-16.5 -8.5q-39 0 -88 50t-81 106.5t-32 81.5z" />
<glyph unicode="&#xed;" horiz-adv-x="559" d="M-92 -12q0 78 68 244.5t149.5 340t97.5 228.5q20 66 90 98.5t226 32.5q14 0 31.5 -2t43 -7t42 -18t16.5 -31q0 -8 -6.5 -21.5t-18 -33.5t-16.5 -31q-7 -13 -47 -87.5t-62.5 -118t-63.5 -124.5t-66 -139t-52 -126.5t-40 -123t-13 -94.5q0 -58 10.5 -102.5t21.5 -60.5 l11 -15q6 -9 6 -18q0 -37 -96 -37q-136 0 -234 69.5t-98 176.5zM479 1100q0 3 3 6.5l9 10.5t11 13q51 76 133 185q15 21 43.5 32t97.5 11q58 0 85.5 -2.5t33.5 -7t6 -13.5q0 -34 -68.5 -96t-162 -111t-154.5 -49q-17 0 -26 4t-10 7.5t-1 9.5z" />
<glyph unicode="&#xee;" horiz-adv-x="559" d="M-92 -12q0 -107 98 -176.5t234 -69.5q96 0 96 37q0 9 -6 18q-5 5 -12 16.5t-19 57.5t-12 104q0 40 13 94.5t40 123t52 126.5t66 139t63.5 124.5t62.5 118t47 87.5q5 11 16.5 31t18 33.5t6.5 21.5q0 18 -16.5 31t-42 18t-43 7t-31.5 2q-156 0 -226 -32.5t-90 -98.5 q-16 -55 -97.5 -228.5t-149.5 -340t-68 -244.5zM264 1092q0 4 3.5 8t10 11t11.5 13q25 30 86.5 100.5t73.5 82.5q19 24 57 34.5t135 10.5q47 0 69 -0.5t49.5 -3.5t38.5 -10.5t11 -20.5v-8q-12 -49 -21 -96t-12 -71t-7.5 -44t-10.5 -26.5t-17 -6.5q-36 0 -74.5 40t-60.5 91 q0 8 -6 8l-12 -6q-159 -125 -291 -125q-33 0 -33 19z" />
<glyph unicode="&#xef;" horiz-adv-x="559" d="M-92 -12q0 -107 98 -176.5t234 -69.5q96 0 96 37q0 9 -6 18q-5 5 -12 16.5t-19 57.5t-12 104q0 40 13 94.5t40 123t52 126.5t66 139t63.5 124.5t62.5 118t47 87.5q5 11 16.5 31t18 33.5t6.5 21.5q0 18 -16.5 31t-42 18t-43 7t-31.5 2q-156 0 -226 -32.5t-90 -98.5 q-16 -55 -97.5 -228.5t-149.5 -340t-68 -244.5zM131 1182q0 59 62 101t129 42q60 0 96.5 -29.5t36.5 -70.5q0 -58 -59 -101t-130 -43q-60 0 -97.5 29.5t-37.5 71.5zM662 1182q0 59 61.5 101t128.5 42q60 0 96.5 -29.5t36.5 -70.5q0 -58 -58.5 -101t-129.5 -43 q-60 0 -97.5 29.5t-37.5 71.5z" />
<glyph unicode="&#xf0;" horiz-adv-x="1103" d="M-20 209q0 70 22 150t62.5 162.5t104.5 157.5t142.5 134t182.5 94t217 35q45 0 81 -6t53.5 -12.5t30.5 -12.5t17 -6q2 0 4 2.5t4.5 6t3.5 4.5q37 79 56 129l-78 -17h-11q-28 0 -28 33q0 44 22 97t64 61q31 6 78 14q0 10 1 29.5t1 31.5q0 52 -14 90.5t-28 61.5t-14 37 q0 37 84 37q44 0 96.5 -10.5t108.5 -33t97 -65t49 -98.5l88 22h6q22 0 22 -37q0 -65 -35 -116q-14 -23 -38.5 -33.5t-77.5 -20.5q-20 -52 -101 -223q-5 -11 -45.5 -92t-65 -132.5t-67.5 -144t-71.5 -162t-57.5 -149t-44 -143t-15 -107.5q0 -58 10.5 -102.5t21.5 -60.5 l11 -15q6 -9 6 -18q0 -37 -98 -37q-136 0 -233 65.5t-97 172.5q0 59 36.5 158t81 187t81 177t36.5 131q0 43 -57 43q-87 0 -160.5 -49.5t-111 -118.5t-37.5 -135q0 -22 7 -38t16 -24t24 -12.5t25.5 -5t25.5 -0.5h17q13 0 18.5 -4.5t5.5 -20.5q0 -27 -13 -62.5t-41 -75.5 t-66.5 -74t-97 -56t-124.5 -22q-54 0 -94.5 23.5t-61 60.5t-29.5 73.5t-9 71.5z" />
<glyph unicode="&#xf1;" d="M-123 33q0 -53 160 -53q92 0 149.5 21t87.5 77q6 11 31 67.5t50.5 112.5t67.5 127t83.5 124t95.5 89.5t107 36.5q63 0 63 -57q0 -30 -37.5 -107.5t-82.5 -158t-82.5 -174.5t-37.5 -154q0 -105 97.5 -171.5t232.5 -66.5q8 0 19.5 1t30.5 4t31.5 11.5t12.5 20.5q0 9 -6 18 q-5 6 -11.5 18t-18 59.5t-11.5 105.5q0 60 46 172t100.5 216.5t100.5 216.5t46 171q0 54 -16.5 94t-39.5 61t-58.5 33.5t-63.5 15.5t-63 3q-60 0 -121.5 -18.5t-105.5 -45t-68.5 -44t-32.5 -25.5q-13 -13 -19 -13t-6 8q0 2 5 22t5 36q0 46 -28.5 78.5t-74 47t-86 20 t-81.5 5.5q-48 0 -61 -10t-13 -35v-14q0 -122 -178 -498q-119 -243 -213 -426q-6 -12 -6 -22zM649 1284q0 12 10 24.5t29 12.5q2 0 55 -12.5t127 -12.5q64 0 117 9.5t60 9.5q59 0 97 -47t38 -119v-7.5t-2.5 -16t-6.5 -20.5t-12.5 -16.5t-19.5 -7.5l-25 7q-25 8 -66.5 15 t-82.5 7q-48 0 -100 -8t-68 -8q-76 0 -113 60t-37 130z" />
<glyph unicode="&#xf2;" d="M10 303q0 52 12 110t40 124t70.5 127t109.5 118t149.5 99t197 67t247.5 25q110 0 217.5 -27.5t107.5 -66.5q0 -23 -27 -56t-57 -55q-18 -15 -18 -20q0 -6 12.5 -21.5t27.5 -35.5t27.5 -64t12.5 -99q0 -85 -28 -169t-86 -160.5t-139 -135.5t-196.5 -94t-249.5 -35 q-27 0 -57.5 3t-74 13t-82.5 26t-79.5 44.5t-70 65.5t-48 93.5t-18.5 123.5zM375 303q0 -129 117 -129q67 0 125 42t94 105t56.5 130.5t20.5 123.5q0 70 -27 102t-71 32q-67 0 -128 -42t-100.5 -105t-63 -132t-23.5 -127zM649 1309q0 49 111 49q28 0 44 -0.5t38 -4t32.5 -12 t10.5 -22.5v-4q-5 -44 -7.5 -89t-2.5 -70t-1.5 -46.5t-7 -30t-16.5 -8.5q-39 0 -88 50t-81 106.5t-32 81.5z" />
<glyph unicode="&#xf3;" d="M10 303q0 52 12 110t40 124t70.5 127t109.5 118t149.5 99t197 67t247.5 25q110 0 217.5 -27.5t107.5 -66.5q0 -23 -27 -56t-57 -55q-18 -15 -18 -20q0 -6 12.5 -21.5t27.5 -35.5t27.5 -64t12.5 -99q0 -85 -28 -169t-86 -160.5t-139 -135.5t-196.5 -94t-249.5 -35 q-27 0 -57.5 3t-74 13t-82.5 26t-79.5 44.5t-70 65.5t-48 93.5t-18.5 123.5zM375 303q0 -129 117 -129q67 0 125 42t94 105t56.5 130.5t20.5 123.5q0 70 -27 102t-71 32q-67 0 -128 -42t-100.5 -105t-63 -132t-23.5 -127zM795 1100q0 3 2.5 6.5t9 10.5t10.5 13 q51 76 133 185q15 21 44 32t98 11q58 0 85.5 -2.5t33.5 -7t6 -13.5q0 -34 -69 -96t-162.5 -111t-154.5 -49q-17 0 -25.5 4t-9.5 7.5t-1 9.5z" />
<glyph unicode="&#xf4;" d="M10 303q0 52 12 110t40 124t70.5 127t109.5 118t149.5 99t197 67t247.5 25q110 0 217.5 -27.5t107.5 -66.5q0 -23 -27 -56t-57 -55q-18 -15 -18 -20q0 -6 12.5 -21.5t27.5 -35.5t27.5 -64t12.5 -99q0 -85 -28 -169t-86 -160.5t-139 -135.5t-196.5 -94t-249.5 -35 q-27 0 -57.5 3t-74 13t-82.5 26t-79.5 44.5t-70 65.5t-48 93.5t-18.5 123.5zM375 303q0 -129 117 -129q67 0 125 42t94 105t56.5 130.5t20.5 123.5q0 70 -27 102t-71 32q-67 0 -128 -42t-100.5 -105t-63 -132t-23.5 -127zM559 1092q0 4 3.5 8t10 11t11.5 13 q25 31 86.5 101.5t72.5 81.5q19 24 57.5 34.5t135.5 10.5q46 0 68 -0.5t50 -3.5t39 -10.5t11 -20.5v-8q-12 -49 -21 -96t-12 -71t-7.5 -44t-10.5 -26.5t-17 -6.5q-36 0 -74.5 40t-60.5 91q0 8 -6 8l-12 -6q-159 -125 -291 -125q-33 0 -33 19z" />
<glyph unicode="&#xf5;" d="M10 303q0 52 12 110t40 124t70.5 127t109.5 118t149.5 99t197 67t247.5 25q110 0 217.5 -27.5t107.5 -66.5q0 -23 -27 -56t-57 -55q-18 -15 -18 -20q0 -6 12.5 -21.5t27.5 -35.5t27.5 -64t12.5 -99q0 -85 -28 -169t-86 -160.5t-139 -135.5t-196.5 -94t-249.5 -35 q-27 0 -57.5 3t-74 13t-82.5 26t-79.5 44.5t-70 65.5t-48 93.5t-18.5 123.5zM375 303q0 -129 117 -129q67 0 125 42t94 105t56.5 130.5t20.5 123.5q0 70 -27 102t-71 32q-67 0 -128 -42t-100.5 -105t-63 -132t-23.5 -127zM670 1284q0 12 10 24.5t29 12.5q1 0 55 -12.5 t127 -12.5q64 0 116.5 9.5t59.5 9.5q59 0 97 -47t38 -119v-7.5t-2.5 -16t-6.5 -20.5t-12.5 -16.5t-19.5 -7.5l-25 7q-25 8 -66.5 15t-82.5 7q-48 0 -100 -8t-68 -8q-53 0 -88.5 33t-48 73.5t-12.5 83.5z" />
<glyph unicode="&#xf6;" d="M10 303q0 52 12 110t40 124t70.5 127t109.5 118t149.5 99t197 67t247.5 25q110 0 217.5 -27.5t107.5 -66.5q0 -23 -27 -56t-57 -55q-18 -15 -18 -20q0 -6 12.5 -21.5t27.5 -35.5t27.5 -64t12.5 -99q0 -85 -28 -169t-86 -160.5t-139 -135.5t-196.5 -94t-249.5 -35 q-27 0 -57.5 3t-74 13t-82.5 26t-79.5 44.5t-70 65.5t-48 93.5t-18.5 123.5zM375 303q0 -129 117 -129q67 0 125 42t94 105t56.5 130.5t20.5 123.5q0 70 -27 102t-71 32q-67 0 -128 -42t-100.5 -105t-63 -132t-23.5 -127zM434 1182q0 59 62 101t129 42q60 0 96.5 -29.5 t36.5 -70.5q0 -58 -59 -101t-130 -43q-60 0 -97.5 29.5t-37.5 71.5zM965 1182q0 59 61.5 101t128.5 42q60 0 96.5 -29.5t36.5 -70.5q0 -58 -58.5 -101t-129.5 -43q-60 0 -97.5 29.5t-37.5 71.5z" />
<glyph unicode="&#xf7;" horiz-adv-x="755" d="M-133 633q0 16 9 43t25.5 57.5t46 52t64.5 21.5q746 2 832 6q47 0 47 -35q0 -26 -14.5 -65.5t-45 -74t-65.5 -34.5q-4 0 -115 2t-164 2q-101 0 -238 -1.5t-236.5 -3t-108.5 -1.5q-17 0 -26 6.5t-10 11.5t-1 13zM23 297q0 63 63 102t127 39q59 0 96 -29t37 -71 q0 -58 -58 -99.5t-128 -41.5q-61 0 -99 28.5t-38 71.5zM379 1055q0 44 32.5 77.5t74 48.5t81.5 15q60 0 97.5 -29t37.5 -71q0 -57 -59 -99.5t-131 -42.5q-59 0 -96 29.5t-37 71.5z" />
<glyph unicode="&#xf8;" d="M-18 -117q0 9 18 33q9 12 117 127q-107 96 -107 260q0 52 12 110t40 124t70.5 127t109.5 118t149.5 99t197 67t247.5 25q56 0 131 -10q56 56 92 88q6 4 15 13.5t14.5 13t19 8.5t34.5 6.5t54 1.5q38 0 49.5 -6t11.5 -25q0 -13 -16 -39l-106 -111q26 -16 26 -34 q0 -23 -27 -56t-57 -55q-18 -15 -18 -20q0 -6 12.5 -21.5t27.5 -35.5t27.5 -64t12.5 -99q0 -85 -28 -169t-86 -160.5t-139 -135.5t-196.5 -94t-249.5 -35q-91 0 -180 31q-31 -35 -37 -45q-36 -44 -69.5 -57t-92.5 -13q-35 0 -53.5 5.5t-22 11.5t-3.5 16zM375 328 q15 17 147.5 161.5t198.5 215.5q-20 4 -31 4q-63 0 -121.5 -38t-98 -96t-65 -123t-30.5 -124zM451 178q28 -4 41 -4q62 0 117 36.5t91 93t58.5 118.5t27.5 119q-213 -227 -335 -363z" />
<glyph unicode="&#xf9;" horiz-adv-x="1110" d="M-45 170q0 -90 49 -147.5t139 -57.5q81 0 183.5 46.5t191.5 138.5q6 2 10 2q9 0 9 -7q-35 -104 -35 -161q0 -107 97 -176.5t232 -69.5q99 0 99 37q0 9 -6 18q-5 5 -12 16.5t-19 57.5t-12 104q0 64 36 176.5t78.5 211t106 226.5t87.5 173t54 100q8 13 8 29q0 29 -37.5 41 t-83.5 12q-84 0 -137 -7.5t-86.5 -26.5t-50.5 -43t-35 -66q-4 -10 -17.5 -46t-24.5 -64.5t-31 -71.5t-39 -76t-46 -69.5t-54.5 -60.5t-63 -39.5t-72.5 -15.5q-32 0 -44.5 19t-12.5 37q0 42 46 136t92 187.5t46 134.5q0 53 -33 88q-34 34 -99 51t-138 17q-37 0 -54.5 -8 t-20.5 -17.5t-3 -31.5q0 -116 -102 -328q-23 -49 -59 -123t-55.5 -115t-41 -90t-30.5 -82.5t-9 -58.5zM629 1309q0 49 110 49q28 0 44 -0.5t38 -4t32.5 -12t10.5 -22.5v-4q-5 -44 -7.5 -89t-2.5 -70t-1.5 -46.5t-7 -30t-16.5 -8.5q-39 0 -88 50t-80.5 106.5t-31.5 81.5z" />
<glyph unicode="&#xfa;" horiz-adv-x="1110" d="M-45 170q0 25 9 58.5t30.5 82.5t41 90t55.5 115t59 123q102 212 102 328q0 22 3 31.5t20.5 17.5t54.5 8q73 0 138 -17t99 -51q33 -35 33 -88q0 -41 -46 -134.5t-92 -187.5t-46 -136q0 -10 3.5 -21t17.5 -23t36 -12q37 0 72.5 15.5t63 39.5t54.5 60.5t46 69.5t39 76 t31 71.5t24.5 64.5t17.5 46q18 42 35 66t50.5 43t86.5 26.5t137 7.5q46 0 83.5 -12t37.5 -41q0 -16 -8 -29q-30 -55 -54 -100t-87.5 -173t-106 -226.5t-78.5 -211t-36 -176.5q0 -58 10.5 -102.5t21.5 -60.5l11 -15q6 -9 6 -18q0 -37 -99 -37q-135 0 -232 69.5t-97 176.5 q0 57 35 161q0 7 -9 7l-10 -2q-89 -92 -191.5 -138.5t-183.5 -46.5q-90 0 -139 57.5t-49 147.5zM795 1100q0 3 2.5 6.5t9 10.5t10.5 13q51 76 133 185q15 21 44 32t98 11q58 0 85.5 -2.5t33.5 -7t6 -13.5q0 -34 -69 -96t-162.5 -111t-154.5 -49q-17 0 -25.5 4t-9.5 7.5 t-1 9.5z" />
<glyph unicode="&#xfb;" horiz-adv-x="1110" d="M-45 170q0 -90 49 -147.5t139 -57.5q81 0 183.5 46.5t191.5 138.5q6 2 10 2q9 0 9 -7q-35 -104 -35 -161q0 -107 97 -176.5t232 -69.5q99 0 99 37q0 9 -6 18q-5 5 -12 16.5t-19 57.5t-12 104q0 64 36 176.5t78.5 211t106 226.5t87.5 173t54 100q8 13 8 29q0 29 -37.5 41 t-83.5 12q-84 0 -137 -7.5t-86.5 -26.5t-50.5 -43t-35 -66q-4 -10 -17.5 -46t-24.5 -64.5t-31 -71.5t-39 -76t-46 -69.5t-54.5 -60.5t-63 -39.5t-72.5 -15.5q-32 0 -44.5 19t-12.5 37q0 42 46 136t92 187.5t46 134.5q0 53 -33 88q-34 34 -99 51t-138 17q-37 0 -54.5 -8 t-20.5 -17.5t-3 -31.5q0 -116 -102 -328q-23 -49 -59 -123t-55.5 -115t-41 -90t-30.5 -82.5t-9 -58.5zM539 1092q0 4 3 8t10 11t11 13q25 30 86.5 100.5t73.5 82.5q19 24 57 34.5t135 10.5q47 0 69 -0.5t49.5 -3.5t38.5 -10.5t11 -20.5v-8q-12 -49 -21 -96t-12 -71t-7 -44 t-10 -26.5t-17 -6.5q-36 0 -74.5 40t-60.5 91q0 8 -7 8l-12 -6q-159 -125 -291 -125q-32 0 -32 19z" />
<glyph unicode="&#xfc;" horiz-adv-x="1110" d="M-45 170q0 -90 49 -147.5t139 -57.5q81 0 183.5 46.5t191.5 138.5q6 2 10 2q9 0 9 -7q-35 -104 -35 -161q0 -107 97 -176.5t232 -69.5q99 0 99 37q0 9 -6 18q-5 5 -12 16.5t-19 57.5t-12 104q0 64 36 176.5t78.5 211t106 226.5t87.5 173t54 100q8 13 8 29q0 29 -37.5 41 t-83.5 12q-84 0 -137 -7.5t-86.5 -26.5t-50.5 -43t-35 -66q-4 -10 -17.5 -46t-24.5 -64.5t-31 -71.5t-39 -76t-46 -69.5t-54.5 -60.5t-63 -39.5t-72.5 -15.5q-32 0 -44.5 19t-12.5 37q0 42 46 136t92 187.5t46 134.5q0 53 -33 88q-34 34 -99 51t-138 17q-37 0 -54.5 -8 t-20.5 -17.5t-3 -31.5q0 -116 -102 -328q-23 -49 -59 -123t-55.5 -115t-41 -90t-30.5 -82.5t-9 -58.5zM350 1182q0 59 62 101t129 42q60 0 96.5 -29.5t36.5 -70.5q0 -58 -59 -101t-130 -43q-60 0 -97.5 29.5t-37.5 71.5zM881 1182q0 59 61.5 101t128.5 42q60 0 96.5 -29.5 t36.5 -70.5q0 -58 -58.5 -101t-129.5 -43q-60 0 -97.5 29.5t-37.5 71.5z" />
<glyph unicode="&#xfd;" horiz-adv-x="1110" d="M-334 -381q0 72 25.5 125t58.5 53q12 0 25 -12.5t31.5 -29.5t46 -34.5t79 -30t119.5 -12.5q88 0 149.5 28.5t125.5 92.5q63 63 143 199q21 34 37.5 66.5t23.5 50t7 22.5v6q0 9 -9 9l-10 -2q-106 -88 -188 -120t-166 -32q-90 0 -139.5 55t-49.5 144q0 18 3.5 38.5t13 49 t18.5 51.5t27.5 64.5t30.5 68t38 82t41 88.5q103 223 103 328q0 22 3 31.5t20.5 17.5t54.5 8q167 0 235 -68q35 -35 35 -88q0 -41 -45.5 -134.5t-91 -187.5t-45.5 -136q0 -10 3.5 -21.5t17.5 -24t36 -12.5q33 0 65 13t57.5 31t52 50.5t44.5 58t39 67.5t32 65.5t26.5 65 t19.5 53t14 41.5q19 55 46.5 83t89 43t171.5 15q123 0 123 -49q0 -11 -10 -31q-53 -100 -197 -394t-215 -468q-41 -92 -65 -143t-70 -134.5t-85 -132t-100 -108t-125 -91.5t-151 -54.5t-186 -22.5q-85 0 -153.5 23.5t-110 58t-69.5 78t-39 81t-11 68.5zM741 1100q0 3 3 6.5 l9 10.5t11 13q51 76 133 185q15 21 43.5 32t97.5 11q58 0 85.5 -2.5t33.5 -7t6 -13.5q0 -34 -68.5 -96t-162 -111t-154.5 -49q-17 0 -26 4t-10 7.5t-1 9.5z" />
<glyph unicode="&#xfe;" horiz-adv-x="1101" d="M-471 -580q0 15 4 21q3 6 39 53t93.5 140.5t117.5 218.5q635 1326 635 1505q0 36 -1.5 61t-3.5 34.5t-3.5 17t-1.5 12.5q0 19 20 24.5t64 5.5q43 0 93.5 -14t97.5 -38.5t78.5 -65.5t31.5 -88q0 -59 -40.5 -155t-117.5 -247q8 6 24 14.5t71.5 22.5t119.5 14q48 0 92 -18 t81 -54t59 -98.5t22 -142.5q0 -126 -59.5 -289t-170.5 -274q-74 -74 -138.5 -101.5t-147.5 -27.5q-67 0 -130 55t-63 144q0 44 21 100q12 29 27 42t26 13q7 0 27 -9t53 -9q62 0 113 54t76.5 128t25.5 145q0 32 -18 58t-58 26q-33 0 -66 -16.5t-59.5 -39.5t-56.5 -64t-50 -74 t-46 -86t-39 -83t-36 -83.5t-30 -69.5q-262 -595 -270 -614q-29 -68 -87 -115.5t-123 -67.5t-134 -20q-162 0 -162 55z" />
<glyph unicode="&#xff;" horiz-adv-x="1110" d="M-334 -381q0 -31 11 -68.5t39 -81t69.5 -78t110 -58t153.5 -23.5q99 0 186 22.5t151 54.5t125 91.5t100 108t85 132t70 134.5t65 143q71 174 215 468t197 394q10 20 10 31q0 49 -123 49q-110 0 -171.5 -15t-89 -43t-46.5 -83q-10 -30 -14 -41.5t-19.5 -53t-26.5 -65 t-32 -65.5t-39 -67.5t-44.5 -58t-52 -50.5t-57.5 -31t-65 -13q-32 0 -44.5 20t-12.5 38q0 42 45.5 136t91 187.5t45.5 134.5q0 53 -35 88q-68 68 -235 68q-37 0 -54.5 -8t-20.5 -17.5t-3 -31.5q0 -105 -103 -328q-15 -33 -41 -88.5t-38 -82t-30.5 -68t-27.5 -64.5 t-18.5 -51.5t-13 -49t-3.5 -38.5q0 -89 49.5 -144t139.5 -55q84 0 166 32t188 120q6 2 10 2q9 0 9 -9v-6q0 -5 -7 -22.5t-23.5 -50t-37.5 -66.5q-80 -136 -143 -199q-64 -64 -125.5 -92.5t-149.5 -28.5q-68 0 -119.5 12.5t-79 30t-46 34.5t-31.5 29.5t-25 12.5 q-33 0 -58.5 -53t-25.5 -125zM375 1182q0 59 61.5 101t128.5 42q60 0 96.5 -29.5t36.5 -70.5q0 -58 -58.5 -101t-129.5 -43q-60 0 -97.5 29.5t-37.5 71.5zM905 1182q0 59 62 101t129 42q60 0 96.5 -29.5t36.5 -70.5q0 -58 -59 -101t-130 -43q-60 0 -97.5 29.5t-37.5 71.5z " />
<glyph unicode="&#x152;" horiz-adv-x="2052" d="M51 377q0 106 22 209t51.5 175t66.5 136.5t60 94.5t40 48q50 50 110 50h19l4 8q15 29 27.5 50t42.5 62t61 70.5t82 65.5t108 59t136 39t168 16q88 0 169 -24t134 -62q8 -8 18 -8q11 0 19 8q19 26 55 29q175 20 526 20q173 0 259.5 -17.5t86.5 -62.5q0 -62 -25 -120 t-50 -85l-25 -28q-14 -14 -33 -14q-3 0 -57.5 7t-120.5 7h-49q-190 0 -240 -43q-31 -25 -66.5 -90t-35.5 -90v-3t3 -7t7.5 -9t16 -7t26.5 -3h88q75 0 157 2t85 2q39 0 39 -37q0 -49 -47.5 -127.5t-79.5 -101.5q-11 -8 -30.5 -13t-33.5 -7l-14 -1q-18 3 -47 3h-103 q-188 0 -215 -27q-29 -31 -64.5 -112.5t-35.5 -102.5q0 -13 2.5 -22t11.5 -19.5t31 -16.5t55 -6q57 -2 129 -2q209 0 281 17q24 6 39 6q33 0 33 -29q0 -37 -51 -129.5t-101 -132.5q-42 -34 -137 -44.5t-273 -10.5h-217q-198 0 -290 30q-152 -43 -316 -43q-123 0 -222 35.5 t-161.5 96.5t-95.5 140.5t-33 170.5zM477 406q0 -67 37.5 -113.5t116.5 -46.5q91 0 181.5 77t154 190t103.5 241.5t40 232.5q0 93 -25 129.5t-88 36.5q-56 0 -110 -40.5t-91 -97.5t-65.5 -114.5t-42.5 -98.5l-14 -40q-9 -21 -35 -21q-12 0 -25.5 3.5t-21.5 7.5l-8 4 q-4 -6 -11.5 -17t-26 -47t-32.5 -74.5t-25.5 -96.5t-11.5 -115z" />
<glyph unicode="&#x153;" horiz-adv-x="1728" d="M10 303q0 52 11 109.5t37 122t64.5 124.5t97.5 115.5t131.5 96.5t171.5 65.5t212 24.5q190 0 293 -111q6 -8 16 -8q5 0 13 4q6 5 17.5 12.5t51 27.5t83 35t112 27.5t139.5 12.5q89 0 163 -25.5t123.5 -82.5t49.5 -136q0 -86 -41.5 -163.5t-119.5 -138.5t-202 -97.5 t-276 -36.5q-12 -2 -17.5 -6t-6 -6.5t-0.5 -8.5q0 -12 2.5 -21.5t15 -24t34.5 -23.5t65.5 -16t103.5 -7q53 0 94 7.5t60.5 17t37 17t27.5 7.5h5.5t9 -6t5.5 -18q0 -8 -3 -23t-13.5 -41.5t-27.5 -53.5t-49 -56t-73 -51t-105 -36t-140 -14q-71 0 -130.5 11t-95 26t-60.5 30.5 t-34 26.5l-10 11q-6 6 -14 6l-21 -6q-165 -89 -379 -89q-27 0 -57.5 3t-73.5 13t-82 26t-79.5 44.5t-69.5 65.5t-47.5 93.5t-18.5 123.5zM375 303q0 -129 114 -129q67 0 125 42.5t94.5 105.5t57 131.5t20.5 124.5q0 69 -27 100t-71 31q-67 0 -127.5 -42t-100 -105 t-62.5 -132t-23 -127zM1169 532q0 -20 31 -20q40 0 82.5 8.5t83.5 26.5t67.5 50.5t26.5 74.5q0 17 -9.5 29t-23.5 17t-24.5 7t-18.5 2q-81 0 -148 -67t-67 -128z" />
<glyph unicode="&#x178;" horiz-adv-x="1153" d="M-8 -14q0 -27 36 -47.5t103 -20.5q64 0 110 3t104 12t97 31t56 56q0 1 28.5 76.5t61.5 152t97 179.5t136 174q140 156 402.5 415t365.5 347q15 15 15 27q0 29 -62.5 49t-140.5 20q-247 0 -303 -90q-27 -42 -171.5 -208.5t-232.5 -250.5q-22 -22 -43 -22q-14 0 -14 76 q0 71 11 224.5t11 178.5q0 52 -53 86.5t-118.5 46.5t-135.5 12q-170 0 -170 -61q62 -422 62 -700q0 -84 -6 -146q-10 -90 -70.5 -240.5t-110.5 -249t-59 -110.5q-6 -9 -6 -20zM606 1630q0 59 62 101.5t129 42.5q59 0 96 -30t37 -71q0 -58 -59 -100.5t-130 -42.5 q-60 0 -97.5 29t-37.5 71zM1137 1630q0 60 61.5 102t128.5 42q59 0 96 -30t37 -71q0 -58 -58.5 -100.5t-129.5 -42.5q-60 0 -97.5 29t-37.5 71z" />
<glyph unicode="&#x2c6;" horiz-adv-x="1038" d="M500 1092q0 4 3 8t10 11t11 13q25 30 86.5 100.5t73.5 82.5q19 24 57.5 34.5t135.5 10.5q46 0 68 -0.5t49.5 -3.5t38.5 -10.5t11 -20.5v-8q-12 -49 -21 -96t-12 -71t-7 -44t-10 -26.5t-17 -6.5q-36 0 -74.5 40t-60.5 91q0 8 -6 8l-13 -6q-159 -125 -291 -125 q-32 0 -32 19z" />
<glyph unicode="&#x2dc;" horiz-adv-x="1159" d="M639 1284q0 12 10 24.5t29 12.5q2 0 55 -12.5t127 -12.5q64 0 116.5 9.5t59.5 9.5q59 0 97 -47t38 -119v-7.5t-2.5 -16t-6.5 -20.5t-12.5 -16.5t-19.5 -7.5l-25 7q-25 8 -66.5 15t-82.5 7q-48 0 -100 -8t-68 -8q-53 0 -88.5 33t-48 73.5t-12.5 83.5z" />
<glyph unicode="&#x2000;" horiz-adv-x="919" />
<glyph unicode="&#x2001;" horiz-adv-x="1839" />
<glyph unicode="&#x2002;" horiz-adv-x="919" />
<glyph unicode="&#x2003;" horiz-adv-x="1839" />
<glyph unicode="&#x2004;" horiz-adv-x="613" />
<glyph unicode="&#x2005;" horiz-adv-x="459" />
<glyph unicode="&#x2006;" horiz-adv-x="306" />
<glyph unicode="&#x2007;" horiz-adv-x="306" />
<glyph unicode="&#x2008;" horiz-adv-x="229" />
<glyph unicode="&#x2009;" horiz-adv-x="367" />
<glyph unicode="&#x200a;" horiz-adv-x="102" />
<glyph unicode="&#x2010;" horiz-adv-x="997" d="M72 418q0 16 9 43t25.5 57.5t46 52t64.5 21.5q641 2 727 6q47 0 47 -35q0 -26 -14.5 -65.5t-45 -74t-65.5 -34.5q-4 0 -154.5 2t-203.5 2q-101 0 -192 -1.5t-144.5 -3t-62.5 -1.5q-17 0 -26 6.5t-10 11.5t-1 13z" />
<glyph unicode="&#x2011;" horiz-adv-x="997" d="M72 418q0 16 9 43t25.5 57.5t46 52t64.5 21.5q641 2 727 6q47 0 47 -35q0 -26 -14.5 -65.5t-45 -74t-65.5 -34.5q-4 0 -154.5 2t-203.5 2q-101 0 -192 -1.5t-144.5 -3t-62.5 -1.5q-17 0 -26 6.5t-10 11.5t-1 13z" />
<glyph unicode="&#x2012;" horiz-adv-x="997" d="M72 418q0 16 9 43t25.5 57.5t46 52t64.5 21.5q641 2 727 6q47 0 47 -35q0 -26 -14.5 -65.5t-45 -74t-65.5 -34.5q-4 0 -154.5 2t-203.5 2q-101 0 -192 -1.5t-144.5 -3t-62.5 -1.5q-17 0 -26 6.5t-10 11.5t-1 13z" />
<glyph unicode="&#x2013;" horiz-adv-x="997" d="M72 418q0 16 9 43t25.5 57.5t46 52t64.5 21.5q641 2 727 6q47 0 47 -35q0 -26 -14.5 -65.5t-45 -74t-65.5 -34.5q-4 0 -154.5 2t-203.5 2q-101 0 -192 -1.5t-144.5 -3t-62.5 -1.5q-17 0 -26 6.5t-10 11.5t-1 13z" />
<glyph unicode="&#x2014;" horiz-adv-x="1765" d="M72 418q0 16 9 43t25.5 57.5t46 52t64.5 21.5q1329 2 1415 6q47 0 47 -35q0 -26 -14.5 -65.5t-45 -74t-65.5 -34.5q-4 0 -286.5 2t-335.5 2q-101 0 -298 -1.5t-356.5 -3t-168.5 -1.5q-17 0 -26 6.5t-10 11.5t-1 13z" />
<glyph unicode="&#x2018;" horiz-adv-x="405" d="M406 1206q0 32 13 84.5t13 75.5q0 16 -9 36.5t-9 33.5q0 22 42.5 40.5t118.5 18.5q43 0 90.5 -13t47.5 -38q0 -6 -4 -14q-18 -31 -84.5 -167t-75.5 -171q-5 -17 -25 -17q-57 0 -87.5 41.5t-30.5 89.5z" />
<glyph unicode="&#x2019;" horiz-adv-x="479" d="M362 1092q0 5 3 10.5t5 8.5l3 3q100 217 143 307q1 2 3.5 6.5t14 14.5t27.5 18t47 14.5t70 6.5q24 0 51 -2t58.5 -13t31.5 -30q0 -15 -34.5 -45t-43.5 -48q-36 -71 -76.5 -124t-74 -81t-70 -44.5t-59 -20.5t-45.5 -4q-54 0 -54 23z" />
<glyph unicode="&#x201a;" horiz-adv-x="622" d="M2 -123q0 5 2.5 11t5.5 9l2 3q101 217 144 307q1 2 3.5 6t13.5 14.5t27 18t47 14t70 6.5q24 0 51 -2t59 -13t32 -30q0 -15 -34.5 -44.5t-43.5 -47.5q-36 -71 -76.5 -124t-74.5 -81t-70.5 -44.5t-59 -20.5t-45.5 -4q-53 0 -53 22z" />
<glyph unicode="&#x201c;" horiz-adv-x="782" d="M406 1206q0 32 13 84.5t13 75.5q0 16 -9 36.5t-9 33.5q0 22 42.5 40.5t118.5 18.5q45 0 90.5 -12.5t45.5 -38.5q0 -2 -4 -14q-30 -58 -89.5 -181t-68.5 -157q-5 -17 -25 -17q-57 0 -87.5 41.5t-30.5 89.5zM782 1206q0 32 13.5 84.5t13.5 75.5q0 16 -9 36.5t-9 33.5 q0 22 42.5 40.5t118.5 18.5q43 0 90.5 -13t47.5 -38q0 -4 -5 -14q-18 -30 -84 -166.5t-75 -171.5q-5 -17 -25 -17q-57 0 -88 42t-31 89z" />
<glyph unicode="&#x201d;" horiz-adv-x="897" d="M362 1092q0 5 3 10.5t5 8.5l3 3q100 217 143 307q1 2 3.5 6.5t14 14.5t27.5 18t47 14.5t70 6.5q24 0 51 -2t58.5 -13t31.5 -30q0 -15 -34.5 -45t-43.5 -48q-36 -71 -76.5 -124t-74 -81t-70 -44.5t-59 -20.5t-45.5 -4q-54 0 -54 23zM780 1092q0 5 3 10.5t5 8.5l3 3 q100 217 141 307q1 2 3.5 6.5t14 14.5t27.5 18t47 14.5t70 6.5q25 0 52.5 -2t59 -13t31.5 -30q0 -15 -34.5 -45t-43.5 -48q-36 -71 -76.5 -124t-74 -81t-70 -44.5t-59 -20.5t-45.5 -4q-54 0 -54 23z" />
<glyph unicode="&#x201e;" horiz-adv-x="1040" d="M2 -123q0 5 2.5 11t5.5 9l2 3q101 217 144 307q1 2 3.5 6t13.5 14.5t27 18t47 14t70 6.5q24 0 51 -2t59 -13t32 -30q0 -15 -34.5 -44.5t-43.5 -47.5q-36 -71 -76.5 -124t-74.5 -81t-70.5 -44.5t-59 -20.5t-45.5 -4q-53 0 -53 22zM420 -123q0 5 2.5 11t5.5 9l2 3 q100 217 141 307q1 2 3.5 6t14 14.5t27.5 18t47 14t70 6.5q25 0 52.5 -2t59.5 -13t32 -30q0 -15 -34.5 -44.5t-43.5 -47.5q-36 -71 -76.5 -124t-74.5 -81t-70.5 -44.5t-59 -20.5t-45.5 -4q-53 0 -53 22z" />
<glyph unicode="&#x2022;" horiz-adv-x="800" d="M92 428q0 61 38.5 112t97 81t121.5 46.5t118 16.5q113 0 186.5 -54.5t73.5 -129.5q0 -68 -54 -127t-138 -92t-173 -33q-120 0 -195 50.5t-75 129.5z" />
<glyph unicode="&#x2026;" horiz-adv-x="1929" d="M0 94q0 55 46 97.5t103 60.5t109 18q80 0 131 -37.5t51 -89.5q0 -71 -79 -122.5t-175 -51.5q-84 0 -135 35t-51 90zM659 94q0 55 46.5 97.5t103.5 60.5t109 18q80 0 131 -37.5t51 -89.5q0 -71 -79 -122.5t-175 -51.5q-84 0 -135.5 35t-51.5 90zM1319 94q0 55 46 97.5 t103 60.5t109 18q80 0 131 -37.5t51 -89.5q0 -71 -79 -122.5t-175 -51.5q-84 0 -135 35t-51 90z" />
<glyph unicode="&#x202f;" horiz-adv-x="367" />
<glyph unicode="&#x2039;" horiz-adv-x="1589" d="M100 457q0 11 3 20.5t10 19.5t11.5 15.5t14 16t11.5 12.5q97 97 279 246.5t226 173.5q45 25 100.5 36t170.5 11q51 0 77.5 -11.5t26.5 -27.5q0 -15 -22 -31q-106 -66 -346 -255t-240 -232q0 -55 102.5 -206t159.5 -218q10 -13 10 -25q0 -37 -90 -37q-195 0 -246 45 q-46 37 -125.5 169t-117.5 218q-15 41 -15 60zM737 457q0 11 3 20.5t10 20t10.5 15t14 16t11.5 12.5q97 97 279 246.5t227 173.5q45 25 100.5 36t170.5 11q51 0 77.5 -11.5t26.5 -27.5q0 -15 -22 -31q-106 -66 -346 -255t-240 -232q0 -55 102.5 -206t159.5 -218 q10 -13 10 -25q0 -37 -90 -37q-195 0 -246 45q-46 37 -125.5 169t-117.5 218q-15 41 -15 60z" />
<glyph unicode="&#x203a;" horiz-adv-x="1644" d="M-27 8q0 15 23 31q106 66 346 255t240 232q0 55 -102.5 206t-160.5 218q-10 13 -10 25q0 37 90 37q195 0 246 -45q46 -37 126 -169.5t118 -217.5q14 -38 14 -60q0 -11 -3 -20.5t-10 -20t-10.5 -15t-14 -16t-11.5 -12.5q-97 -97 -279 -246.5t-227 -173.5q-45 -25 -100 -36 t-170 -11q-51 0 -78 11.5t-27 27.5zM610 8q0 15 23 31q106 66 346 255t240 232q0 55 -102.5 206t-160.5 218q-10 13 -10 25q0 37 90 37q195 0 246 -45q46 -37 126 -169.5t118 -217.5q14 -38 14 -60q0 -11 -3 -20.5t-10 -20t-10.5 -15t-14 -16t-11.5 -12.5 q-97 -97 -279 -246.5t-227 -173.5q-45 -25 -100 -36t-170 -11q-51 0 -78 11.5t-27 27.5z" />
<glyph unicode="&#x205f;" horiz-adv-x="459" />
<glyph unicode="&#x20ac;" horiz-adv-x="1271" d="M23 449q0 21 16 62.5t52 82.5t79 41q41 -2 102 -2q26 90 62 166h-92q-41 2 -41 35q0 21 16 62.5t52 82.5t79 41q41 -2 98 -2q72 112 142 182q130 130 297.5 186t406.5 56q19 0 40.5 -0.5t66.5 -3t83.5 -9t76.5 -16.5t60.5 -27.5t22.5 -39.5q0 -61 -32 -127t-70 -66 q-10 0 -14 2q-72 21 -215 21q-133 0 -216.5 -26.5t-174.5 -117.5q-2 -2 -8.5 -7.5t-8.5 -8.5q285 0 387 6q3 0 8 -0.5t13 -8.5t8 -24q-1 -11 -4.5 -28.5t-23.5 -60.5t-50 -73q-30 -28 -158 -28q-31 0 -114.5 2t-126.5 2h-76q-31 -66 -66 -172h23q287 0 389 6q3 0 8 -0.5 t13 -8.5t8 -24q-1 -11 -4.5 -28.5t-23.5 -60.5t-50 -73q-30 -28 -158 -28q-31 0 -114.5 2t-126.5 2q7 -176 305 -176q108 0 184 26q12 4 18 4q25 0 25 -41q0 -88 -106 -194q-36 -36 -105.5 -55t-222.5 -19q-103 0 -187.5 14t-140 36t-97.5 53.5t-64.5 61.5t-36 66t-17.5 62 t-4 53q0 51 6 107q-27 0 -80.5 -1t-77.5 -1q-18 1 -27.5 8t-11 12.5t-1.5 14.5z" />
<glyph unicode="&#x2122;" horiz-adv-x="1447" d="M152 610q0 1 110.5 215t110.5 240q0 10 -39 10q-46 0 -70 -8q-4 -2 -10 -2q-8 0 -8 12q0 6 6.5 23.5t23.5 46.5t39 51q23 25 86 25q44 0 107.5 -4.5t85.5 -4.5q41 0 72 1t46.5 3t25 3.5t13 2.5t5.5 1q12 0 12 -13q0 -27 -24.5 -68.5t-41.5 -58.5q-14 -12 -51 -12 q-13 0 -24 1t-17 1q-11 0 -22 -8q-25 -25 -106 -204t-101 -234q-22 -49 -162 -49q-32 0 -49.5 9t-17.5 21zM524 612q0 7 4 11q50 76 143 273t111 298q5 35 131 35q49 0 93.5 -13t44.5 -45q-19 -143 -19 -196q0 -12 8 -12q6 0 13 10q117 156 164 203q43 43 163 43 q45 0 78 -6.5t46.5 -15t13.5 -17.5t-2 -11q-27 -49 -76 -147t-112.5 -253t-63.5 -216q0 -15 -5.5 -22t-12 -8t-21.5 -1q-50 0 -105 32.5t-55 72.5q0 15 62.5 140t62.5 146q0 7 -6 7q-14 0 -69.5 -71t-104.5 -143l-49 -71q-20 -27 -99 -27q-47 0 -47 21q0 2 9 57t16.5 114 t7.5 87q0 20 -6 20q-12 0 -64.5 -118.5t-66.5 -159.5q-9 -21 -42 -32t-75 -11q-70 0 -70 26z" />
<glyph unicode="&#x25fc;" horiz-adv-x="1146" d="M0 0v1147h1147v-1147h-1147z" />
<glyph unicode="&#xfb01;" horiz-adv-x="1189" d="M-481 -426q14 23 43 43q163 107 293 340q51 92 132 257.5t139.5 291.5t61.5 139v4q0 23 -82 23q-24 0 -24 28q0 31 28.5 84t61.5 86q26 26 58.5 32.5t54.5 7t28 12.5q6 13 45.5 100t53.5 115q78 166 195 237.5t294 71.5q50 0 106 -17.5t56 -50.5q0 -9 -5.5 -14.5t-23 -13 t-24.5 -11.5q-8 -5 -32.5 -19t-38.5 -22.5t-40 -28t-45 -38t-45.5 -49.5t-48 -65t-46 -82t-46.5 -103q-2 -4 -2 -10q0 -8 14 -11q20 -4 178 -4q6 0 25.5 1t38.5 1t24 -10q78 33 223 33q14 0 31.5 -2t43 -7t42.5 -18t17 -31q0 -8 -6.5 -21.5t-18 -33.5t-16.5 -31 q-7 -13 -47 -87.5t-62.5 -118t-63.5 -124.5t-66 -139t-52 -126.5t-40 -123t-13 -94.5q0 -58 11 -102.5t21 -60.5l11 -15q6 -9 6 -18q0 -37 -97 -37q-136 0 -233.5 69.5t-97.5 176.5q0 50 31.5 144.5t66.5 174t92.5 205t77.5 170.5q-24 -6 -62 -6q-30 0 -76.5 -2t-56.5 -2 q-47 0 -61 -21q-9 -14 -86.5 -194t-167 -386t-119.5 -266q-82 -164 -199 -232.5t-307 -68.5q-15 0 -36 2.5t-49.5 9t-48 22t-19.5 36.5zM1030 1204q0 70 78 122t174 52q82 0 134 -37t52 -90q0 -42 -26 -77t-66 -55t-81.5 -31t-77.5 -11q-83 0 -135 36.5t-52 90.5z" />
<glyph unicode="&#xfb02;" horiz-adv-x="1163" d="M-481 -426q14 23 43 43q163 107 293 340q51 92 132 257.5t139.5 291.5t61.5 139v4q0 23 -82 23q-24 0 -24 28q0 31 28.5 84t61.5 86q26 26 58.5 32.5t54.5 7t28 12.5q6 13 45.5 100t53.5 115q78 166 195 237.5t294 71.5q50 0 106 -17.5t56 -50.5q0 -9 -5.5 -14.5t-23 -13 t-24.5 -11.5q-8 -5 -32.5 -19t-38.5 -22.5t-40 -28t-45 -38t-45.5 -49.5t-48 -65t-46 -82t-46.5 -103q-2 -4 -2 -10q0 -8 14 -11q20 -4 57 -4q6 0 25.5 1t38.5 1q26 0 26 -18q0 -13 -5 -34.5t-30.5 -67.5t-68.5 -89q-28 -28 -111 -28q-47 0 -61 -21q-9 -14 -86.5 -194 t-167 -386t-119.5 -266q-82 -164 -199 -232.5t-307 -68.5q-15 0 -36 2.5t-49.5 9t-48 22t-19.5 36.5zM565 8q0 64 23 148.5t69 191.5t87.5 194.5t109 221.5t102.5 209q76 159 102.5 235.5t26.5 149.5q0 36 -1.5 61t-3.5 34.5t-3.5 17t-1.5 12.5q0 19 20 24.5t64 5.5 q43 0 93.5 -14t97.5 -38.5t78.5 -65.5t31.5 -88q0 -60 -36.5 -150t-108.5 -231q-367 -718 -367 -928q0 -58 11 -102.5t21 -59.5l11 -16q6 -9 6 -19q0 -12 -13 -20.5t-32.5 -11.5t-31.5 -4t-19 -1q-88 0 -164 30t-124 86.5t-48 127.5z" />
</font>
</defs>
</svg>
